<svg width="612" height="368" viewBox="0 0 612 368" fill="none" xmlns="http://www.w3.org/2000/svg">
<line x1="9.5" y1="68" x2="9.5" y2="97" stroke="white"/>
<path d="M37.3535 23.6464C37.1583 23.4512 36.8417 23.4512 36.6464 23.6464L33.4645 26.8284C33.2692 27.0237 33.2692 27.3403 33.4645 27.5355C33.6597 27.7308 33.9763 27.7308 34.1716 27.5355L37 24.7071L39.8284 27.5355C40.0237 27.7308 40.3403 27.7308 40.5355 27.5355C40.7308 27.3403 40.7308 27.0237 40.5355 26.8284L37.3535 23.6464ZM37.5 336L37.5 24L36.5 24L36.5 336L37.5 336Z" fill="black"/>
<path d="M557.777 337.082C557.972 336.887 557.973 336.571 557.777 336.375L554.597 333.192C554.402 332.997 554.085 332.996 553.89 333.192C553.694 333.387 553.694 333.703 553.889 333.899L556.717 336.728L553.887 339.556C553.691 339.751 553.691 340.067 553.886 340.263C554.082 340.458 554.398 340.458 554.594 340.263L557.777 337.082ZM37.7239 336.981L557.423 337.229L557.424 336.229L37.7244 335.981L37.7239 336.981Z" fill="black"/>
<rect x="175" y="221" width="35" height="115" fill="#58BC81"/>
<rect x="492" y="74" width="33" height="262" fill="#58BC81"/>
<path d="M94.81 362C95.43 361.37 96.025 360.765 96.595 360.185C97.165 359.595 97.675 359.03 98.125 358.49C98.585 357.94 98.945 357.41 99.205 356.9C99.475 356.39 99.61 355.895 99.61 355.415C99.61 355.205 99.57 355.015 99.49 354.845C99.42 354.675 99.315 354.53 99.175 354.41C99.045 354.29 98.885 354.2 98.695 354.14C98.515 354.07 98.31 354.035 98.08 354.035C97.85 354.035 97.645 354.07 97.465 354.14C97.285 354.2 97.135 354.285 97.015 354.395C96.895 354.505 96.8 354.625 96.73 354.755C96.67 354.885 96.64 355.02 96.64 355.16C96.64 355.48 96.69 355.765 96.79 356.015C96.9 356.255 97.045 356.47 97.225 356.66L95.89 357.875C95.6 357.735 95.35 357.5 95.14 357.17C94.94 356.84 94.785 356.495 94.675 356.135C94.575 355.765 94.525 355.46 94.525 355.22C94.525 354.67 94.675 354.145 94.975 353.645C95.285 353.145 95.73 352.735 96.31 352.415C96.9 352.095 97.615 351.935 98.455 351.935C99.145 351.935 99.745 352.09 100.255 352.4C100.765 352.71 101.16 353.12 101.44 353.63C101.73 354.13 101.875 354.665 101.875 355.235C101.875 355.685 101.805 356.12 101.665 356.54C101.525 356.96 101.33 357.375 101.08 357.785C100.84 358.185 100.565 358.585 100.255 358.985C99.945 359.375 99.625 359.775 99.295 360.185L98.305 359.9H101.995V362H94.81ZM107.455 362.015C106.885 362.015 106.345 361.915 105.835 361.715C105.335 361.515 104.89 361.21 104.5 360.8C104.12 360.38 103.82 359.855 103.6 359.225C103.38 358.585 103.27 357.835 103.27 356.975C103.27 356.015 103.375 355.215 103.585 354.575C103.795 353.925 104.085 353.405 104.455 353.015C104.835 352.625 105.28 352.35 105.79 352.19C106.3 352.02 106.855 351.935 107.455 351.935C108.025 351.935 108.56 352.035 109.06 352.235C109.57 352.435 110.015 352.745 110.395 353.165C110.785 353.575 111.09 354.1 111.31 354.74C111.53 355.37 111.64 356.115 111.64 356.975C111.64 357.865 111.53 358.63 111.31 359.27C111.09 359.91 110.785 360.435 110.395 360.845C110.005 361.245 109.56 361.54 109.06 361.73C108.56 361.92 108.025 362.015 107.455 362.015ZM107.44 359.93C107.94 359.93 108.33 359.8 108.61 359.54C108.89 359.27 109.085 358.905 109.195 358.445C109.315 357.985 109.375 357.475 109.375 356.915C109.375 356.365 109.315 355.875 109.195 355.445C109.085 355.015 108.89 354.675 108.61 354.425C108.33 354.165 107.94 354.035 107.44 354.035C106.95 354.035 106.565 354.165 106.285 354.425C106.005 354.685 105.81 355.035 105.7 355.475C105.59 355.915 105.535 356.41 105.535 356.96C105.535 357.51 105.59 358.01 105.7 358.46C105.81 358.91 106.005 359.27 106.285 359.54C106.565 359.8 106.95 359.93 107.44 359.93ZM112.974 362C113.594 361.37 114.189 360.765 114.759 360.185C115.329 359.595 115.839 359.03 116.289 358.49C116.749 357.94 117.109 357.41 117.369 356.9C117.639 356.39 117.774 355.895 117.774 355.415C117.774 355.205 117.734 355.015 117.654 354.845C117.584 354.675 117.479 354.53 117.339 354.41C117.209 354.29 117.049 354.2 116.859 354.14C116.679 354.07 116.474 354.035 116.244 354.035C116.014 354.035 115.809 354.07 115.629 354.14C115.449 354.2 115.299 354.285 115.179 354.395C115.059 354.505 114.964 354.625 114.894 354.755C114.834 354.885 114.804 355.02 114.804 355.16C114.804 355.48 114.854 355.765 114.954 356.015C115.064 356.255 115.209 356.47 115.389 356.66L114.054 357.875C113.764 357.735 113.514 357.5 113.304 357.17C113.104 356.84 112.949 356.495 112.839 356.135C112.739 355.765 112.689 355.46 112.689 355.22C112.689 354.67 112.839 354.145 113.139 353.645C113.449 353.145 113.894 352.735 114.474 352.415C115.064 352.095 115.779 351.935 116.619 351.935C117.309 351.935 117.909 352.09 118.419 352.4C118.929 352.71 119.324 353.12 119.604 353.63C119.894 354.13 120.039 354.665 120.039 355.235C120.039 355.685 119.969 356.12 119.829 356.54C119.689 356.96 119.494 357.375 119.244 357.785C119.004 358.185 118.729 358.585 118.419 358.985C118.109 359.375 117.789 359.775 117.459 360.185L116.469 359.9H120.159V362H112.974ZM127.749 352.055L125.499 356.375L124.314 355.73C124.414 355.69 124.519 355.66 124.629 355.64C124.749 355.62 124.859 355.61 124.959 355.61C125.309 355.6 125.659 355.64 126.009 355.73C126.359 355.82 126.674 355.98 126.954 356.21C127.244 356.44 127.474 356.755 127.644 357.155C127.824 357.555 127.914 358.065 127.914 358.685C127.914 359.405 127.744 360.025 127.404 360.545C127.074 361.055 126.639 361.445 126.099 361.715C125.559 361.985 124.974 362.12 124.344 362.12C123.854 362.12 123.339 362.02 122.799 361.82C122.259 361.61 121.829 361.335 121.509 360.995L122.619 359.195C122.769 359.385 122.999 359.57 123.309 359.75C123.619 359.93 123.944 360.02 124.284 360.02C124.504 360.02 124.719 359.965 124.929 359.855C125.139 359.745 125.314 359.58 125.454 359.36C125.594 359.14 125.664 358.87 125.664 358.55C125.664 358.11 125.539 357.76 125.289 357.5C125.049 357.24 124.709 357.11 124.269 357.11C123.969 357.11 123.739 357.125 123.579 357.155C123.429 357.175 123.279 357.205 123.129 357.245L123.084 357.185L124.839 353.9L125.469 354.155H122.334V352.055H127.749Z" fill="black"/>
<path d="M489.81 362C490.43 361.37 491.025 360.765 491.595 360.185C492.165 359.595 492.675 359.03 493.125 358.49C493.585 357.94 493.945 357.41 494.205 356.9C494.475 356.39 494.61 355.895 494.61 355.415C494.61 355.205 494.57 355.015 494.49 354.845C494.42 354.675 494.315 354.53 494.175 354.41C494.045 354.29 493.885 354.2 493.695 354.14C493.515 354.07 493.31 354.035 493.08 354.035C492.85 354.035 492.645 354.07 492.465 354.14C492.285 354.2 492.135 354.285 492.015 354.395C491.895 354.505 491.8 354.625 491.73 354.755C491.67 354.885 491.64 355.02 491.64 355.16C491.64 355.48 491.69 355.765 491.79 356.015C491.9 356.255 492.045 356.47 492.225 356.66L490.89 357.875C490.6 357.735 490.35 357.5 490.14 357.17C489.94 356.84 489.785 356.495 489.675 356.135C489.575 355.765 489.525 355.46 489.525 355.22C489.525 354.67 489.675 354.145 489.975 353.645C490.285 353.145 490.73 352.735 491.31 352.415C491.9 352.095 492.615 351.935 493.455 351.935C494.145 351.935 494.745 352.09 495.255 352.4C495.765 352.71 496.16 353.12 496.44 353.63C496.73 354.13 496.875 354.665 496.875 355.235C496.875 355.685 496.805 356.12 496.665 356.54C496.525 356.96 496.33 357.375 496.08 357.785C495.84 358.185 495.565 358.585 495.255 358.985C494.945 359.375 494.625 359.775 494.295 360.185L493.305 359.9H496.995V362H489.81ZM502.455 362.015C501.885 362.015 501.345 361.915 500.835 361.715C500.335 361.515 499.89 361.21 499.5 360.8C499.12 360.38 498.82 359.855 498.6 359.225C498.38 358.585 498.27 357.835 498.27 356.975C498.27 356.015 498.375 355.215 498.585 354.575C498.795 353.925 499.085 353.405 499.455 353.015C499.835 352.625 500.28 352.35 500.79 352.19C501.3 352.02 501.855 351.935 502.455 351.935C503.025 351.935 503.56 352.035 504.06 352.235C504.57 352.435 505.015 352.745 505.395 353.165C505.785 353.575 506.09 354.1 506.31 354.74C506.53 355.37 506.64 356.115 506.64 356.975C506.64 357.865 506.53 358.63 506.31 359.27C506.09 359.91 505.785 360.435 505.395 360.845C505.005 361.245 504.56 361.54 504.06 361.73C503.56 361.92 503.025 362.015 502.455 362.015ZM502.44 359.93C502.94 359.93 503.33 359.8 503.61 359.54C503.89 359.27 504.085 358.905 504.195 358.445C504.315 357.985 504.375 357.475 504.375 356.915C504.375 356.365 504.315 355.875 504.195 355.445C504.085 355.015 503.89 354.675 503.61 354.425C503.33 354.165 502.94 354.035 502.44 354.035C501.95 354.035 501.565 354.165 501.285 354.425C501.005 354.685 500.81 355.035 500.7 355.475C500.59 355.915 500.535 356.41 500.535 356.96C500.535 357.51 500.59 358.01 500.7 358.46C500.81 358.91 501.005 359.27 501.285 359.54C501.565 359.8 501.95 359.93 502.44 359.93ZM507.974 362C508.594 361.37 509.189 360.765 509.759 360.185C510.329 359.595 510.839 359.03 511.289 358.49C511.749 357.94 512.109 357.41 512.369 356.9C512.639 356.39 512.774 355.895 512.774 355.415C512.774 355.205 512.734 355.015 512.654 354.845C512.584 354.675 512.479 354.53 512.339 354.41C512.209 354.29 512.049 354.2 511.859 354.14C511.679 354.07 511.474 354.035 511.244 354.035C511.014 354.035 510.809 354.07 510.629 354.14C510.449 354.2 510.299 354.285 510.179 354.395C510.059 354.505 509.964 354.625 509.894 354.755C509.834 354.885 509.804 355.02 509.804 355.16C509.804 355.48 509.854 355.765 509.954 356.015C510.064 356.255 510.209 356.47 510.389 356.66L509.054 357.875C508.764 357.735 508.514 357.5 508.304 357.17C508.104 356.84 507.949 356.495 507.839 356.135C507.739 355.765 507.689 355.46 507.689 355.22C507.689 354.67 507.839 354.145 508.139 353.645C508.449 353.145 508.894 352.735 509.474 352.415C510.064 352.095 510.779 351.935 511.619 351.935C512.309 351.935 512.909 352.09 513.419 352.4C513.929 352.71 514.324 353.12 514.604 353.63C514.894 354.13 515.039 354.665 515.039 355.235C515.039 355.685 514.969 356.12 514.829 356.54C514.689 356.96 514.494 357.375 514.244 357.785C514.004 358.185 513.729 358.585 513.419 358.985C513.109 359.375 512.789 359.775 512.459 360.185L511.469 359.9H515.159V362H507.974ZM516.134 358.775C516.134 358.255 516.229 357.815 516.419 357.455C516.609 357.095 516.839 356.8 517.109 356.57C517.389 356.33 517.644 356.14 517.874 356C517.654 355.77 517.464 355.535 517.304 355.295C517.154 355.045 517.079 354.695 517.079 354.245C517.079 353.795 517.204 353.395 517.454 353.045C517.714 352.695 518.059 352.425 518.489 352.235C518.919 352.035 519.394 351.935 519.914 351.935C520.434 351.935 520.909 352.035 521.339 352.235C521.779 352.425 522.129 352.685 522.389 353.015C522.659 353.345 522.794 353.72 522.794 354.14C522.794 354.64 522.709 355.015 522.539 355.265C522.379 355.515 522.179 355.76 521.939 356C522.179 356.15 522.429 356.345 522.689 356.585C522.959 356.825 523.189 357.125 523.379 357.485C523.569 357.835 523.664 358.265 523.664 358.775C523.664 359.355 523.499 359.9 523.169 360.41C522.839 360.92 522.389 361.335 521.819 361.655C521.259 361.965 520.614 362.12 519.884 362.12C519.154 362.12 518.504 361.965 517.934 361.655C517.374 361.335 516.934 360.92 516.614 360.41C516.294 359.9 516.134 359.355 516.134 358.775ZM518.369 358.685C518.369 358.975 518.439 359.245 518.579 359.495C518.719 359.735 518.904 359.93 519.134 360.08C519.364 360.22 519.619 360.29 519.899 360.29C520.189 360.29 520.454 360.22 520.694 360.08C520.934 359.93 521.124 359.735 521.264 359.495C521.414 359.245 521.489 358.975 521.489 358.685C521.489 358.395 521.419 358.135 521.279 357.905C521.149 357.665 520.969 357.47 520.739 357.32C520.519 357.17 520.269 357.09 519.989 357.08C519.709 357.07 519.444 357.135 519.194 357.275C518.954 357.415 518.754 357.61 518.594 357.86C518.444 358.1 518.369 358.375 518.369 358.685ZM519.194 354.515C519.194 354.715 519.274 354.89 519.434 355.04C519.604 355.19 519.779 355.265 519.959 355.265C520.139 355.265 520.309 355.19 520.469 355.04C520.629 354.89 520.709 354.715 520.709 354.515C520.709 354.315 520.629 354.14 520.469 353.99C520.319 353.83 520.149 353.75 519.959 353.75C519.769 353.75 519.594 353.83 519.434 353.99C519.274 354.14 519.194 354.315 519.194 354.515Z" fill="black"/>
<path d="M409.81 362C410.43 361.37 411.025 360.765 411.595 360.185C412.165 359.595 412.675 359.03 413.125 358.49C413.585 357.94 413.945 357.41 414.205 356.9C414.475 356.39 414.61 355.895 414.61 355.415C414.61 355.205 414.57 355.015 414.49 354.845C414.42 354.675 414.315 354.53 414.175 354.41C414.045 354.29 413.885 354.2 413.695 354.14C413.515 354.07 413.31 354.035 413.08 354.035C412.85 354.035 412.645 354.07 412.465 354.14C412.285 354.2 412.135 354.285 412.015 354.395C411.895 354.505 411.8 354.625 411.73 354.755C411.67 354.885 411.64 355.02 411.64 355.16C411.64 355.48 411.69 355.765 411.79 356.015C411.9 356.255 412.045 356.47 412.225 356.66L410.89 357.875C410.6 357.735 410.35 357.5 410.14 357.17C409.94 356.84 409.785 356.495 409.675 356.135C409.575 355.765 409.525 355.46 409.525 355.22C409.525 354.67 409.675 354.145 409.975 353.645C410.285 353.145 410.73 352.735 411.31 352.415C411.9 352.095 412.615 351.935 413.455 351.935C414.145 351.935 414.745 352.09 415.255 352.4C415.765 352.71 416.16 353.12 416.44 353.63C416.73 354.13 416.875 354.665 416.875 355.235C416.875 355.685 416.805 356.12 416.665 356.54C416.525 356.96 416.33 357.375 416.08 357.785C415.84 358.185 415.565 358.585 415.255 358.985C414.945 359.375 414.625 359.775 414.295 360.185L413.305 359.9H416.995V362H409.81ZM422.455 362.015C421.885 362.015 421.345 361.915 420.835 361.715C420.335 361.515 419.89 361.21 419.5 360.8C419.12 360.38 418.82 359.855 418.6 359.225C418.38 358.585 418.27 357.835 418.27 356.975C418.27 356.015 418.375 355.215 418.585 354.575C418.795 353.925 419.085 353.405 419.455 353.015C419.835 352.625 420.28 352.35 420.79 352.19C421.3 352.02 421.855 351.935 422.455 351.935C423.025 351.935 423.56 352.035 424.06 352.235C424.57 352.435 425.015 352.745 425.395 353.165C425.785 353.575 426.09 354.1 426.31 354.74C426.53 355.37 426.64 356.115 426.64 356.975C426.64 357.865 426.53 358.63 426.31 359.27C426.09 359.91 425.785 360.435 425.395 360.845C425.005 361.245 424.56 361.54 424.06 361.73C423.56 361.92 423.025 362.015 422.455 362.015ZM422.44 359.93C422.94 359.93 423.33 359.8 423.61 359.54C423.89 359.27 424.085 358.905 424.195 358.445C424.315 357.985 424.375 357.475 424.375 356.915C424.375 356.365 424.315 355.875 424.195 355.445C424.085 355.015 423.89 354.675 423.61 354.425C423.33 354.165 422.94 354.035 422.44 354.035C421.95 354.035 421.565 354.165 421.285 354.425C421.005 354.685 420.81 355.035 420.7 355.475C420.59 355.915 420.535 356.41 420.535 356.96C420.535 357.51 420.59 358.01 420.7 358.46C420.81 358.91 421.005 359.27 421.285 359.54C421.565 359.8 421.95 359.93 422.44 359.93ZM427.974 362C428.594 361.37 429.189 360.765 429.759 360.185C430.329 359.595 430.839 359.03 431.289 358.49C431.749 357.94 432.109 357.41 432.369 356.9C432.639 356.39 432.774 355.895 432.774 355.415C432.774 355.205 432.734 355.015 432.654 354.845C432.584 354.675 432.479 354.53 432.339 354.41C432.209 354.29 432.049 354.2 431.859 354.14C431.679 354.07 431.474 354.035 431.244 354.035C431.014 354.035 430.809 354.07 430.629 354.14C430.449 354.2 430.299 354.285 430.179 354.395C430.059 354.505 429.964 354.625 429.894 354.755C429.834 354.885 429.804 355.02 429.804 355.16C429.804 355.48 429.854 355.765 429.954 356.015C430.064 356.255 430.209 356.47 430.389 356.66L429.054 357.875C428.764 357.735 428.514 357.5 428.304 357.17C428.104 356.84 427.949 356.495 427.839 356.135C427.739 355.765 427.689 355.46 427.689 355.22C427.689 354.67 427.839 354.145 428.139 353.645C428.449 353.145 428.894 352.735 429.474 352.415C430.064 352.095 430.779 351.935 431.619 351.935C432.309 351.935 432.909 352.09 433.419 352.4C433.929 352.71 434.324 353.12 434.604 353.63C434.894 354.13 435.039 354.665 435.039 355.235C435.039 355.685 434.969 356.12 434.829 356.54C434.689 356.96 434.494 357.375 434.244 357.785C434.004 358.185 433.729 358.585 433.419 358.985C433.109 359.375 432.789 359.775 432.459 360.185L431.469 359.9H435.159V362H427.974ZM443.229 352.055L439.524 362H437.094L440.169 353.9L440.874 354.155H436.509V352.055H443.229Z" fill="black"/>
<path d="M333.81 362C334.43 361.37 335.025 360.765 335.595 360.185C336.165 359.595 336.675 359.03 337.125 358.49C337.585 357.94 337.945 357.41 338.205 356.9C338.475 356.39 338.61 355.895 338.61 355.415C338.61 355.205 338.57 355.015 338.49 354.845C338.42 354.675 338.315 354.53 338.175 354.41C338.045 354.29 337.885 354.2 337.695 354.14C337.515 354.07 337.31 354.035 337.08 354.035C336.85 354.035 336.645 354.07 336.465 354.14C336.285 354.2 336.135 354.285 336.015 354.395C335.895 354.505 335.8 354.625 335.73 354.755C335.67 354.885 335.64 355.02 335.64 355.16C335.64 355.48 335.69 355.765 335.79 356.015C335.9 356.255 336.045 356.47 336.225 356.66L334.89 357.875C334.6 357.735 334.35 357.5 334.14 357.17C333.94 356.84 333.785 356.495 333.675 356.135C333.575 355.765 333.525 355.46 333.525 355.22C333.525 354.67 333.675 354.145 333.975 353.645C334.285 353.145 334.73 352.735 335.31 352.415C335.9 352.095 336.615 351.935 337.455 351.935C338.145 351.935 338.745 352.09 339.255 352.4C339.765 352.71 340.16 353.12 340.44 353.63C340.73 354.13 340.875 354.665 340.875 355.235C340.875 355.685 340.805 356.12 340.665 356.54C340.525 356.96 340.33 357.375 340.08 357.785C339.84 358.185 339.565 358.585 339.255 358.985C338.945 359.375 338.625 359.775 338.295 360.185L337.305 359.9H340.995V362H333.81ZM346.455 362.015C345.885 362.015 345.345 361.915 344.835 361.715C344.335 361.515 343.89 361.21 343.5 360.8C343.12 360.38 342.82 359.855 342.6 359.225C342.38 358.585 342.27 357.835 342.27 356.975C342.27 356.015 342.375 355.215 342.585 354.575C342.795 353.925 343.085 353.405 343.455 353.015C343.835 352.625 344.28 352.35 344.79 352.19C345.3 352.02 345.855 351.935 346.455 351.935C347.025 351.935 347.56 352.035 348.06 352.235C348.57 352.435 349.015 352.745 349.395 353.165C349.785 353.575 350.09 354.1 350.31 354.74C350.53 355.37 350.64 356.115 350.64 356.975C350.64 357.865 350.53 358.63 350.31 359.27C350.09 359.91 349.785 360.435 349.395 360.845C349.005 361.245 348.56 361.54 348.06 361.73C347.56 361.92 347.025 362.015 346.455 362.015ZM346.44 359.93C346.94 359.93 347.33 359.8 347.61 359.54C347.89 359.27 348.085 358.905 348.195 358.445C348.315 357.985 348.375 357.475 348.375 356.915C348.375 356.365 348.315 355.875 348.195 355.445C348.085 355.015 347.89 354.675 347.61 354.425C347.33 354.165 346.94 354.035 346.44 354.035C345.95 354.035 345.565 354.165 345.285 354.425C345.005 354.685 344.81 355.035 344.7 355.475C344.59 355.915 344.535 356.41 344.535 356.96C344.535 357.51 344.59 358.01 344.7 358.46C344.81 358.91 345.005 359.27 345.285 359.54C345.565 359.8 345.95 359.93 346.44 359.93ZM351.974 362C352.594 361.37 353.189 360.765 353.759 360.185C354.329 359.595 354.839 359.03 355.289 358.49C355.749 357.94 356.109 357.41 356.369 356.9C356.639 356.39 356.774 355.895 356.774 355.415C356.774 355.205 356.734 355.015 356.654 354.845C356.584 354.675 356.479 354.53 356.339 354.41C356.209 354.29 356.049 354.2 355.859 354.14C355.679 354.07 355.474 354.035 355.244 354.035C355.014 354.035 354.809 354.07 354.629 354.14C354.449 354.2 354.299 354.285 354.179 354.395C354.059 354.505 353.964 354.625 353.894 354.755C353.834 354.885 353.804 355.02 353.804 355.16C353.804 355.48 353.854 355.765 353.954 356.015C354.064 356.255 354.209 356.47 354.389 356.66L353.054 357.875C352.764 357.735 352.514 357.5 352.304 357.17C352.104 356.84 351.949 356.495 351.839 356.135C351.739 355.765 351.689 355.46 351.689 355.22C351.689 354.67 351.839 354.145 352.139 353.645C352.449 353.145 352.894 352.735 353.474 352.415C354.064 352.095 354.779 351.935 355.619 351.935C356.309 351.935 356.909 352.09 357.419 352.4C357.929 352.71 358.324 353.12 358.604 353.63C358.894 354.13 359.039 354.665 359.039 355.235C359.039 355.685 358.969 356.12 358.829 356.54C358.689 356.96 358.494 357.375 358.244 357.785C358.004 358.185 357.729 358.585 357.419 358.985C357.109 359.375 356.789 359.775 356.459 360.185L355.469 359.9H359.159V362H351.974ZM364.199 362.12C363.479 362.12 362.829 361.95 362.249 361.61C361.669 361.27 361.209 360.77 360.869 360.11C360.529 359.45 360.359 358.645 360.359 357.695C360.359 357.105 360.469 356.535 360.689 355.985C360.919 355.425 361.229 354.895 361.619 354.395C362.019 353.885 362.479 353.41 362.999 352.97C363.519 352.53 364.074 352.135 364.664 351.785L366.119 353.36C365.319 353.67 364.664 354.07 364.154 354.56C363.644 355.04 363.269 355.54 363.029 356.06C362.789 356.58 362.669 357.06 362.669 357.5L362.129 357.44C362.399 356.81 362.744 356.32 363.164 355.97C363.594 355.62 364.189 355.445 364.949 355.445C365.429 355.445 365.894 355.58 366.344 355.85C366.794 356.12 367.159 356.495 367.439 356.975C367.729 357.455 367.874 358.015 367.874 358.655C367.874 359.395 367.694 360.025 367.334 360.545C366.984 361.055 366.529 361.445 365.969 361.715C365.409 361.985 364.819 362.12 364.199 362.12ZM364.109 360.17C364.399 360.17 364.654 360.115 364.874 360.005C365.104 359.885 365.284 359.715 365.414 359.495C365.544 359.265 365.609 358.99 365.609 358.67C365.609 358.36 365.539 358.105 365.399 357.905C365.269 357.695 365.089 357.54 364.859 357.44C364.639 357.33 364.389 357.275 364.109 357.275C363.829 357.275 363.574 357.33 363.344 357.44C363.124 357.54 362.944 357.68 362.804 357.86C362.674 358.03 362.609 358.215 362.609 358.415V358.775C362.609 359.015 362.674 359.24 362.804 359.45C362.934 359.66 363.114 359.835 363.344 359.975C363.574 360.105 363.829 360.17 364.109 360.17Z" fill="black"/>
<path d="M254.81 362C255.43 361.37 256.025 360.765 256.595 360.185C257.165 359.595 257.675 359.03 258.125 358.49C258.585 357.94 258.945 357.41 259.205 356.9C259.475 356.39 259.61 355.895 259.61 355.415C259.61 355.205 259.57 355.015 259.49 354.845C259.42 354.675 259.315 354.53 259.175 354.41C259.045 354.29 258.885 354.2 258.695 354.14C258.515 354.07 258.31 354.035 258.08 354.035C257.85 354.035 257.645 354.07 257.465 354.14C257.285 354.2 257.135 354.285 257.015 354.395C256.895 354.505 256.8 354.625 256.73 354.755C256.67 354.885 256.64 355.02 256.64 355.16C256.64 355.48 256.69 355.765 256.79 356.015C256.9 356.255 257.045 356.47 257.225 356.66L255.89 357.875C255.6 357.735 255.35 357.5 255.14 357.17C254.94 356.84 254.785 356.495 254.675 356.135C254.575 355.765 254.525 355.46 254.525 355.22C254.525 354.67 254.675 354.145 254.975 353.645C255.285 353.145 255.73 352.735 256.31 352.415C256.9 352.095 257.615 351.935 258.455 351.935C259.145 351.935 259.745 352.09 260.255 352.4C260.765 352.71 261.16 353.12 261.44 353.63C261.73 354.13 261.875 354.665 261.875 355.235C261.875 355.685 261.805 356.12 261.665 356.54C261.525 356.96 261.33 357.375 261.08 357.785C260.84 358.185 260.565 358.585 260.255 358.985C259.945 359.375 259.625 359.775 259.295 360.185L258.305 359.9H261.995V362H254.81ZM267.455 362.015C266.885 362.015 266.345 361.915 265.835 361.715C265.335 361.515 264.89 361.21 264.5 360.8C264.12 360.38 263.82 359.855 263.6 359.225C263.38 358.585 263.27 357.835 263.27 356.975C263.27 356.015 263.375 355.215 263.585 354.575C263.795 353.925 264.085 353.405 264.455 353.015C264.835 352.625 265.28 352.35 265.79 352.19C266.3 352.02 266.855 351.935 267.455 351.935C268.025 351.935 268.56 352.035 269.06 352.235C269.57 352.435 270.015 352.745 270.395 353.165C270.785 353.575 271.09 354.1 271.31 354.74C271.53 355.37 271.64 356.115 271.64 356.975C271.64 357.865 271.53 358.63 271.31 359.27C271.09 359.91 270.785 360.435 270.395 360.845C270.005 361.245 269.56 361.54 269.06 361.73C268.56 361.92 268.025 362.015 267.455 362.015ZM267.44 359.93C267.94 359.93 268.33 359.8 268.61 359.54C268.89 359.27 269.085 358.905 269.195 358.445C269.315 357.985 269.375 357.475 269.375 356.915C269.375 356.365 269.315 355.875 269.195 355.445C269.085 355.015 268.89 354.675 268.61 354.425C268.33 354.165 267.94 354.035 267.44 354.035C266.95 354.035 266.565 354.165 266.285 354.425C266.005 354.685 265.81 355.035 265.7 355.475C265.59 355.915 265.535 356.41 265.535 356.96C265.535 357.51 265.59 358.01 265.7 358.46C265.81 358.91 266.005 359.27 266.285 359.54C266.565 359.8 266.95 359.93 267.44 359.93ZM272.974 362C273.594 361.37 274.189 360.765 274.759 360.185C275.329 359.595 275.839 359.03 276.289 358.49C276.749 357.94 277.109 357.41 277.369 356.9C277.639 356.39 277.774 355.895 277.774 355.415C277.774 355.205 277.734 355.015 277.654 354.845C277.584 354.675 277.479 354.53 277.339 354.41C277.209 354.29 277.049 354.2 276.859 354.14C276.679 354.07 276.474 354.035 276.244 354.035C276.014 354.035 275.809 354.07 275.629 354.14C275.449 354.2 275.299 354.285 275.179 354.395C275.059 354.505 274.964 354.625 274.894 354.755C274.834 354.885 274.804 355.02 274.804 355.16C274.804 355.48 274.854 355.765 274.954 356.015C275.064 356.255 275.209 356.47 275.389 356.66L274.054 357.875C273.764 357.735 273.514 357.5 273.304 357.17C273.104 356.84 272.949 356.495 272.839 356.135C272.739 355.765 272.689 355.46 272.689 355.22C272.689 354.67 272.839 354.145 273.139 353.645C273.449 353.145 273.894 352.735 274.474 352.415C275.064 352.095 275.779 351.935 276.619 351.935C277.309 351.935 277.909 352.09 278.419 352.4C278.929 352.71 279.324 353.12 279.604 353.63C279.894 354.13 280.039 354.665 280.039 355.235C280.039 355.685 279.969 356.12 279.829 356.54C279.689 356.96 279.494 357.375 279.244 357.785C279.004 358.185 278.729 358.585 278.419 358.985C278.109 359.375 277.789 359.775 277.459 360.185L276.469 359.9H280.159V362H272.974ZM284.539 362.12C283.949 362.12 283.374 362.01 282.814 361.79C282.254 361.57 281.819 361.305 281.509 360.995L282.634 359.255C282.814 359.475 283.069 359.66 283.399 359.81C283.739 359.95 284.064 360.02 284.374 360.02C284.604 360.02 284.819 359.97 285.019 359.87C285.219 359.77 285.379 359.62 285.499 359.42C285.619 359.22 285.679 358.975 285.679 358.685C285.679 358.365 285.614 358.085 285.484 357.845C285.364 357.605 285.184 357.42 284.944 357.29C284.714 357.15 284.439 357.08 284.119 357.08C283.809 357.08 283.514 357.125 283.234 357.215C282.954 357.295 282.624 357.435 282.244 357.635H282.229V352.055H287.194V354.155H284.104V355.76L283.849 355.31C283.989 355.29 284.124 355.275 284.254 355.265C284.384 355.255 284.514 355.25 284.644 355.25C285.344 355.25 285.934 355.405 286.414 355.715C286.904 356.025 287.279 356.435 287.539 356.945C287.799 357.455 287.929 358.01 287.929 358.61C287.929 359.27 287.779 359.865 287.479 360.395C287.179 360.925 286.769 361.345 286.249 361.655C285.739 361.965 285.169 362.12 284.539 362.12Z" fill="black"/>
<path d="M175.81 362C176.43 361.37 177.025 360.765 177.595 360.185C178.165 359.595 178.675 359.03 179.125 358.49C179.585 357.94 179.945 357.41 180.205 356.9C180.475 356.39 180.61 355.895 180.61 355.415C180.61 355.205 180.57 355.015 180.49 354.845C180.42 354.675 180.315 354.53 180.175 354.41C180.045 354.29 179.885 354.2 179.695 354.14C179.515 354.07 179.31 354.035 179.08 354.035C178.85 354.035 178.645 354.07 178.465 354.14C178.285 354.2 178.135 354.285 178.015 354.395C177.895 354.505 177.8 354.625 177.73 354.755C177.67 354.885 177.64 355.02 177.64 355.16C177.64 355.48 177.69 355.765 177.79 356.015C177.9 356.255 178.045 356.47 178.225 356.66L176.89 357.875C176.6 357.735 176.35 357.5 176.14 357.17C175.94 356.84 175.785 356.495 175.675 356.135C175.575 355.765 175.525 355.46 175.525 355.22C175.525 354.67 175.675 354.145 175.975 353.645C176.285 353.145 176.73 352.735 177.31 352.415C177.9 352.095 178.615 351.935 179.455 351.935C180.145 351.935 180.745 352.09 181.255 352.4C181.765 352.71 182.16 353.12 182.44 353.63C182.73 354.13 182.875 354.665 182.875 355.235C182.875 355.685 182.805 356.12 182.665 356.54C182.525 356.96 182.33 357.375 182.08 357.785C181.84 358.185 181.565 358.585 181.255 358.985C180.945 359.375 180.625 359.775 180.295 360.185L179.305 359.9H182.995V362H175.81ZM188.455 362.015C187.885 362.015 187.345 361.915 186.835 361.715C186.335 361.515 185.89 361.21 185.5 360.8C185.12 360.38 184.82 359.855 184.6 359.225C184.38 358.585 184.27 357.835 184.27 356.975C184.27 356.015 184.375 355.215 184.585 354.575C184.795 353.925 185.085 353.405 185.455 353.015C185.835 352.625 186.28 352.35 186.79 352.19C187.3 352.02 187.855 351.935 188.455 351.935C189.025 351.935 189.56 352.035 190.06 352.235C190.57 352.435 191.015 352.745 191.395 353.165C191.785 353.575 192.09 354.1 192.31 354.74C192.53 355.37 192.64 356.115 192.64 356.975C192.64 357.865 192.53 358.63 192.31 359.27C192.09 359.91 191.785 360.435 191.395 360.845C191.005 361.245 190.56 361.54 190.06 361.73C189.56 361.92 189.025 362.015 188.455 362.015ZM188.44 359.93C188.94 359.93 189.33 359.8 189.61 359.54C189.89 359.27 190.085 358.905 190.195 358.445C190.315 357.985 190.375 357.475 190.375 356.915C190.375 356.365 190.315 355.875 190.195 355.445C190.085 355.015 189.89 354.675 189.61 354.425C189.33 354.165 188.94 354.035 188.44 354.035C187.95 354.035 187.565 354.165 187.285 354.425C187.005 354.685 186.81 355.035 186.7 355.475C186.59 355.915 186.535 356.41 186.535 356.96C186.535 357.51 186.59 358.01 186.7 358.46C186.81 358.91 187.005 359.27 187.285 359.54C187.565 359.8 187.95 359.93 188.44 359.93ZM193.974 362C194.594 361.37 195.189 360.765 195.759 360.185C196.329 359.595 196.839 359.03 197.289 358.49C197.749 357.94 198.109 357.41 198.369 356.9C198.639 356.39 198.774 355.895 198.774 355.415C198.774 355.205 198.734 355.015 198.654 354.845C198.584 354.675 198.479 354.53 198.339 354.41C198.209 354.29 198.049 354.2 197.859 354.14C197.679 354.07 197.474 354.035 197.244 354.035C197.014 354.035 196.809 354.07 196.629 354.14C196.449 354.2 196.299 354.285 196.179 354.395C196.059 354.505 195.964 354.625 195.894 354.755C195.834 354.885 195.804 355.02 195.804 355.16C195.804 355.48 195.854 355.765 195.954 356.015C196.064 356.255 196.209 356.47 196.389 356.66L195.054 357.875C194.764 357.735 194.514 357.5 194.304 357.17C194.104 356.84 193.949 356.495 193.839 356.135C193.739 355.765 193.689 355.46 193.689 355.22C193.689 354.67 193.839 354.145 194.139 353.645C194.449 353.145 194.894 352.735 195.474 352.415C196.064 352.095 196.779 351.935 197.619 351.935C198.309 351.935 198.909 352.09 199.419 352.4C199.929 352.71 200.324 353.12 200.604 353.63C200.894 354.13 201.039 354.665 201.039 355.235C201.039 355.685 200.969 356.12 200.829 356.54C200.689 356.96 200.494 357.375 200.244 357.785C200.004 358.185 199.729 358.585 199.419 358.985C199.109 359.375 198.789 359.775 198.459 360.185L197.469 359.9H201.159V362H193.974ZM202.059 359.825V359.81L208.404 351.935H208.419V358.175H209.604V359.825H208.419V362H206.229V359.825H202.059ZM206.334 356.72L205.179 358.265L204.969 358.175H206.229V356.615L206.334 356.72Z" fill="black"/>
<rect x="413" y="122" width="33" height="214" fill="#58BC81"/>
<rect x="333" y="168" width="34" height="168" fill="#58BC81"/>
<rect x="255" y="196" width="33" height="140" fill="#58BC81"/>
<rect x="97" y="252" width="34" height="84" fill="#58BC81"/>
<rect x="35" y="284" width="5" height="1" fill="black"/>
<rect x="35" y="234" width="5" height="1" fill="black"/>
<rect x="35" y="130" width="5" height="2" fill="black"/>
<rect x="35" y="78" width="5" height="1" fill="black"/>
<rect x="35" y="181" width="5" height="2" fill="black"/>
<path d="M22.81 289C23.43 288.37 24.025 287.765 24.595 287.185C25.165 286.595 25.675 286.03 26.125 285.49C26.585 284.94 26.945 284.41 27.205 283.9C27.475 283.39 27.61 282.895 27.61 282.415C27.61 282.205 27.57 282.015 27.49 281.845C27.42 281.675 27.315 281.53 27.175 281.41C27.045 281.29 26.885 281.2 26.695 281.14C26.515 281.07 26.31 281.035 26.08 281.035C25.85 281.035 25.645 281.07 25.465 281.14C25.285 281.2 25.135 281.285 25.015 281.395C24.895 281.505 24.8 281.625 24.73 281.755C24.67 281.885 24.64 282.02 24.64 282.16C24.64 282.48 24.69 282.765 24.79 283.015C24.9 283.255 25.045 283.47 25.225 283.66L23.89 284.875C23.6 284.735 23.35 284.5 23.14 284.17C22.94 283.84 22.785 283.495 22.675 283.135C22.575 282.765 22.525 282.46 22.525 282.22C22.525 281.67 22.675 281.145 22.975 280.645C23.285 280.145 23.73 279.735 24.31 279.415C24.9 279.095 25.615 278.935 26.455 278.935C27.145 278.935 27.745 279.09 28.255 279.4C28.765 279.71 29.16 280.12 29.44 280.63C29.73 281.13 29.875 281.665 29.875 282.235C29.875 282.685 29.805 283.12 29.665 283.54C29.525 283.96 29.33 284.375 29.08 284.785C28.84 285.185 28.565 285.585 28.255 285.985C27.945 286.375 27.625 286.775 27.295 287.185L26.305 286.9H29.995V289H22.81Z" fill="black"/>
<path d="M22.15 234.825V234.81L28.495 226.935H28.51V233.175H29.695V234.825H28.51V237H26.32V234.825H22.15ZM26.425 231.72L25.27 233.265L25.06 233.175H26.32V231.615L26.425 231.72Z" fill="black"/>
<path d="M26.29 184.12C25.57 184.12 24.92 183.95 24.34 183.61C23.76 183.27 23.3 182.77 22.96 182.11C22.62 181.45 22.45 180.645 22.45 179.695C22.45 179.105 22.56 178.535 22.78 177.985C23.01 177.425 23.32 176.895 23.71 176.395C24.11 175.885 24.57 175.41 25.09 174.97C25.61 174.53 26.165 174.135 26.755 173.785L28.21 175.36C27.41 175.67 26.755 176.07 26.245 176.56C25.735 177.04 25.36 177.54 25.12 178.06C24.88 178.58 24.76 179.06 24.76 179.5L24.22 179.44C24.49 178.81 24.835 178.32 25.255 177.97C25.685 177.62 26.28 177.445 27.04 177.445C27.52 177.445 27.985 177.58 28.435 177.85C28.885 178.12 29.25 178.495 29.53 178.975C29.82 179.455 29.965 180.015 29.965 180.655C29.965 181.395 29.785 182.025 29.425 182.545C29.075 183.055 28.62 183.445 28.06 183.715C27.5 183.985 26.91 184.12 26.29 184.12ZM26.2 182.17C26.49 182.17 26.745 182.115 26.965 182.005C27.195 181.885 27.375 181.715 27.505 181.495C27.635 181.265 27.7 180.99 27.7 180.67C27.7 180.36 27.63 180.105 27.49 179.905C27.36 179.695 27.18 179.54 26.95 179.44C26.73 179.33 26.48 179.275 26.2 179.275C25.92 179.275 25.665 179.33 25.435 179.44C25.215 179.54 25.035 179.68 24.895 179.86C24.765 180.03 24.7 180.215 24.7 180.415V180.775C24.7 181.015 24.765 181.24 24.895 181.45C25.025 181.66 25.205 181.835 25.435 181.975C25.665 182.105 25.92 182.17 26.2 182.17Z" fill="black"/>
<path d="M22.225 129.775C22.225 129.255 22.32 128.815 22.51 128.455C22.7 128.095 22.93 127.8 23.2 127.57C23.48 127.33 23.735 127.14 23.965 127C23.745 126.77 23.555 126.535 23.395 126.295C23.245 126.045 23.17 125.695 23.17 125.245C23.17 124.795 23.295 124.395 23.545 124.045C23.805 123.695 24.15 123.425 24.58 123.235C25.01 123.035 25.485 122.935 26.005 122.935C26.525 122.935 27 123.035 27.43 123.235C27.87 123.425 28.22 123.685 28.48 124.015C28.75 124.345 28.885 124.72 28.885 125.14C28.885 125.64 28.8 126.015 28.63 126.265C28.47 126.515 28.27 126.76 28.03 127C28.27 127.15 28.52 127.345 28.78 127.585C29.05 127.825 29.28 128.125 29.47 128.485C29.66 128.835 29.755 129.265 29.755 129.775C29.755 130.355 29.59 130.9 29.26 131.41C28.93 131.92 28.48 132.335 27.91 132.655C27.35 132.965 26.705 133.12 25.975 133.12C25.245 133.12 24.595 132.965 24.025 132.655C23.465 132.335 23.025 131.92 22.705 131.41C22.385 130.9 22.225 130.355 22.225 129.775ZM24.46 129.685C24.46 129.975 24.53 130.245 24.67 130.495C24.81 130.735 24.995 130.93 25.225 131.08C25.455 131.22 25.71 131.29 25.99 131.29C26.28 131.29 26.545 131.22 26.785 131.08C27.025 130.93 27.215 130.735 27.355 130.495C27.505 130.245 27.58 129.975 27.58 129.685C27.58 129.395 27.51 129.135 27.37 128.905C27.24 128.665 27.06 128.47 26.83 128.32C26.61 128.17 26.36 128.09 26.08 128.08C25.8 128.07 25.535 128.135 25.285 128.275C25.045 128.415 24.845 128.61 24.685 128.86C24.535 129.1 24.46 129.375 24.46 129.685ZM25.285 125.515C25.285 125.715 25.365 125.89 25.525 126.04C25.695 126.19 25.87 126.265 26.05 126.265C26.23 126.265 26.4 126.19 26.56 126.04C26.72 125.89 26.8 125.715 26.8 125.515C26.8 125.315 26.72 125.14 26.56 124.99C26.41 124.83 26.24 124.75 26.05 124.75C25.86 124.75 25.685 124.83 25.525 124.99C25.365 125.14 25.285 125.315 25.285 125.515Z" fill="black"/>
<path d="M18.75 71.055H21.735V81H19.545V73.155H18.75V71.055ZM27.8663 81.015C27.2963 81.015 26.7563 80.915 26.2463 80.715C25.7463 80.515 25.3013 80.21 24.9113 79.8C24.5313 79.38 24.2313 78.855 24.0113 78.225C23.7913 77.585 23.6813 76.835 23.6813 75.975C23.6813 75.015 23.7863 74.215 23.9963 73.575C24.2063 72.925 24.4963 72.405 24.8663 72.015C25.2463 71.625 25.6913 71.35 26.2013 71.19C26.7113 71.02 27.2663 70.935 27.8663 70.935C28.4363 70.935 28.9713 71.035 29.4713 71.235C29.9813 71.435 30.4263 71.745 30.8063 72.165C31.1963 72.575 31.5013 73.1 31.7213 73.74C31.9413 74.37 32.0513 75.115 32.0513 75.975C32.0513 76.865 31.9413 77.63 31.7213 78.27C31.5013 78.91 31.1963 79.435 30.8063 79.845C30.4163 80.245 29.9713 80.54 29.4713 80.73C28.9713 80.92 28.4363 81.015 27.8663 81.015ZM27.8513 78.93C28.3513 78.93 28.7413 78.8 29.0213 78.54C29.3013 78.27 29.4963 77.905 29.6063 77.445C29.7263 76.985 29.7863 76.475 29.7863 75.915C29.7863 75.365 29.7263 74.875 29.6063 74.445C29.4963 74.015 29.3013 73.675 29.0213 73.425C28.7413 73.165 28.3513 73.035 27.8513 73.035C27.3613 73.035 26.9763 73.165 26.6963 73.425C26.4163 73.685 26.2213 74.035 26.1113 74.475C26.0013 74.915 25.9463 75.41 25.9463 75.96C25.9463 76.51 26.0013 77.01 26.1113 77.46C26.2213 77.91 26.4163 78.27 26.6963 78.54C26.9763 78.8 27.3613 78.93 27.8513 78.93Z" fill="black"/>
<path d="M3.48 14.02V7.51L4.08 6.805V0.94H5.34V7.225L4.74 8.14V14.02H3.48ZM7.32 4.63C6.9 4.4 6.47 4.21 6.03 4.06C5.6 3.91 5.195 3.835 4.815 3.835C4.345 3.835 3.975 3.93 3.705 4.12C3.435 4.31 3.3 4.595 3.3 4.975C3.3 5.235 3.4 5.47 3.6 5.68C3.81 5.88 4.075 6.06 4.395 6.22C4.725 6.38 5.065 6.525 5.415 6.655C5.735 6.775 6.05 6.92 6.36 7.09C6.68 7.25 6.965 7.455 7.215 7.705C7.465 7.945 7.665 8.25 7.815 8.62C7.965 8.98 8.04 9.425 8.04 9.955C8.04 10.515 7.895 11.035 7.605 11.515C7.315 11.995 6.89 12.385 6.33 12.685C5.77 12.975 5.08 13.12 4.26 13.12C3.84 13.12 3.41 13.08 2.97 13C2.54 12.91 2.115 12.78 1.695 12.61C1.275 12.43 0.87 12.205 0.48 11.935L1.44 10.24C1.7 10.43 1.98 10.6 2.28 10.75C2.59 10.89 2.9 11 3.21 11.08C3.52 11.16 3.805 11.2 4.065 11.2C4.325 11.2 4.585 11.165 4.845 11.095C5.115 11.015 5.335 10.885 5.505 10.705C5.685 10.525 5.775 10.275 5.775 9.955C5.775 9.735 5.7 9.535 5.55 9.355C5.41 9.175 5.215 9.01 4.965 8.86C4.725 8.71 4.46 8.58 4.17 8.47C3.83 8.34 3.48 8.19 3.12 8.02C2.76 7.85 2.42 7.645 2.1 7.405C1.79 7.155 1.535 6.85 1.335 6.49C1.145 6.12 1.05 5.67 1.05 5.14C1.05 4.5 1.19 3.945 1.47 3.475C1.76 3.005 2.165 2.635 2.685 2.365C3.205 2.085 3.805 1.93 4.485 1.9C5.375 1.9 6.095 2.005 6.645 2.215C7.205 2.425 7.705 2.675 8.145 2.965L7.32 4.63ZM18.0537 1.96C19.2037 1.96 20.1187 2.195 20.7987 2.665C21.4787 3.125 21.8187 3.815 21.8187 4.735C21.8187 5.415 21.6487 5.985 21.3087 6.445C20.9787 6.895 20.5237 7.235 19.9437 7.465C19.3737 7.685 18.7187 7.795 17.9787 7.795L17.6337 6.625C18.5437 6.625 19.3487 6.75 20.0487 7C20.7587 7.25 21.3187 7.61 21.7287 8.08C22.1387 8.54 22.3437 9.095 22.3437 9.745C22.3437 10.345 22.2337 10.855 22.0137 11.275C21.8037 11.685 21.5137 12.02 21.1437 12.28C20.7837 12.53 20.3737 12.715 19.9137 12.835C19.4537 12.945 18.9787 13 18.4887 13H14.8137V1.96H18.0537ZM18.3087 6.475C18.7387 6.475 19.0537 6.345 19.2537 6.085C19.4637 5.825 19.5687 5.53 19.5687 5.2C19.5687 4.82 19.4387 4.535 19.1787 4.345C18.9287 4.155 18.5887 4.06 18.1587 4.06H16.9887V6.475H18.3087ZM18.3837 10.975C18.7037 10.975 18.9937 10.935 19.2537 10.855C19.5137 10.765 19.7187 10.63 19.8687 10.45C20.0187 10.26 20.0937 10.025 20.0937 9.745C20.0937 9.425 20.0037 9.185 19.8237 9.025C19.6437 8.855 19.4087 8.74 19.1187 8.68C18.8387 8.61 18.5437 8.575 18.2337 8.575H16.9887V10.975H18.3837ZM24.1806 6.445H26.2806V13H24.1806V6.445ZM24.1356 4.12C24.1356 3.81 24.2556 3.555 24.4956 3.355C24.7456 3.155 25.0106 3.055 25.2906 3.055C25.5706 3.055 25.8256 3.155 26.0556 3.355C26.2956 3.555 26.4156 3.81 26.4156 4.12C26.4156 4.43 26.2956 4.685 26.0556 4.885C25.8256 5.075 25.5706 5.17 25.2906 5.17C25.0106 5.17 24.7456 5.075 24.4956 4.885C24.2556 4.685 24.1356 4.43 24.1356 4.12ZM28.4433 1.165H30.5433V13H28.4433V1.165ZM32.706 1.165H34.806V13H32.706V1.165ZM36.9687 6.445H39.0687V13H36.9687V6.445ZM36.9237 4.12C36.9237 3.81 37.0437 3.555 37.2837 3.355C37.5337 3.155 37.7987 3.055 38.0787 3.055C38.3587 3.055 38.6137 3.155 38.8437 3.355C39.0837 3.555 39.2037 3.81 39.2037 4.12C39.2037 4.43 39.0837 4.685 38.8437 4.885C38.6137 5.075 38.3587 5.17 38.0787 5.17C37.7987 5.17 37.5337 5.075 37.2837 4.885C37.0437 4.685 36.9237 4.43 36.9237 4.12ZM40.7214 9.64C40.7214 8.97 40.8764 8.37 41.1864 7.84C41.5064 7.31 41.9514 6.895 42.5214 6.595C43.0914 6.285 43.7464 6.13 44.4864 6.13C45.2364 6.13 45.8864 6.285 46.4364 6.595C46.9864 6.895 47.4064 7.31 47.6964 7.84C47.9964 8.37 48.1464 8.97 48.1464 9.64C48.1464 10.31 47.9964 10.915 47.6964 11.455C47.4064 11.985 46.9864 12.405 46.4364 12.715C45.8864 13.025 45.2264 13.18 44.4564 13.18C43.7364 13.18 43.0914 13.04 42.5214 12.76C41.9614 12.48 41.5214 12.075 41.2014 11.545C40.8814 11.015 40.7214 10.38 40.7214 9.64ZM42.8364 9.655C42.8364 9.995 42.9064 10.305 43.0464 10.585C43.1864 10.855 43.3764 11.07 43.6164 11.23C43.8564 11.39 44.1264 11.47 44.4264 11.47C44.7564 11.47 45.0414 11.39 45.2814 11.23C45.5214 11.07 45.7064 10.855 45.8364 10.585C45.9664 10.305 46.0314 9.995 46.0314 9.655C46.0314 9.305 45.9664 8.995 45.8364 8.725C45.7064 8.455 45.5214 8.24 45.2814 8.08C45.0414 7.92 44.7564 7.84 44.4264 7.84C44.1264 7.84 43.8564 7.92 43.6164 8.08C43.3764 8.24 43.1864 8.455 43.0464 8.725C42.9064 8.995 42.8364 9.305 42.8364 9.655ZM51.7057 6.445L51.8707 7.615L51.8407 7.51C52.0707 7.1 52.3957 6.77 52.8157 6.52C53.2357 6.26 53.7507 6.13 54.3607 6.13C54.9807 6.13 55.4957 6.315 55.9057 6.685C56.3257 7.045 56.5407 7.515 56.5507 8.095V13H54.4507V8.875C54.4407 8.585 54.3607 8.355 54.2107 8.185C54.0707 8.005 53.8307 7.915 53.4907 7.915C53.1707 7.915 52.8907 8.02 52.6507 8.23C52.4107 8.44 52.2257 8.725 52.0957 9.085C51.9657 9.445 51.9007 9.86 51.9007 10.33V13H49.8007V6.445H51.7057ZM60.837 13.135C60.297 13.135 59.792 13.04 59.322 12.85C58.862 12.66 58.472 12.395 58.152 12.055L59.022 10.9C59.342 11.19 59.637 11.4 59.907 11.53C60.187 11.65 60.437 11.71 60.657 11.71C60.827 11.71 60.977 11.695 61.107 11.665C61.247 11.625 61.357 11.57 61.437 11.5C61.517 11.42 61.557 11.32 61.557 11.2C61.557 11.03 61.487 10.895 61.347 10.795C61.217 10.695 61.047 10.615 60.837 10.555C60.627 10.485 60.402 10.415 60.162 10.345C59.562 10.155 59.127 9.88 58.857 9.52C58.597 9.15 58.467 8.75 58.467 8.32C58.467 7.99 58.552 7.66 58.722 7.33C58.902 6.99 59.182 6.71 59.562 6.49C59.952 6.26 60.452 6.145 61.062 6.145C61.612 6.145 62.077 6.2 62.457 6.31C62.837 6.42 63.197 6.6 63.537 6.85L62.742 8.08C62.552 7.93 62.337 7.805 62.097 7.705C61.867 7.595 61.652 7.535 61.452 7.525C61.272 7.515 61.117 7.535 60.987 7.585C60.867 7.635 60.772 7.7 60.702 7.78C60.632 7.86 60.597 7.945 60.597 8.035C60.587 8.225 60.657 8.375 60.807 8.485C60.967 8.595 61.167 8.68 61.407 8.74C61.647 8.8 61.882 8.87 62.112 8.95C62.432 9.05 62.707 9.185 62.937 9.355C63.167 9.525 63.342 9.73 63.462 9.97C63.592 10.2 63.657 10.48 63.657 10.81C63.657 11.21 63.552 11.59 63.342 11.95C63.142 12.3 62.832 12.585 62.412 12.805C62.002 13.025 61.477 13.135 60.837 13.135Z" fill="black"/>
<path d="M575.29 335.565L571.225 327.96H573.91L576.76 333.69L576.115 333.735L578.92 327.96H581.605L577.465 335.565V339H575.29V335.565ZM584.49 339.18C583.69 339.18 583.01 339.03 582.45 338.73C581.9 338.43 581.48 338.015 581.19 337.485C580.9 336.955 580.755 336.345 580.755 335.655C580.755 334.995 580.925 334.4 581.265 333.87C581.605 333.34 582.06 332.92 582.63 332.61C583.2 332.29 583.835 332.13 584.535 332.13C585.475 332.13 586.245 332.405 586.845 332.955C587.455 333.495 587.85 334.28 588.03 335.31L582.93 336.93L582.465 335.79L586.155 334.545L585.72 334.74C585.64 334.48 585.495 334.255 585.285 334.065C585.085 333.865 584.78 333.765 584.37 333.765C584.06 333.765 583.785 333.84 583.545 333.99C583.315 334.13 583.135 334.335 583.005 334.605C582.885 334.865 582.825 335.175 582.825 335.535C582.825 335.945 582.9 336.29 583.05 336.57C583.2 336.84 583.405 337.045 583.665 337.185C583.925 337.325 584.215 337.395 584.535 337.395C584.765 337.395 584.985 337.355 585.195 337.275C585.415 337.195 585.63 337.09 585.84 336.96L586.77 338.52C586.42 338.72 586.04 338.88 585.63 339C585.23 339.12 584.85 339.18 584.49 339.18ZM592.316 339.18C591.706 339.18 591.151 339.06 590.651 338.82C590.161 338.57 589.771 338.19 589.481 337.68C589.191 337.17 589.046 336.52 589.046 335.73C589.046 334.99 589.196 334.35 589.496 333.81C589.796 333.27 590.191 332.855 590.681 332.565C591.171 332.265 591.691 332.115 592.241 332.115C592.891 332.115 593.381 332.225 593.711 332.445C594.051 332.655 594.331 332.89 594.551 333.15L594.461 333.405L594.656 332.445H596.606V339H594.506V337.575L594.671 338.025C594.651 338.025 594.591 338.085 594.491 338.205C594.391 338.315 594.241 338.45 594.041 338.61C593.851 338.76 593.611 338.89 593.321 339C593.041 339.12 592.706 339.18 592.316 339.18ZM592.916 337.47C593.166 337.47 593.391 337.435 593.591 337.365C593.791 337.285 593.966 337.175 594.116 337.035C594.266 336.885 594.396 336.7 594.506 336.48V334.875C594.426 334.655 594.306 334.47 594.146 334.32C593.986 334.16 593.796 334.04 593.576 333.96C593.356 333.87 593.111 333.825 592.841 333.825C592.541 333.825 592.261 333.905 592.001 334.065C591.751 334.215 591.551 334.425 591.401 334.695C591.251 334.965 591.176 335.275 591.176 335.625C591.176 335.975 591.256 336.29 591.416 336.57C591.576 336.85 591.786 337.07 592.046 337.23C592.316 337.39 592.606 337.47 592.916 337.47ZM600.659 332.445L600.854 334.245L600.809 333.975C600.999 333.585 601.259 333.255 601.589 332.985C601.919 332.705 602.244 332.49 602.564 332.34C602.894 332.19 603.144 332.115 603.314 332.115L603.209 334.215C602.719 334.155 602.299 334.235 601.949 334.455C601.599 334.675 601.329 334.965 601.139 335.325C600.949 335.685 600.854 336.055 600.854 336.435V339H598.769V332.445H600.659ZM607.052 339.135C606.512 339.135 606.007 339.04 605.537 338.85C605.077 338.66 604.687 338.395 604.367 338.055L605.237 336.9C605.557 337.19 605.852 337.4 606.122 337.53C606.402 337.65 606.652 337.71 606.872 337.71C607.042 337.71 607.192 337.695 607.322 337.665C607.462 337.625 607.572 337.57 607.652 337.5C607.732 337.42 607.772 337.32 607.772 337.2C607.772 337.03 607.702 336.895 607.562 336.795C607.432 336.695 607.262 336.615 607.052 336.555C606.842 336.485 606.617 336.415 606.377 336.345C605.777 336.155 605.342 335.88 605.072 335.52C604.812 335.15 604.682 334.75 604.682 334.32C604.682 333.99 604.767 333.66 604.937 333.33C605.117 332.99 605.397 332.71 605.777 332.49C606.167 332.26 606.667 332.145 607.277 332.145C607.827 332.145 608.292 332.2 608.672 332.31C609.052 332.42 609.412 332.6 609.752 332.85L608.957 334.08C608.767 333.93 608.552 333.805 608.312 333.705C608.082 333.595 607.867 333.535 607.667 333.525C607.487 333.515 607.332 333.535 607.202 333.585C607.082 333.635 606.987 333.7 606.917 333.78C606.847 333.86 606.812 333.945 606.812 334.035C606.802 334.225 606.872 334.375 607.022 334.485C607.182 334.595 607.382 334.68 607.622 334.74C607.862 334.8 608.097 334.87 608.327 334.95C608.647 335.05 608.922 335.185 609.152 335.355C609.382 335.525 609.557 335.73 609.677 335.97C609.807 336.2 609.872 336.48 609.872 336.81C609.872 337.21 609.767 337.59 609.557 337.95C609.357 338.3 609.047 338.585 608.627 338.805C608.217 339.025 607.692 339.135 607.052 339.135Z" fill="black"/>
</svg>
