<?xml version="1.0" encoding="UTF-8"?>
<!DOCTYPE svg PUBLIC "-//W3C//DTD SVG 1.1//EN" "http://www.w3.org/Graphics/SVG/1.1/DTD/svg11.dtd">
<svg xmlns="http://www.w3.org/2000/svg" version="1.1" width="612px" height="612px" style="shape-rendering:geometricPrecision; text-rendering:geometricPrecision; image-rendering:optimizeQuality; fill-rule:evenodd; clip-rule:evenodd" xmlns:xlink="http://www.w3.org/1999/xlink">
<g><path style="opacity:1" fill="#fefefe" d="M -0.5,-0.5 C 203.5,-0.5 407.5,-0.5 611.5,-0.5C 611.5,203.5 611.5,407.5 611.5,611.5C 407.5,611.5 203.5,611.5 -0.5,611.5C -0.5,407.5 -0.5,203.5 -0.5,-0.5 Z"/></g>
<g><path style="opacity:1" fill="#f72683" d="M 447.5,83.5 C 442.324,85.1836 436.991,85.8503 431.5,85.5C 418.11,79.7079 413.61,69.7079 418,55.5C 425.444,44.5759 435.278,41.7425 447.5,47C 456.535,52.7572 459.702,60.9239 457,71.5C 455.08,76.5758 451.914,80.5758 447.5,83.5 Z"/></g>
<g><path style="opacity:1" fill="#f72883" d="M 196.5,60.5 C 214.618,60.0949 221.118,68.4283 216,85.5C 207.455,94.4394 198.621,94.7728 189.5,86.5C 183.781,75.4916 186.115,66.8249 196.5,60.5 Z"/></g>
<g><path style="opacity:1" fill="#3a363c" d="M 398.5,101.5 C 398.5,102.167 398.5,102.833 398.5,103.5C 398.5,121.167 398.5,138.833 398.5,156.5C 398.5,157.5 398.5,158.5 398.5,159.5C 395.995,160.417 393.662,160.417 391.5,159.5C 391.5,145.5 391.5,131.5 391.5,117.5C 391.5,116.167 391.5,114.833 391.5,113.5C 393.664,104.107 390.997,96.6072 383.5,91C 370.561,89.5777 357.561,89.0777 344.5,89.5C 345.124,93.0134 344.124,95.8467 341.5,98C 333.173,98.4997 324.84,98.6664 316.5,98.5C 315.167,98.5 313.833,98.5 312.5,98.5C 305.8,98.83 299.134,98.4967 292.5,97.5C 290.829,95.4902 290.162,93.1569 290.5,90.5C 282.5,90.5 274.5,90.5 266.5,90.5C 262.154,90.3343 257.821,90.501 253.5,91C 250.894,91.7918 248.894,93.2918 247.5,95.5C 245.827,96.343 244.66,97.6763 244,99.5C 243.5,119.164 243.333,138.831 243.5,158.5C 243.232,160.099 243.566,161.432 244.5,162.5C 244.5,172.167 244.5,181.833 244.5,191.5C 244.5,197.167 244.5,202.833 244.5,208.5C 244.5,217.833 244.5,227.167 244.5,236.5C 244.5,237.833 244.5,239.167 244.5,240.5C 244.5,246.167 244.5,251.833 244.5,257.5C 244.5,258.5 244.5,259.5 244.5,260.5C 244.5,274.167 244.5,287.833 244.5,301.5C 244.17,320.341 244.503,339.007 245.5,357.5C 246.454,362.289 249.121,365.789 253.5,368C 266.496,368.5 279.496,368.667 292.5,368.5C 293.833,368.5 295.167,368.5 296.5,368.5C 320.167,368.5 343.833,368.5 367.5,368.5C 368.833,368.5 370.167,368.5 371.5,368.5C 379.218,369.663 385.551,367.329 390.5,361.5C 391.246,360.264 391.579,358.93 391.5,357.5C 392.461,355.735 392.795,353.735 392.5,351.5C 392.5,338.167 392.5,324.833 392.5,311.5C 392.5,305.167 392.5,298.833 392.5,292.5C 392.567,291.041 392.234,289.708 391.5,288.5C 393.565,288.483 395.565,288.15 397.5,287.5C 399.446,292.396 400.113,297.729 399.5,303.5C 399.667,324.169 399.5,344.836 399,365.5C 396.414,371.088 392.247,374.921 386.5,377C 368.836,377.5 351.17,377.667 333.5,377.5C 305.5,377.5 277.5,377.5 249.5,377.5C 244.118,374.613 240.284,370.28 238,364.5C 237.5,337.502 237.333,310.502 237.5,283.5C 237.5,271.5 237.5,259.5 237.5,247.5C 237.5,239.5 237.5,231.5 237.5,223.5C 237.831,192.995 237.498,162.662 236.5,132.5C 236.333,119.496 236.5,106.496 237,93.5C 239.167,87.3333 243.333,83.1667 249.5,81C 294.833,80.3333 340.167,80.3333 385.5,81C 395.274,84.3809 399.607,91.2143 398.5,101.5 Z"/></g>
<g><path style="opacity:1" fill="#ffcbe8" d="M 447.5,83.5 C 446.942,84.7899 445.942,85.6232 444.5,86C 439.98,86.8136 435.646,86.647 431.5,85.5C 436.991,85.8503 442.324,85.1836 447.5,83.5 Z"/></g>
<g><path style="opacity:1" fill="#f8f0d9" d="M 266.5,90.5 C 274.138,99.2101 281.138,108.543 287.5,118.5C 291.081,126.823 293.414,135.49 294.5,144.5C 303.307,137.194 311.64,129.36 319.5,121C 316.726,113.623 314.393,106.123 312.5,98.5C 313.833,98.5 315.167,98.5 316.5,98.5C 317.32,100.14 318.153,101.807 319,103.5C 318.836,109.128 320.336,114.128 323.5,118.5C 327.131,114.533 330.798,110.533 334.5,106.5C 341.293,101.871 347.627,96.7042 353.5,91C 356.429,90.2228 359.263,90.3895 362,91.5C 363.176,99.5886 364.676,107.589 366.5,115.5C 373.183,108.983 380.016,102.65 387,96.5C 387.49,97.7932 387.657,99.1266 387.5,100.5C 388.5,100.5 389.5,100.5 390.5,100.5C 390.182,105.032 390.515,109.366 391.5,113.5C 391.5,114.833 391.5,116.167 391.5,117.5C 380.678,126.156 370.678,135.656 361.5,146C 356.855,148.142 353.189,151.309 350.5,155.5C 341.391,162.44 333.058,170.273 325.5,179C 326.682,180.735 328.349,181.735 330.5,182C 335.11,183.29 339.777,183.624 344.5,183C 352.221,178.809 359.887,174.642 367.5,170.5C 366.161,172.873 364.828,175.207 363.5,177.5C 356.864,180.483 350.197,183.483 343.5,186.5C 335.385,186.199 327.385,185.366 319.5,184C 312.666,190.503 304.666,194.837 295.5,197C 294.833,197.667 294.167,198.333 293.5,199C 296.842,203.517 299.675,208.35 302,213.5C 302.49,214.793 302.657,216.127 302.5,217.5C 305.479,216.683 308.479,215.849 311.5,215C 315.602,211.954 319.935,209.454 324.5,207.5C 337.337,201.165 350.337,195.165 363.5,189.5C 364.404,190.209 364.737,191.209 364.5,192.5C 352.941,197.613 341.608,203.28 330.5,209.5C 329.438,210.425 329.438,211.425 330.5,212.5C 329.07,212.579 327.736,212.246 326.5,211.5C 319.852,214.496 313.186,217.496 306.5,220.5C 305.943,222.332 304.943,223.665 303.5,224.5C 298.848,223.238 294.181,223.238 289.5,224.5C 285.065,218.362 281.398,211.695 278.5,204.5C 279.781,201.717 281.281,199.05 283,196.5C 283.601,188.192 279.767,185.192 271.5,187.5C 270.876,187.083 270.543,186.416 270.5,185.5C 271.499,180.845 271.999,176.178 272,171.5C 268.353,174.313 264.853,177.313 261.5,180.5C 257.16,189.224 259.326,191.891 268,188.5C 268.483,189.448 268.649,190.448 268.5,191.5C 268.703,195.9 270.037,199.9 272.5,203.5C 272.559,205.765 271.726,206.098 270,204.5C 266.944,205.077 263.944,205.743 261,206.5C 260.815,215.188 261.315,223.854 262.5,232.5C 269.695,230.201 277.028,228.535 284.5,227.5C 282.138,230.192 279.804,232.859 277.5,235.5C 277.646,233.058 276.813,232.391 275,233.5C 273.751,231.008 272.584,231.175 271.5,234C 268.424,234.346 265.424,235.012 262.5,236C 261.169,241.876 261.502,247.709 263.5,253.5C 266.366,254.208 269.2,254.875 272,255.5C 273.401,253.808 275.234,253.141 277.5,253.5C 278.674,254.514 279.34,255.847 279.5,257.5C 274.797,257.437 270.13,257.771 265.5,258.5C 266.572,267.122 268.739,275.456 272,283.5C 276.258,280.287 280.425,276.953 284.5,273.5C 286.071,272.691 287.738,272.357 289.5,272.5C 290.5,272.833 291.167,273.5 291.5,274.5C 289.407,275.045 287.407,275.878 285.5,277C 282.113,280.053 278.447,282.72 274.5,285C 273.919,285.893 273.585,286.893 273.5,288C 279.123,306.374 284.456,324.874 289.5,343.5C 309.656,345.187 329.822,346.854 350,348.5C 352.61,348.467 354.777,347.8 356.5,346.5C 356.821,344.952 357.821,344.285 359.5,344.5C 359.833,346.5 360.167,348.5 360.5,350.5C 366.859,350.346 373.192,350.679 379.5,351.5C 382.393,351.931 384.393,350.931 385.5,348.5C 387.213,350.85 389.547,351.85 392.5,351.5C 392.795,353.735 392.461,355.735 391.5,357.5C 389.257,356.188 386.59,355.522 383.5,355.5C 377.504,355.034 371.504,354.7 365.5,354.5C 365.461,357.81 366.794,360.476 369.5,362.5C 370.172,364.53 370.838,366.53 371.5,368.5C 370.167,368.5 368.833,368.5 367.5,368.5C 365.1,363.368 362.434,358.368 359.5,353.5C 336.537,350.913 313.537,348.579 290.5,346.5C 293.511,353.537 295.511,360.871 296.5,368.5C 295.167,368.5 293.833,368.5 292.5,368.5C 291.141,361.07 289.141,353.736 286.5,346.5C 272.855,344.919 259.188,343.586 245.5,342.5C 245.5,341.167 245.5,339.833 245.5,338.5C 256.346,339.307 267.179,340.307 278,341.5C 280.167,341.167 282.333,340.833 284.5,340.5C 283.753,336.862 283.086,333.195 282.5,329.5C 280.289,323.087 277.956,316.754 275.5,310.5C 275.833,309.833 276.167,309.167 276.5,308.5C 273.626,302.803 271.626,296.803 270.5,290.5C 266.794,290.499 264.461,292.165 263.5,295.5C 257.917,297.238 253.251,300.405 249.5,305C 248.099,305.41 246.766,305.91 245.5,306.5C 245.629,304.784 245.962,303.117 246.5,301.5C 246.263,300.209 246.596,299.209 247.5,298.5C 248.251,299.573 249.251,299.74 250.5,299C 255.541,293.729 261.374,289.562 268,286.5C 268.167,285.333 268.333,284.167 268.5,283C 265.454,275.364 263.121,267.531 261.5,259.5C 257.958,259.187 254.625,259.521 251.5,260.5C 249.167,260.5 246.833,260.5 244.5,260.5C 244.5,259.5 244.5,258.5 244.5,257.5C 248.142,256.92 251.809,256.42 255.5,256C 257.107,254.951 257.773,253.451 257.5,251.5C 258.486,247.03 258.819,242.363 258.5,237.5C 257.209,237.263 256.209,237.596 255.5,238.5C 251.833,239.167 248.167,239.833 244.5,240.5C 244.5,239.167 244.5,237.833 244.5,236.5C 248.492,235.503 252.492,234.503 256.5,233.5C 257.498,224.859 257.831,216.192 257.5,207.5C 253.19,208.08 248.857,208.414 244.5,208.5C 244.5,202.833 244.5,197.167 244.5,191.5C 248.128,188.71 251.628,185.71 255,182.5C 255.499,176.509 255.666,170.509 255.5,164.5C 251.669,164.584 248.002,163.917 244.5,162.5C 243.566,161.432 243.232,160.099 243.5,158.5C 243.833,158.5 244.167,158.5 244.5,158.5C 248.002,159.917 251.669,160.584 255.5,160.5C 254.896,142.16 254.062,123.826 253,105.5C 250.946,102.953 249.113,100.286 247.5,97.5C 247.5,96.8333 247.5,96.1667 247.5,95.5C 248.894,93.2918 250.894,91.7918 253.5,91C 257.821,90.501 262.154,90.3343 266.5,90.5 Z"/></g>
<g><path style="opacity:1" fill="#dbd0b2" d="M 266.5,90.5 C 274.5,90.5 282.5,90.5 290.5,90.5C 290.162,93.1569 290.829,95.4902 292.5,97.5C 299.134,98.4967 305.8,98.83 312.5,98.5C 314.393,106.123 316.726,113.623 319.5,121C 311.64,129.36 303.307,137.194 294.5,144.5C 293.414,135.49 291.081,126.823 287.5,118.5C 281.138,108.543 274.138,99.2101 266.5,90.5 Z"/></g>
<g><path style="opacity:1" fill="#dbd1b3" d="M 355.5,91.5 C 356.5,91.5 357.5,91.5 358.5,91.5C 359.551,101.077 360.884,110.577 362.5,120C 353.003,130.497 343.169,140.664 333,150.5C 328.737,141.234 326.071,131.568 325,121.5C 335.726,111.94 345.892,101.94 355.5,91.5 Z"/></g>
<g><path style="opacity:1" fill="#dacfb3" d="M 391.5,113.5 C 390.515,109.366 390.182,105.032 390.5,100.5C 389.5,100.5 388.5,100.5 387.5,100.5C 387.657,99.1266 387.49,97.7932 387,96.5C 380.016,102.65 373.183,108.983 366.5,115.5C 364.676,107.589 363.176,99.5886 362,91.5C 359.263,90.3895 356.429,90.2228 353.5,91C 347.627,96.7042 341.293,101.871 334.5,106.5C 330.798,110.533 327.131,114.533 323.5,118.5C 320.336,114.128 318.836,109.128 319,103.5C 318.153,101.807 317.32,100.14 316.5,98.5C 324.84,98.6664 333.173,98.4997 341.5,98C 344.124,95.8467 345.124,93.0134 344.5,89.5C 357.561,89.0777 370.561,89.5777 383.5,91C 390.997,96.6072 393.664,104.107 391.5,113.5 Z"/></g>
<g><path style="opacity:1" fill="#f9a68b" d="M 401.5,151.5 C 401.498,135.13 400.498,119.13 398.5,103.5C 398.5,102.833 398.5,102.167 398.5,101.5C 405.661,99.611 411.828,101.278 417,106.5C 417.923,108.034 418.423,109.701 418.5,111.5C 414.355,125.639 408.688,138.972 401.5,151.5 Z"/></g>
<g><path style="opacity:1" fill="#dbd0b3" d="M 257.5,113.5 C 260.729,117.543 264.229,121.543 268,125.5C 269.524,129.12 271.524,132.453 274,135.5C 274.699,145.522 274.532,155.522 273.5,165.5C 271.473,165.662 269.473,165.495 267.5,165C 264.391,164.304 261.558,163.138 259,161.5C 258.559,145.495 258.059,129.495 257.5,113.5 Z"/></g>
<g><path style="opacity:1" fill="#4d8ce6" d="M 247.5,97.5 C 249.113,100.286 250.946,102.953 253,105.5C 254.062,123.826 254.896,142.16 255.5,160.5C 251.669,160.584 248.002,159.917 244.5,158.5C 244.333,140.164 244.5,121.83 245,103.5C 245.037,101.026 245.87,99.0261 247.5,97.5 Z"/></g>
<g><path style="opacity:1" fill="#88c718" d="M 391.5,117.5 C 391.5,131.5 391.5,145.5 391.5,159.5C 390.127,159.343 388.793,159.51 387.5,160C 382.094,162.559 376.76,165.059 371.5,167.5C 369.878,168.122 368.545,169.122 367.5,170.5C 359.887,174.642 352.221,178.809 344.5,183C 339.777,183.624 335.11,183.29 330.5,182C 328.349,181.735 326.682,180.735 325.5,179C 333.058,170.273 341.391,162.44 350.5,155.5C 353.189,151.309 356.855,148.142 361.5,146C 370.678,135.656 380.678,126.156 391.5,117.5 Z"/></g>
<g><path style="opacity:1" fill="#f72d84" d="M 130.5,116.5 C 140.957,116.454 144.79,121.454 142,131.5C 135.427,138.506 129.427,138.172 124,130.5C 122.176,123.821 124.342,119.155 130.5,116.5 Z"/></g>
<g><path style="opacity:1" fill="#fdb394" d="M 223.5,127.5 C 222.782,129.137 222.616,130.803 223,132.5C 224.333,131.167 225.667,131.167 227,132.5C 230.659,146.214 229.159,159.381 222.5,172C 219.041,173.706 215.541,173.872 212,172.5C 211,176.5 210,176.5 209,172.5C 208.768,173.737 208.268,174.737 207.5,175.5C 209.086,163.735 211.253,152.068 214,140.5C 216.219,135.361 219.386,131.028 223.5,127.5 Z"/></g>
<g><path style="opacity:1" fill="#cf7e6c" d="M 398.5,103.5 C 400.498,119.13 401.498,135.13 401.5,151.5C 400.559,153.05 399.893,154.716 399.5,156.5C 399.167,156.5 398.833,156.5 398.5,156.5C 398.5,138.833 398.5,121.167 398.5,103.5 Z"/></g>
<g><path style="opacity:1" fill="#4568a0" d="M 247.5,95.5 C 247.5,96.1667 247.5,96.8333 247.5,97.5C 245.87,99.0261 245.037,101.026 245,103.5C 244.5,121.83 244.333,140.164 244.5,158.5C 244.167,158.5 243.833,158.5 243.5,158.5C 243.333,138.831 243.5,119.164 244,99.5C 244.66,97.6763 245.827,96.343 247.5,95.5 Z"/></g>
<g><path style="opacity:1" fill="#dcd0b2" d="M 319.5,126.5 C 320.497,126.47 321.164,126.97 321.5,128C 323.635,135.075 326.135,141.908 329,148.5C 329.814,150.902 329.647,153.235 328.5,155.5C 322.04,161.794 315.707,168.294 309.5,175C 303.232,173.914 296.899,172.748 290.5,171.5C 291.747,164.528 292.914,157.528 294,150.5C 302.902,142.822 311.402,134.822 319.5,126.5 Z"/></g>
<g><path style="opacity:1" fill="#e1ac25" d="M 313.5,141.5 C 324.268,141.704 327.434,146.704 323,156.5C 321.159,158.211 319.326,159.878 317.5,161.5C 310.478,155.813 309.145,149.147 313.5,141.5 Z"/></g>
<g><path style="opacity:1" fill="#e4c38e" d="M 315.5,144.5 C 321,143.831 323.167,146.165 322,151.5C 317.939,155.788 314.772,155.121 312.5,149.5C 313.26,147.64 314.26,145.973 315.5,144.5 Z"/></g>
<g><path style="opacity:1" fill="#e2a918" d="M 316.5,145.5 C 320.264,146.385 321.264,148.552 319.5,152C 316.678,152.699 315.012,151.532 314.5,148.5C 315.612,147.735 316.279,146.735 316.5,145.5 Z"/></g>
<g><path style="opacity:1" fill="#fdb192" d="M 398.5,156.5 C 398.833,156.5 399.167,156.5 399.5,156.5C 401.857,158.098 404.523,159.098 407.5,159.5C 404.813,159.336 402.146,159.503 399.5,160C 393.966,161.552 388.632,163.552 383.5,166C 387.114,166.936 390.78,167.436 394.5,167.5C 396.636,173.711 398.303,180.044 399.5,186.5C 399.087,192.747 395.754,196.247 389.5,197C 383.843,198.324 378.843,197.157 374.5,193.5C 373.497,188.828 372.497,184.161 371.5,179.5C 371.649,177.68 372.316,176.18 373.5,175C 370.806,172.448 371.473,171.281 375.5,171.5C 375.587,168.402 375.087,168.068 374,170.5C 373.148,169.429 372.315,168.429 371.5,167.5C 376.76,165.059 382.094,162.559 387.5,160C 388.793,159.51 390.127,159.343 391.5,159.5C 393.662,160.417 395.995,160.417 398.5,159.5C 398.5,158.5 398.5,157.5 398.5,156.5 Z"/></g>
<g><path style="opacity:1" fill="#4a8ae9" d="M 244.5,162.5 C 248.002,163.917 251.669,164.584 255.5,164.5C 255.666,170.509 255.499,176.509 255,182.5C 251.628,185.71 248.128,188.71 244.5,191.5C 244.5,181.833 244.5,172.167 244.5,162.5 Z"/></g>
<g><path style="opacity:1" fill="#ddd2b4" d="M 271.5,187.5 C 270.488,188.872 269.488,190.205 268.5,191.5C 268.649,190.448 268.483,189.448 268,188.5C 259.326,191.891 257.16,189.224 261.5,180.5C 264.853,177.313 268.353,174.313 272,171.5C 271.999,176.178 271.499,180.845 270.5,185.5C 270.543,186.416 270.876,187.083 271.5,187.5 Z"/></g>
<g><path style="opacity:1" fill="#f62b83" d="M 153.5,181.5 C 167.705,180.857 171.372,186.69 164.5,199C 152.816,202.986 147.65,198.819 149,186.5C 150.059,184.341 151.559,182.674 153.5,181.5 Z"/></g>
<g><path style="opacity:1" fill="#87abdb" d="M 255.5,186.5 C 256.451,187.919 256.784,189.585 256.5,191.5C 254.801,191.66 253.134,191.494 251.5,191C 252.699,189.306 254.032,187.806 255.5,186.5 Z"/></g>
<g><path style="opacity:1" fill="#dbd0b2" d="M 343.5,186.5 C 335.312,187.839 329.146,192.173 325,199.5C 324.503,202.146 324.336,204.813 324.5,207.5C 319.935,209.454 315.602,211.954 311.5,215C 308.479,215.849 305.479,216.683 302.5,217.5C 302.657,216.127 302.49,214.793 302,213.5C 299.675,208.35 296.842,203.517 293.5,199C 294.167,198.333 294.833,197.667 295.5,197C 304.666,194.837 312.666,190.503 319.5,184C 327.385,185.366 335.385,186.199 343.5,186.5 Z"/></g>
<g><path style="opacity:1" fill="#e5ad23" d="M 278.5,204.5 C 276.105,207.154 274.105,206.821 272.5,203.5C 270.037,199.9 268.703,195.9 268.5,191.5C 269.488,190.205 270.488,188.872 271.5,187.5C 279.767,185.192 283.601,188.192 283,196.5C 281.281,199.05 279.781,201.717 278.5,204.5 Z"/></g>
<g><path style="opacity:1" fill="#f7e3b7" d="M 273.5,188.5 C 280.341,189.016 282.007,192.182 278.5,198C 273.92,199.415 271.586,197.749 271.5,193C 271.759,191.213 272.425,189.713 273.5,188.5 Z"/></g>
<g><path style="opacity:1" fill="#e6b02e" d="M 274.5,190.5 C 280.581,192.068 280.914,194.401 275.5,197.5C 271.967,195.58 271.633,193.246 274.5,190.5 Z"/></g>
<g><path style="opacity:1" fill="#8bc81f" d="M 363.5,177.5 C 363.5,181.5 363.5,185.5 363.5,189.5C 350.337,195.165 337.337,201.165 324.5,207.5C 324.336,204.813 324.503,202.146 325,199.5C 329.146,192.173 335.312,187.839 343.5,186.5C 350.197,183.483 356.864,180.483 363.5,177.5 Z"/></g>
<g><path style="opacity:1" fill="#89c71a" d="M 364.5,192.5 C 368.174,195.878 371.841,199.211 375.5,202.5C 379.167,203.167 382.833,203.833 386.5,204.5C 377.802,210.362 368.969,216.029 360,221.5C 356.937,220.119 354.104,218.286 351.5,216C 346.167,215.667 340.833,215.333 335.5,215C 333.807,214.153 332.14,213.32 330.5,212.5C 329.438,211.425 329.438,210.425 330.5,209.5C 341.608,203.28 352.941,197.613 364.5,192.5 Z"/></g>
<g><path style="opacity:1" fill="#d0b561" d="M 375.5,202.5 C 379.833,202.5 384.167,202.5 388.5,202.5C 388.167,203.5 387.5,204.167 386.5,204.5C 382.833,203.833 379.167,203.167 375.5,202.5 Z"/></g>
<g><path style="opacity:1" fill="#4e4240" d="M 391.5,207.5 C 391.5,207.167 391.5,206.833 391.5,206.5C 391.5,204.833 391.5,203.167 391.5,201.5C 394.167,201.167 396.833,200.833 399.5,200.5C 399.809,205.895 397.142,208.229 391.5,207.5 Z"/></g>
<g><path style="opacity:1" fill="#f62e83" d="M 473.5,194.5 C 484.041,193.539 488.541,198.205 487,208.5C 480.337,216.697 474.004,216.364 468,207.5C 467.093,201.983 468.926,197.65 473.5,194.5 Z"/></g>
<g><path style="opacity:1" fill="#dbd0b2" d="M 272.5,203.5 C 274.105,206.821 276.105,207.154 278.5,204.5C 281.398,211.695 285.065,218.362 289.5,224.5C 288.035,225.737 286.368,226.737 284.5,227.5C 277.028,228.535 269.695,230.201 262.5,232.5C 261.315,223.854 260.815,215.188 261,206.5C 263.944,205.743 266.944,205.077 270,204.5C 271.726,206.098 272.559,205.765 272.5,203.5 Z"/></g>
<g><path style="opacity:1" fill="#f8a68b" d="M 407.5,159.5 C 409.179,159.892 410.846,160.392 412.5,161C 420.289,169.384 422.289,179.05 418.5,190C 414.857,195.459 410.857,200.626 406.5,205.5C 413.351,208.191 417.518,213.191 419,220.5C 419.667,224.833 419.667,229.167 419,233.5C 415.411,237.724 411.911,242.058 408.5,246.5C 415.971,247.482 420.804,251.482 423,258.5C 424.244,262.779 424.577,267.112 424,271.5C 421.86,275.462 419.027,278.796 415.5,281.5C 415.631,280.624 415.298,279.957 414.5,279.5C 408.818,282.321 403.152,284.988 397.5,287.5C 395.565,288.15 393.565,288.483 391.5,288.5C 385.24,287.895 380.574,284.895 377.5,279.5C 376.746,274.537 376.413,269.537 376.5,264.5C 377.404,263.791 377.737,262.791 377.5,261.5C 379.5,260.5 381.5,259.5 383.5,258.5C 383.027,265.446 383.027,272.446 383.5,279.5C 387.442,279.592 390.942,280.926 394,283.5C 398.598,282.379 403.098,281.045 407.5,279.5C 407.5,274.167 407.5,268.833 407.5,263.5C 405.856,263.714 404.356,263.38 403,262.5C 402.503,260.19 402.337,257.857 402.5,255.5C 398.509,255.381 394.509,255.047 390.5,254.5C 391.369,252.283 391.702,249.95 391.5,247.5C 386.026,247.899 380.859,246.899 376,244.5C 373.403,239.385 371.236,234.051 369.5,228.5C 369.728,226.793 370.062,225.126 370.5,223.5C 371.833,222.167 371.833,220.833 370.5,219.5C 372.909,216.456 375.909,214.122 379.5,212.5C 381.604,212.201 383.604,212.534 385.5,213.5C 378.071,217.099 375.071,223.099 376.5,231.5C 377.5,231.5 378.5,231.5 379.5,231.5C 379.777,234.448 379.444,237.281 378.5,240C 379.899,240.595 381.232,240.428 382.5,239.5C 383.386,240.325 383.719,241.325 383.5,242.5C 386.909,242.249 390.242,242.583 393.5,243.5C 393.833,242.833 394.167,242.167 394.5,241.5C 396.042,242.747 397.542,242.747 399,241.5C 400.358,238.474 401.191,235.307 401.5,232C 400.267,226.568 399.6,221.068 399.5,215.5C 394.981,215.05 390.648,213.883 386.5,212C 387.056,211.617 387.389,211.117 387.5,210.5C 389.632,210.446 390.965,209.446 391.5,207.5C 397.142,208.229 399.809,205.895 399.5,200.5C 396.833,200.833 394.167,201.167 391.5,201.5C 390.391,201.557 389.391,201.89 388.5,202.5C 384.167,202.5 379.833,202.5 375.5,202.5C 371.841,199.211 368.174,195.878 364.5,192.5C 364.737,191.209 364.404,190.209 363.5,189.5C 363.5,185.5 363.5,181.5 363.5,177.5C 364.828,175.207 366.161,172.873 367.5,170.5C 368.545,169.122 369.878,168.122 371.5,167.5C 372.315,168.429 373.148,169.429 374,170.5C 375.087,168.068 375.587,168.402 375.5,171.5C 371.473,171.281 370.806,172.448 373.5,175C 372.316,176.18 371.649,177.68 371.5,179.5C 372.497,184.161 373.497,188.828 374.5,193.5C 378.843,197.157 383.843,198.324 389.5,197C 395.754,196.247 399.087,192.747 399.5,186.5C 398.303,180.044 396.636,173.711 394.5,167.5C 390.78,167.436 387.114,166.936 383.5,166C 388.632,163.552 393.966,161.552 399.5,160C 402.146,159.503 404.813,159.336 407.5,159.5 Z"/></g>
<g><path style="opacity:1" fill="#bfc45e" d="M 391.5,206.5 C 391.5,206.833 391.5,207.167 391.5,207.5C 390.965,209.446 389.632,210.446 387.5,210.5C 386.833,210.5 386.167,210.5 385.5,210.5C 385.414,209.504 385.748,208.671 386.5,208C 388.247,207.648 389.914,207.148 391.5,206.5 Z"/></g>
<g><path style="opacity:1" fill="#feb292" d="M 385.5,210.5 C 386.167,210.5 386.833,210.5 387.5,210.5C 387.389,211.117 387.056,211.617 386.5,212C 390.648,213.883 394.981,215.05 399.5,215.5C 399.6,221.068 400.267,226.568 401.5,232C 401.191,235.307 400.358,238.474 399,241.5C 397.542,242.747 396.042,242.747 394.5,241.5C 394.167,242.167 393.833,242.833 393.5,243.5C 390.242,242.583 386.909,242.249 383.5,242.5C 383.719,241.325 383.386,240.325 382.5,239.5C 381.232,240.428 379.899,240.595 378.5,240C 379.444,237.281 379.777,234.448 379.5,231.5C 378.5,231.5 377.5,231.5 376.5,231.5C 375.071,223.099 378.071,217.099 385.5,213.5C 383.604,212.534 381.604,212.201 379.5,212.5C 381.302,211.542 383.302,210.875 385.5,210.5 Z"/></g>
<g><path style="opacity:1" fill="#508ce5" d="M 244.5,236.5 C 244.5,227.167 244.5,217.833 244.5,208.5C 248.857,208.414 253.19,208.08 257.5,207.5C 257.831,216.192 257.498,224.859 256.5,233.5C 252.492,234.503 248.492,235.503 244.5,236.5 Z"/></g>
<g><path style="opacity:1" fill="#a3c53c" d="M 370.5,219.5 C 371.833,220.833 371.833,222.167 370.5,223.5C 369.542,223.953 368.708,224.619 368,225.5C 367.25,224.874 366.416,224.374 365.5,224C 366.714,221.951 368.38,220.451 370.5,219.5 Z"/></g>
<g><path style="opacity:1" fill="#dcd0b3" d="M 391.5,201.5 C 391.5,203.167 391.5,204.833 391.5,206.5C 389.914,207.148 388.247,207.648 386.5,208C 385.748,208.671 385.414,209.504 385.5,210.5C 383.302,210.875 381.302,211.542 379.5,212.5C 375.909,214.122 372.909,216.456 370.5,219.5C 368.38,220.451 366.714,221.951 365.5,224C 366.416,224.374 367.25,224.874 368,225.5C 368.708,224.619 369.542,223.953 370.5,223.5C 370.062,225.126 369.728,226.793 369.5,228.5C 371.236,234.051 373.403,239.385 376,244.5C 380.859,246.899 386.026,247.899 391.5,247.5C 391.702,249.95 391.369,252.283 390.5,254.5C 390.158,255.338 389.492,255.672 388.5,255.5C 386.492,253.073 383.826,252.073 380.5,252.5C 375.872,252.545 371.539,253.545 367.5,255.5C 366.305,255.678 365.138,256.011 364,256.5C 358.85,255.162 354.016,253.162 349.5,250.5C 344.564,248.861 339.564,247.528 334.5,246.5C 334.33,245.178 334.663,244.011 335.5,243C 345.687,237.075 355.353,230.408 364.5,223C 362.029,222.294 359.695,222.627 357.5,224C 347.791,230.135 338.291,236.635 329,243.5C 325.539,242.434 322.206,241.101 319,239.5C 318.536,240.094 318.369,240.761 318.5,241.5C 316.131,233.489 311.131,227.822 303.5,224.5C 304.943,223.665 305.943,222.332 306.5,220.5C 313.186,217.496 319.852,214.496 326.5,211.5C 327.736,212.246 329.07,212.579 330.5,212.5C 332.14,213.32 333.807,214.153 335.5,215C 340.833,215.333 346.167,215.667 351.5,216C 354.104,218.286 356.937,220.119 360,221.5C 368.969,216.029 377.802,210.362 386.5,204.5C 387.5,204.167 388.167,203.5 388.5,202.5C 389.391,201.89 390.391,201.557 391.5,201.5 Z"/></g>
<g><path style="opacity:1" fill="#d5ced0" d="M 237.5,223.5 C 237.5,231.5 237.5,239.5 237.5,247.5C 233.628,239.526 233.628,231.526 237.5,223.5 Z"/></g>
<g><path style="opacity:1" fill="#dcd0b3" d="M 277.5,235.5 C 276.274,241.479 276.274,247.479 277.5,253.5C 275.234,253.141 273.401,253.808 272,255.5C 269.2,254.875 266.366,254.208 263.5,253.5C 261.502,247.709 261.169,241.876 262.5,236C 265.424,235.012 268.424,234.346 271.5,234C 272.584,231.175 273.751,231.008 275,233.5C 276.813,232.391 277.646,233.058 277.5,235.5 Z"/></g>
<g><path style="opacity:1" fill="#f62c82" d="M 303.5,224.5 C 311.131,227.822 316.131,233.489 318.5,241.5C 317.515,250.792 314.182,259.125 308.5,266.5C 307.512,267.795 306.512,269.128 305.5,270.5C 304.094,270.973 303.427,271.973 303.5,273.5C 301.498,276.001 299.331,278.335 297,280.5C 294.949,278.759 293.116,276.759 291.5,274.5C 291.167,273.5 290.5,272.833 289.5,272.5C 286.402,267.291 283.068,262.291 279.5,257.5C 279.34,255.847 278.674,254.514 277.5,253.5C 276.274,247.479 276.274,241.479 277.5,235.5C 279.804,232.859 282.138,230.192 284.5,227.5C 286.368,226.737 288.035,225.737 289.5,224.5C 294.181,223.238 298.848,223.238 303.5,224.5 Z"/></g>
<g><path style="opacity:1" fill="#f62882" d="M 293.5,236.5 C 304.857,235.719 308.19,240.553 303.5,251C 299.7,253.52 295.7,254.02 291.5,252.5C 288.799,248.597 287.966,244.263 289,239.5C 290.615,238.614 292.115,237.614 293.5,236.5 Z"/></g>
<g><path style="opacity:1" fill="#dbd0b4" d="M 289.5,233.5 C 291.619,233.468 292.952,234.468 293.5,236.5C 292.115,237.614 290.615,238.614 289,239.5C 287.966,244.263 288.799,248.597 291.5,252.5C 291.631,253.376 291.298,254.043 290.5,254.5C 289.378,253.37 288.044,252.703 286.5,252.5C 281.718,245.046 282.718,238.713 289.5,233.5 Z"/></g>
<g><path style="opacity:1" fill="#92b0dc" d="M 255.5,238.5 C 256.209,237.596 257.209,237.263 258.5,237.5C 258.819,242.363 258.486,247.03 257.5,251.5C 258.097,246.706 257.43,242.373 255.5,238.5 Z"/></g>
<g><path style="opacity:1" fill="#4b8be7" d="M 255.5,238.5 C 257.43,242.373 258.097,246.706 257.5,251.5C 257.773,253.451 257.107,254.951 255.5,256C 251.809,256.42 248.142,256.92 244.5,257.5C 244.5,251.833 244.5,246.167 244.5,240.5C 248.167,239.833 251.833,239.167 255.5,238.5 Z"/></g>
<g><path style="opacity:1" fill="#ce7f6d" d="M 236.5,132.5 C 237.498,162.662 237.831,192.995 237.5,223.5C 233.628,231.526 233.628,239.526 237.5,247.5C 237.5,259.5 237.5,271.5 237.5,283.5C 235.743,282.708 234.409,281.375 233.5,279.5C 229.448,269.74 227.782,259.573 228.5,249C 228.937,234.811 231.437,220.978 236,207.5C 236.5,182.502 236.667,157.502 236.5,132.5 Z"/></g>
<g><path style="opacity:1" fill="#f4e4d2" d="M 286.5,252.5 C 288.044,252.703 289.378,253.37 290.5,254.5C 291.298,254.043 291.631,253.376 291.5,252.5C 295.7,254.02 299.7,253.52 303.5,251C 308.19,240.553 304.857,235.719 293.5,236.5C 292.952,234.468 291.619,233.468 289.5,233.5C 291.414,231.714 293.748,230.714 296.5,230.5C 311.218,233.794 314.552,241.794 306.5,254.5C 302.449,258.091 297.782,259.257 292.5,258C 289.815,256.839 287.815,255.006 286.5,252.5 Z"/></g>
<g><path style="opacity:1" fill="#43363a" d="M 395.5,245.5 C 396.833,245.5 398.167,245.5 399.5,245.5C 400.021,249.922 398.021,252.255 393.5,252.5C 392.534,250.604 392.201,248.604 392.5,246.5C 393.791,246.737 394.791,246.404 395.5,245.5 Z"/></g>
<g><path style="opacity:1" fill="#dbd0b3" d="M 360.5,260.5 C 355.086,270.479 356.753,278.813 365.5,285.5C 362.911,284.873 360.411,284.873 358,285.5C 349.351,282.45 340.517,280.116 331.5,278.5C 330.021,274.198 328.521,269.865 327,265.5C 324.411,261.91 322.245,258.076 320.5,254C 323.455,248.855 327.788,247.021 333.5,248.5C 342.578,252.884 351.578,256.884 360.5,260.5 Z"/></g>
<g><path style="opacity:1" fill="#578ee1" d="M 388.5,255.5 C 386.566,256.11 384.899,257.11 383.5,258.5C 381.5,259.5 379.5,260.5 377.5,261.5C 373.895,261.201 370.561,260.035 367.5,258C 366.402,257.23 366.402,256.397 367.5,255.5C 371.539,253.545 375.872,252.545 380.5,252.5C 383.826,252.073 386.492,253.073 388.5,255.5 Z"/></g>
<g><path style="opacity:1" fill="#fdb192" d="M 390.5,254.5 C 394.509,255.047 398.509,255.381 402.5,255.5C 402.337,257.857 402.503,260.19 403,262.5C 404.356,263.38 405.856,263.714 407.5,263.5C 407.5,268.833 407.5,274.167 407.5,279.5C 403.098,281.045 398.598,282.379 394,283.5C 390.942,280.926 387.442,279.592 383.5,279.5C 383.027,272.446 383.027,265.446 383.5,258.5C 384.899,257.11 386.566,256.11 388.5,255.5C 389.492,255.672 390.158,255.338 390.5,254.5 Z"/></g>
<g><path style="opacity:1" fill="#dbd0b2" d="M 279.5,257.5 C 283.068,262.291 286.402,267.291 289.5,272.5C 287.738,272.357 286.071,272.691 284.5,273.5C 280.425,276.953 276.258,280.287 272,283.5C 268.739,275.456 266.572,267.122 265.5,258.5C 270.13,257.771 274.797,257.437 279.5,257.5 Z"/></g>
<g><path style="opacity:1" fill="#dad0b4" d="M 251.5,260.5 C 254.625,259.521 257.958,259.187 261.5,259.5C 263.121,267.531 265.454,275.364 268.5,283C 268.333,284.167 268.167,285.333 268,286.5C 261.374,289.562 255.541,293.729 250.5,299C 249.251,299.74 248.251,299.573 247.5,298.5C 249.531,285.73 252.197,273.064 255.5,260.5C 254.167,260.5 252.833,260.5 251.5,260.5 Z"/></g>
<g><path style="opacity:1" fill="#4f8be5" d="M 360.5,260.5 C 365.095,261.032 369.429,262.365 373.5,264.5C 374.951,269.474 376.285,274.474 377.5,279.5C 380.574,284.895 385.24,287.895 391.5,288.5C 392.234,289.708 392.567,291.041 392.5,292.5C 382.898,292.841 373.898,290.508 365.5,285.5C 356.753,278.813 355.086,270.479 360.5,260.5 Z"/></g>
<g><path style="opacity:1" fill="#4d8ae3" d="M 244.5,260.5 C 246.833,260.5 249.167,260.5 251.5,260.5C 252.833,260.5 254.167,260.5 255.5,260.5C 252.197,273.064 249.531,285.73 247.5,298.5C 246.596,299.209 246.263,300.209 246.5,301.5C 245.833,301.5 245.167,301.5 244.5,301.5C 244.5,287.833 244.5,274.167 244.5,260.5 Z"/></g>
<g><path style="opacity:1" fill="#b77d3d" d="M 305.5,270.5 C 305.573,272.027 304.906,273.027 303.5,273.5C 303.427,271.973 304.094,270.973 305.5,270.5 Z"/></g>
<g><path style="opacity:1" fill="#b19bb7" d="M 373.5,264.5 C 374.5,264.5 375.5,264.5 376.5,264.5C 376.413,269.537 376.746,274.537 377.5,279.5C 376.285,274.474 374.951,269.474 373.5,264.5 Z"/></g>
<g><path style="opacity:1" fill="#88c716" d="M 308.5,266.5 C 312.856,276.372 319.023,285.039 327,292.5C 332.654,303.882 338.487,315.215 344.5,326.5C 345.357,327.425 346.357,328.092 347.5,328.5C 344.971,330.955 344.138,333.955 345,337.5C 346.914,341.089 349.248,344.422 352,347.5C 353.039,346.29 354.206,345.29 355.5,344.5C 355.328,345.492 355.662,346.158 356.5,346.5C 354.777,347.8 352.61,348.467 350,348.5C 329.822,346.854 309.656,345.187 289.5,343.5C 284.456,324.874 279.123,306.374 273.5,288C 273.585,286.893 273.919,285.893 274.5,285C 278.447,282.72 282.113,280.053 285.5,277C 287.407,275.878 289.407,275.045 291.5,274.5C 293.116,276.759 294.949,278.759 297,280.5C 299.331,278.335 301.498,276.001 303.5,273.5C 304.906,273.027 305.573,272.027 305.5,270.5C 306.512,269.128 307.512,267.795 308.5,266.5 Z"/></g>
<g><path style="opacity:1" fill="#da8570" d="M 415.5,281.5 C 410.344,288.983 405.011,296.316 399.5,303.5C 400.113,297.729 399.446,292.396 397.5,287.5C 403.152,284.988 408.818,282.321 414.5,279.5C 415.298,279.957 415.631,280.624 415.5,281.5 Z"/></g>
<g><path style="opacity:1" fill="#f8f1db" d="M 367.5,255.5 C 366.402,256.397 366.402,257.23 367.5,258C 370.561,260.035 373.895,261.201 377.5,261.5C 377.737,262.791 377.404,263.791 376.5,264.5C 375.5,264.5 374.5,264.5 373.5,264.5C 369.429,262.365 365.095,261.032 360.5,260.5C 351.578,256.884 342.578,252.884 333.5,248.5C 327.788,247.021 323.455,248.855 320.5,254C 322.245,258.076 324.411,261.91 327,265.5C 328.521,269.865 330.021,274.198 331.5,278.5C 340.517,280.116 349.351,282.45 358,285.5C 360.411,284.873 362.911,284.873 365.5,285.5C 373.898,290.508 382.898,292.841 392.5,292.5C 392.5,298.833 392.5,305.167 392.5,311.5C 385.192,310.732 378.192,308.732 371.5,305.5C 370.287,305.747 369.62,306.414 369.5,307.5C 368.751,306.469 368.085,305.302 367.5,304C 355.778,300.128 344.111,296.295 332.5,292.5C 331.417,293.365 331.251,294.365 332,295.5C 336.15,302.964 340.484,310.297 345,317.5C 346.17,320.852 347.336,324.186 348.5,327.5C 348.5,328.167 348.167,328.5 347.5,328.5C 346.357,328.092 345.357,327.425 344.5,326.5C 338.487,315.215 332.654,303.882 327,292.5C 319.023,285.039 312.856,276.372 308.5,266.5C 314.182,259.125 317.515,250.792 318.5,241.5C 318.369,240.761 318.536,240.094 319,239.5C 322.206,241.101 325.539,242.434 329,243.5C 338.291,236.635 347.791,230.135 357.5,224C 359.695,222.627 362.029,222.294 364.5,223C 355.353,230.408 345.687,237.075 335.5,243C 334.663,244.011 334.33,245.178 334.5,246.5C 339.564,247.528 344.564,248.861 349.5,250.5C 354.016,253.162 358.85,255.162 364,256.5C 365.138,256.011 366.305,255.678 367.5,255.5 Z"/></g>
<g><path style="opacity:1" fill="#dbd0b2" d="M 245.5,338.5 C 245.5,327.833 245.5,317.167 245.5,306.5C 246.766,305.91 248.099,305.41 249.5,305C 253.251,300.405 257.917,297.238 263.5,295.5C 264.461,292.165 266.794,290.499 270.5,290.5C 271.626,296.803 273.626,302.803 276.5,308.5C 276.167,309.167 275.833,309.833 275.5,310.5C 277.956,316.754 280.289,323.087 282.5,329.5C 283.086,333.195 283.753,336.862 284.5,340.5C 282.333,340.833 280.167,341.167 278,341.5C 267.179,340.307 256.346,339.307 245.5,338.5 Z"/></g>
<g><path style="opacity:1" fill="#f72583" d="M 447.5,332.5 C 443.434,332.693 439.434,332.36 435.5,331.5C 424.468,326.77 420.301,318.437 423,306.5C 425.904,297.209 432.237,292.209 442,291.5C 461.555,294.614 467.555,305.281 460,323.5C 457.101,328.229 452.934,331.229 447.5,332.5 Z"/></g>
<g><path style="opacity:1" fill="#dbd0b2" d="M 369.5,307.5 C 367.701,314.05 367.201,320.717 368,327.5C 372.955,335.283 378.788,342.283 385.5,348.5C 384.393,350.931 382.393,351.931 379.5,351.5C 373.192,350.679 366.859,350.346 360.5,350.5C 360.167,348.5 359.833,346.5 359.5,344.5C 357.821,344.285 356.821,344.952 356.5,346.5C 355.662,346.158 355.328,345.492 355.5,344.5C 358.799,340.407 359.966,335.741 359,330.5C 356.103,327.769 352.603,326.769 348.5,327.5C 347.336,324.186 346.17,320.852 345,317.5C 340.484,310.297 336.15,302.964 332,295.5C 331.251,294.365 331.417,293.365 332.5,292.5C 344.111,296.295 355.778,300.128 367.5,304C 368.085,305.302 368.751,306.469 369.5,307.5 Z"/></g>
<g><path style="opacity:1" fill="#b7b1a7" d="M 244.5,301.5 C 245.167,301.5 245.833,301.5 246.5,301.5C 245.962,303.117 245.629,304.784 245.5,306.5C 245.5,317.167 245.5,327.833 245.5,338.5C 245.5,339.833 245.5,341.167 245.5,342.5C 245.5,347.5 245.5,352.5 245.5,357.5C 244.503,339.007 244.17,320.341 244.5,301.5 Z"/></g>
<g><path style="opacity:1" fill="#4a8ae6" d="M 392.5,311.5 C 392.5,324.833 392.5,338.167 392.5,351.5C 389.547,351.85 387.213,350.85 385.5,348.5C 378.788,342.283 372.955,335.283 368,327.5C 367.201,320.717 367.701,314.05 369.5,307.5C 369.62,306.414 370.287,305.747 371.5,305.5C 378.192,308.732 385.192,310.732 392.5,311.5 Z"/></g>
<g><path style="opacity:1" fill="#fbabd2" d="M 435.5,331.5 C 439.434,332.36 443.434,332.693 447.5,332.5C 444.024,333.643 440.358,333.81 436.5,333C 435.944,332.617 435.611,332.117 435.5,331.5 Z"/></g>
<g><path style="opacity:1" fill="#e0a914" d="M 348.5,327.5 C 352.603,326.769 356.103,327.769 359,330.5C 359.966,335.741 358.799,340.407 355.5,344.5C 354.206,345.29 353.039,346.29 352,347.5C 349.248,344.422 346.914,341.089 345,337.5C 344.138,333.955 344.971,330.955 347.5,328.5C 348.167,328.5 348.5,328.167 348.5,327.5 Z"/></g>
<g><path style="opacity:1" fill="#a6c114" d="M 348.5,333.5 C 348.833,333.5 349.167,333.5 349.5,333.5C 349.229,335.38 349.896,336.713 351.5,337.5C 351.5,338.167 351.5,338.833 351.5,339.5C 347.809,338.664 346.809,336.664 348.5,333.5 Z"/></g>
<g><path style="opacity:1" fill="#e5a818" d="M 351.5,337.5 C 349.896,336.713 349.229,335.38 349.5,333.5C 350.932,331.353 352.765,331.02 355,332.5C 355.8,335.572 354.633,337.239 351.5,337.5 Z"/></g>
<g><path style="opacity:1" fill="#eecca2" d="M 351.5,339.5 C 351.5,338.833 351.5,338.167 351.5,337.5C 354.633,337.239 355.8,335.572 355,332.5C 352.765,331.02 350.932,331.353 349.5,333.5C 349.167,333.5 348.833,333.5 348.5,333.5C 350.252,329.021 353.085,328.354 357,331.5C 357.848,336.165 356.014,338.832 351.5,339.5 Z"/></g>
<g><path style="opacity:1" fill="#dacfb2" d="M 245.5,342.5 C 259.188,343.586 272.855,344.919 286.5,346.5C 289.141,353.736 291.141,361.07 292.5,368.5C 279.496,368.667 266.496,368.5 253.5,368C 249.121,365.789 246.454,362.289 245.5,357.5C 245.5,352.5 245.5,347.5 245.5,342.5 Z"/></g>
<g><path style="opacity:1" fill="#dbd0b2" d="M 367.5,368.5 C 343.833,368.5 320.167,368.5 296.5,368.5C 295.511,360.871 293.511,353.537 290.5,346.5C 313.537,348.579 336.537,350.913 359.5,353.5C 362.434,358.368 365.1,363.368 367.5,368.5 Z"/></g>
<g><path style="opacity:1" fill="#dacfb2" d="M 391.5,357.5 C 391.579,358.93 391.246,360.264 390.5,361.5C 385.551,367.329 379.218,369.663 371.5,368.5C 370.838,366.53 370.172,364.53 369.5,362.5C 366.794,360.476 365.461,357.81 365.5,354.5C 371.504,354.7 377.504,355.034 383.5,355.5C 386.59,355.522 389.257,356.188 391.5,357.5 Z"/></g>
<g><path style="opacity:1" fill="#f9a68c" d="M 236.5,132.5 C 236.667,157.502 236.5,182.502 236,207.5C 231.437,220.978 228.937,234.811 228.5,249C 227.782,259.573 229.448,269.74 233.5,279.5C 234.409,281.375 235.743,282.708 237.5,283.5C 237.333,310.502 237.5,337.502 238,364.5C 240.284,370.28 244.118,374.613 249.5,377.5C 271.663,378.332 293.996,378.832 316.5,379C 308.562,389.045 298.728,396.545 287,401.5C 276.604,454.999 267.104,508.665 258.5,562.5C 260.167,562.5 261.833,562.5 263.5,562.5C 220.745,569.367 178.745,565.867 137.5,552C 135.354,551.521 134.354,550.188 134.5,548C 138.066,534.907 141.566,521.74 145,508.5C 152.104,489.185 158.437,469.519 164,449.5C 172.533,423.383 180.867,397.049 189,370.5C 188.932,362.219 187.265,354.219 184,346.5C 176.798,314.71 175.798,282.71 181,250.5C 183.331,243.173 185.665,235.839 188,228.5C 190.81,222.402 193.81,216.402 197,210.5C 200.58,198.723 204.08,187.056 207.5,175.5C 208.268,174.737 208.768,173.737 209,172.5C 210,176.5 211,176.5 212,172.5C 215.541,173.872 219.041,173.706 222.5,172C 229.159,159.381 230.659,146.214 227,132.5C 225.667,131.167 224.333,131.167 223,132.5C 222.616,130.803 222.782,129.137 223.5,127.5C 228.863,126.181 233.196,127.847 236.5,132.5 Z"/></g>
<g><path style="opacity:1" fill="#df8a72" d="M 191.5,367.5 C 201.07,373.452 211.07,378.619 221.5,383C 231.42,386.361 241.254,386.195 251,382.5C 251.5,382.833 252,383.167 252.5,383.5C 250.047,385.92 247.047,387.086 243.5,387C 238.167,387.667 232.833,387.667 227.5,387C 222.604,385.054 217.604,383.387 212.5,382C 207.277,378.602 201.944,375.436 196.5,372.5C 196.167,372.833 195.833,373.167 195.5,373.5C 197.499,375.493 198.999,377.827 200,380.5C 206.886,386.527 214.719,390.86 223.5,393.5C 207.292,391.984 196.626,383.318 191.5,367.5 Z"/></g>
<g><path style="opacity:1" fill="#d7826f" d="M 249.5,377.5 C 277.5,377.5 305.5,377.5 333.5,377.5C 331.409,380.435 329.075,383.268 326.5,386C 314.377,393.139 302.544,400.639 291,408.5C 289.646,437.493 288.479,466.493 287.5,495.5C 285.515,511.132 284.849,527.132 285.5,543.5C 285.5,547.5 285.5,551.5 285.5,555.5C 278.397,558.375 271.064,560.708 263.5,562.5C 261.833,562.5 260.167,562.5 258.5,562.5C 267.104,508.665 276.604,454.999 287,401.5C 298.728,396.545 308.562,389.045 316.5,379C 293.996,378.832 271.663,378.332 249.5,377.5 Z"/></g>
<g><path style="opacity:1" fill="#de9c8f" d="M 287.5,495.5 C 287.163,511.671 286.496,527.671 285.5,543.5C 284.849,527.132 285.515,511.132 287.5,495.5 Z"/></g>
</svg>
