<?xml version="1.0" encoding="UTF-8" standalone="no"?>
<!DOCTYPE svg PUBLIC "-//W3C//DTD SVG 1.1//EN" "http://www.w3.org/Graphics/SVG/1.1/DTD/svg11.dtd">
<svg xmlns="http://www.w3.org/2000/svg" version="1.1" viewBox="0.00 0.00 731.00 176.00">
<g stroke-width="2.00" fill="none" stroke-linecap="butt">
<path stroke="#808080" vector-effect="non-scaling-stroke" d="
  M 0.00 112.52
  Q 1.62 122.31 10.06 125.94
  Q 13.58 127.46 18.45 127.38
  Q 30.46 127.21 42.82 127.34
  Q 45.53 127.36 46.62 124.88
  Q 46.87 124.32 46.75 123.74
  Q 46.12 120.78 43.09 120.74
  Q 31.21 120.58 19.04 120.77
  Q 15.18 120.83 12.89 119.86
  C 9.57 118.44 6.50 114.86 6.49 110.98
  Q 6.44 79.67 6.47 43.21
  C 6.47 39.67 8.68 36.61 11.53 34.75
  Q 13.57 33.41 16.69 33.42
  Q 43.55 33.46 63.51 33.42
  Q 66.80 33.42 66.78 30.12
  L 66.78 29.61
  Q 66.76 26.83 63.98 26.81
  Q 41.19 26.69 15.84 26.82
  C 7.71 26.86 1.11 33.39 0.00 41.19"
/>
<path stroke="#808080" vector-effect="non-scaling-stroke" d="
  M 651.31 85.60
  C 632.80 92.50 614.09 83.22 609.82 63.49
  C 605.62 44.05 612.42 22.51 635.81 22.21
  C 646.15 22.08 656.65 23.94 659.30 35.85
  Q 659.44 36.46 660.05 36.31
  L 663.19 35.57
  Q 663.71 35.45 663.60 34.92
  Q 662.12 27.93 661.98 20.27
  Q 661.97 19.72 661.44 19.55
  Q 647.53 14.96 633.34 16.18
  Q 621.96 17.17 613.40 23.08
  C 599.94 32.36 595.34 47.00 597.83 62.71
  Q 599.16 71.08 603.42 77.21
  C 613.51 91.76 630.63 95.10 647.42 92.09
  Q 654.81 90.76 661.89 89.11
  Q 662.42 88.98 662.38 88.43
  Q 661.55 76.37 662.32 66.13
  Q 662.75 60.50 668.75 61.33
  Q 668.98 61.36 668.98 61.13
  L 669.00 57.80
  A 0.20 0.20 0.0 0 0 668.80 57.60
  L 641.44 58.11
  Q 641.00 58.12 641.00 58.56
  L 641.00 60.68
  Q 641.00 61.23 641.56 61.23
  C 644.09 61.18 646.58 61.26 648.96 62.13
  C 650.82 62.82 651.57 65.08 651.76 66.82
  Q 652.60 74.43 651.87 84.85
  Q 651.83 85.41 651.31 85.60"
/>
<path stroke="#808080" vector-effect="non-scaling-stroke" d="
  M 508.22 24.60
  Q 508.38 42.79 508.09 67.27
  Q 507.98 75.97 507.66 82.09
  Q 507.33 88.47 499.16 87.82
  A 0.86 0.85 1.9 0 0 498.24 88.68
  L 498.26 90.13
  Q 498.27 91.00 499.13 91.00
  L 528.00 91.00
  A 0.25 0.24 -90.0 0 0 528.24 90.75
  L 528.25 88.28
  A 0.24 0.23 5.4 0 0 528.04 88.04
  C 522.54 87.51 519.03 88.07 518.76 81.02
  Q 518.07 63.07 518.36 43.76
  Q 518.51 33.71 518.49 24.57
  Q 518.49 24.06 519.00 24.05
  Q 524.17 23.92 531.83 24.32
  Q 541.38 24.82 541.84 33.53
  Q 541.89 34.45 542.80 34.30
  L 544.74 33.97
  Q 545.65 33.81 545.49 32.91
  Q 544.22 25.37 544.53 17.35
  A 0.26 0.26 0.0 0 0 544.19 17.10
  Q 539.97 18.50 535.77 18.61
  Q 515.60 19.12 494.15 18.75
  Q 487.55 18.64 482.80 17.25
  Q 482.17 17.06 482.15 17.72
  Q 481.94 25.56 480.27 33.09
  Q 480.09 33.92 480.92 34.12
  L 483.01 34.60
  Q 483.70 34.76 483.87 34.07
  C 484.92 29.71 486.28 25.53 491.02 24.76
  Q 497.13 23.77 507.65 24.02
  Q 508.21 24.04 508.22 24.60"
/>
<path stroke="#808080" vector-effect="non-scaling-stroke" d="
  M 211.20 60.27
  C 225.27 62.55 242.67 60.39 247.14 45.12
  C 249.00 38.73 248.21 30.89 243.55 25.72
  C 237.48 19.01 229.85 17.80 220.46 17.92
  Q 206.30 18.11 193.79 17.95
  Q 193.00 17.94 193.00 18.73
  L 193.00 21.20
  Q 193.00 21.73 193.53 21.72
  C 197.45 21.63 200.71 23.13 200.70 27.29
  Q 200.67 46.26 200.82 65.16
  C 200.86 70.32 201.12 75.02 200.58 80.48
  C 200.02 86.07 198.00 88.30 192.28 87.72
  Q 191.75 87.67 191.75 88.20
  L 191.75 90.50
  Q 191.75 91.00 192.25 91.00
  L 219.88 91.00
  Q 220.51 91.00 220.51 90.37
  L 220.50 88.52
  A 0.66 0.66 0.0 0 0 219.88 87.86
  C 216.52 87.65 212.20 87.80 211.26 83.75
  Q 210.59 80.86 210.55 78.31
  Q 210.44 69.89 210.52 60.85
  Q 210.52 60.16 211.20 60.27"
/>
<path stroke="#808080" vector-effect="non-scaling-stroke" d="
  M 72.88 94.17
  Q 72.38 96.48 71.59 98.79
  Q 65.24 117.23 59.19 136.22
  C 57.90 140.29 62.86 142.15 65.44 138.78
  Q 90.89 105.55 116.04 72.99
  Q 118.49 69.83 115.46 67.04
  A 0.80 0.80 0.0 0 0 114.92 66.83
  L 87.94 66.80
  Q 87.26 66.80 87.39 66.13
  Q 89.71 53.91 92.64 42.01
  C 94.07 36.24 94.96 30.26 96.40 24.48
  C 97.35 20.66 92.67 18.22 90.27 21.70
  Q 68.03 53.97 45.86 85.84
  C 44.52 87.76 42.66 89.81 44.11 92.33
  Q 45.01 93.91 46.89 93.90
  Q 61.60 93.87 72.65 93.90
  A 0.23 0.22 6.0 0 1 72.88 94.17"
/>
<path stroke="#808080" vector-effect="non-scaling-stroke" d="
  M 148.20 107.05
  C 155.56 107.84 161.03 103.62 160.98 95.84
  Q 160.88 78.38 161.04 60.07
  C 161.10 53.86 159.85 49.56 153.68 47.27
  C 151.95 46.64 149.97 46.73 148.13 46.79
  Q 147.39 46.82 147.44 46.08
  Q 148.10 35.19 139.76 29.33
  C 137.51 27.74 134.68 26.95 132.00 26.88
  Q 123.14 26.65 110.38 26.79
  A 2.74 2.74 0.0 0 0 108.82 27.30
  Q 106.89 28.70 107.11 30.20
  Q 107.57 33.37 110.76 33.40
  Q 120.65 33.52 130.10 33.38
  C 134.40 33.31 137.66 35.11 139.56 38.95
  C 141.25 42.36 140.63 46.49 140.72 50.19
  A 3.40 3.40 0.0 0 0 143.98 53.51
  C 146.90 53.64 154.19 52.18 154.19 57.14
  Q 154.19 78.31 154.18 97.10
  A 3.19 3.19 0.0 0 1 151.00 100.29
  L 144.27 100.32
  A 3.60 3.60 0.0 0 0 140.68 103.90
  C 140.66 107.33 141.20 111.46 139.75 114.56
  Q 136.87 120.72 129.76 120.71
  Q 114.00 120.67 97.31 120.71
  Q 94.14 120.71 93.93 123.87
  Q 93.88 124.49 94.11 125.12
  Q 94.88 127.29 97.19 127.30
  Q 110.07 127.33 121.92 127.31
  Q 132.83 127.28 133.59 127.11
  Q 140.19 125.64 143.80 120.93
  Q 147.93 115.52 147.44 107.77
  Q 147.39 106.96 148.20 107.05"
/>
<path stroke="#808080" vector-effect="non-scaling-stroke" d="
  M 265.6314 90.2883
  A 26.98 25.87 113.2 0 0 300.0380 75.6813
  A 26.98 25.87 113.2 0 0 286.8886 40.6917
  A 26.98 25.87 113.2 0 0 252.4820 55.2987
  A 26.98 25.87 113.2 0 0 265.6314 90.2883"
/>
<path stroke="#808080" vector-effect="non-scaling-stroke" d="
  M 401.57 62.39
  Q 403.74 62.15 405.77 62.12
  Q 421.24 61.87 435.60 62.05
  Q 436.26 62.06 436.22 61.40
  C 435.50 50.61 430.28 40.61 418.72 39.12
  C 389.63 35.38 381.53 81.41 406.40 90.62
  C 416.87 94.50 427.77 90.36 436.05 83.23
  Q 436.21 83.09 436.10 82.92
  L 434.11 79.70
  Q 433.99 79.51 433.81 79.64
  Q 425.44 85.46 416.75 84.75
  C 404.92 83.80 400.52 73.79 401.00 63.01
  Q 401.02 62.45 401.57 62.39"
/>
<path stroke="#808080" vector-effect="non-scaling-stroke" d="
  M 458.74 51.87
  Q 458.88 45.77 459.51 39.54
  A 0.47 0.47 0.0 0 0 458.88 39.05
  Q 451.35 41.94 444.14 43.62
  A 0.57 0.57 0.0 0 0 443.73 44.36
  Q 444.04 45.28 444.04 46.24
  Q 444.03 47.00 444.79 47.00
  L 447.77 47.00
  A 1.38 1.38 0.0 0 1 448.78 47.44
  Q 450.20 48.97 450.21 51.23
  Q 450.32 66.32 450.19 81.12
  Q 450.16 84.83 447.36 86.34
  C 446.11 87.00 444.53 86.62 443.14 86.98
  Q 442.74 87.09 442.74 87.50
  L 442.75 90.53
  Q 442.75 91.14 443.35 91.05
  C 451.33 89.92 459.57 89.91 467.60 91.07
  A 0.56 0.56 0.0 0 0 468.24 90.52
  L 468.26 87.54
  A 0.63 0.63 0.0 0 0 467.63 86.91
  C 464.33 86.88 460.45 86.90 459.73 82.74
  Q 459.30 80.29 459.28 78.00
  Q 459.20 69.01 458.92 60.03
  Q 458.85 57.93 459.88 56.29
  C 463.06 51.23 467.61 45.81 474.07 49.51
  C 476.36 50.81 479.47 49.17 479.93 46.74
  C 480.85 41.86 477.20 39.53 472.76 39.94
  C 466.55 40.52 462.24 46.93 459.22 52.01
  Q 458.72 52.85 458.74 51.87"
/>
<path stroke="#808080" vector-effect="non-scaling-stroke" d="
  M 552.6314 90.2883
  A 26.98 25.87 113.2 0 0 587.0380 75.6813
  A 26.98 25.87 113.2 0 0 573.8886 40.6917
  A 26.98 25.87 113.2 0 0 539.4820 55.2987
  A 26.98 25.87 113.2 0 0 552.6314 90.2883"
/>
<path stroke="#808080" vector-effect="non-scaling-stroke" d="
  M 690.6314 90.2883
  A 26.98 25.87 113.2 0 0 725.0380 75.6813
  A 26.98 25.87 113.2 0 0 711.8886 40.6917
  A 26.98 25.87 113.2 0 0 677.4820 55.2987
  A 26.98 25.87 113.2 0 0 690.6314 90.2883"
/>
<path stroke="#808080" vector-effect="non-scaling-stroke" d="
  M 332.61 78.71
  Q 332.21 79.55 331.90 78.68
  Q 326.95 64.66 322.11 51.05
  C 320.64 46.92 320.93 44.02 326.70 44.17
  Q 327.24 44.18 327.24 43.65
  L 327.26 41.51
  Q 327.26 41.00 326.76 41.00
  L 307.00 41.00
  Q 306.50 41.00 306.50 41.50
  L 306.50 43.50
  Q 306.50 44.00 306.99 44.10
  L 309.04 44.49
  Q 309.53 44.58 309.86 44.94
  Q 311.57 46.78 312.47 49.26
  Q 320.69 71.95 327.52 91.22
  Q 327.79 92.00 328.62 92.00
  L 330.91 92.01
  Q 331.64 92.01 331.91 91.33
  Q 338.63 74.90 347.33 59.08
  A 0.21 0.21 0.0 0 1 347.72 59.11
  L 359.31 91.31
  Q 359.56 92.02 360.31 92.01
  L 363.14 92.00
  A 0.82 0.82 0.0 0 0 363.90 91.49
  Q 372.52 69.85 382.03 48.04
  Q 383.77 44.04 387.23 44.22
  Q 387.73 44.24 387.74 43.74
  L 387.77 41.51
  A 0.51 0.51 0.0 0 0 387.26 41.00
  L 369.99 41.00
  Q 369.48 41.00 369.49 41.51
  L 369.51 43.67
  Q 369.51 43.95 369.79 44.01
  C 371.35 44.36 373.34 43.92 374.60 44.87
  Q 376.34 46.18 375.58 48.44
  Q 370.56 63.39 364.31 78.50
  Q 364.05 79.13 363.83 78.49
  Q 359.02 64.71 353.75 49.02
  Q 353.03 46.90 354.05 45.34
  C 354.91 44.00 357.10 44.24 358.51 43.96
  A 0.62 0.61 -6.2 0 0 359.01 43.35
  L 358.98 41.36
  Q 358.98 41.00 358.61 41.00
  L 337.50 41.00
  A 0.25 0.25 0.0 0 0 337.25 41.25
  L 337.24 43.70
  Q 337.24 43.96 337.50 43.99
  C 340.49 44.24 342.93 43.93 344.28 47.40
  Q 344.99 49.23 345.48 50.94
  Q 345.64 51.46 345.40 51.95
  L 332.61 78.71"
/>
<path stroke="#808080" vector-effect="non-scaling-stroke" d="
  M 275.43 128.34
  C 272.72 132.00 269.31 136.82 268.65 141.37
  Q 268.33 143.59 270.40 144.47
  Q 271.50 144.93 272.69 144.87
  Q 275.42 144.74 275.47 142.01
  C 275.57 136.93 278.44 133.20 281.08 128.62
  Q 281.36 128.15 281.87 127.93
  Q 282.48 127.68 283.15 127.66
  C 284.74 127.60 285.99 126.10 286.65 124.77
  A 0.77 0.77 0.0 0 0 286.02 123.66
  Q 285.52 123.62 285.10 123.38
  Q 284.59 123.08 284.92 122.60
  Q 289.54 115.74 293.44 109.59
  C 294.09 108.57 294.43 107.32 294.80 106.17
  A 2.42 2.42 0.0 0 0 293.39 103.17
  Q 289.18 101.49 285.43 104.58
  Q 277.17 111.40 267.38 120.63
  C 265.60 122.30 263.18 124.45 260.73 124.79
  Q 253.43 125.81 245.24 127.33
  C 240.45 128.22 237.47 138.96 238.42 142.83
  A 2.36 2.36 0.0 0 0 241.29 144.55
  C 250.03 142.34 258.38 135.61 265.34 129.80
  C 267.62 127.88 272.24 127.89 275.08 127.69
  Q 275.95 127.63 275.43 128.34"
/>
<path stroke="#808080" vector-effect="non-scaling-stroke" d="
  M 510.80 127.52
  Q 510.76 127.47 510.82 127.43
  Q 517.91 122.53 524.95 118.10
  C 526.93 116.86 528.03 115.31 528.05 112.91
  Q 528.09 107.35 525.30 103.94
  Q 523.17 101.34 520.31 103.64
  Q 516.50 106.71 513.15 111.12
  Q 505.51 121.20 501.08 132.58
  C 500.77 133.37 500.15 134.48 499.41 134.92
  C 494.47 137.84 476.43 144.38 480.50 130.16
  Q 483.62 119.23 493.94 111.82
  C 496.53 109.96 499.12 108.30 502.52 108.80
  A 0.70 0.70 0.0 0 1 502.93 109.97
  Q 501.82 111.14 501.12 112.53
  Q 500.79 113.17 501.05 113.83
  A 1.33 1.31 -13.1 0 0 502.37 114.64
  C 505.90 114.36 510.61 111.72 509.96 107.50
  C 509.30 103.18 503.67 102.62 500.19 103.36
  C 490.25 105.49 482.17 113.45 477.23 122.22
  C 473.46 128.94 470.48 141.66 480.71 144.15
  C 486.22 145.49 493.63 142.49 498.53 139.80
  Q 499.17 139.45 499.07 140.17
  C 498.76 142.49 499.47 144.84 502.25 144.70
  Q 503.19 144.65 503.36 143.73
  Q 504.78 136.06 512.29 130.43
  Q 513.65 129.41 515.37 129.06
  Q 516.44 128.84 516.82 129.88
  A 1.76 1.76 0.0 0 1 516.62 131.46
  C 515.05 133.78 512.79 136.74 512.12 139.48
  C 511.34 142.70 514.65 144.81 517.46 144.43
  Q 521.98 143.83 525.99 140.30
  Q 526.46 139.89 526.62 140.49
  C 528.11 145.88 535.22 145.32 538.26 141.82
  Q 538.53 141.51 538.75 141.85
  C 541.85 146.71 548.49 143.52 551.35 140.11
  Q 554.41 136.47 559.81 127.11
  A 0.26 0.25 29.2 0 1 560.15 127.02
  L 560.49 127.21
  Q 560.60 127.28 560.54 127.39
  Q 558.39 131.44 556.20 135.18
  Q 555.22 136.86 554.98 139.05
  C 554.62 142.24 558.09 144.39 560.86 144.06
  Q 564.75 143.59 568.13 140.06
  Q 568.63 139.54 568.84 140.23
  C 570.83 146.66 578.04 144.04 581.23 140.68
  Q 581.48 140.41 581.37 140.76
  C 580.02 144.96 578.18 150.31 574.53 152.96
  C 572.72 154.27 568.95 154.35 568.35 151.44
  C 568.01 149.78 568.94 148.31 569.69 146.93
  A 1.42 1.41 -74.1 0 0 568.53 144.83
  C 564.68 144.61 562.60 148.74 562.68 152.05
  C 562.80 156.77 566.93 159.54 571.37 159.20
  Q 579.32 158.57 582.83 150.65
  Q 586.45 142.46 590.07 133.29
  Q 590.65 131.81 589.05 131.35
  Q 588.96 131.32 586.94 130.74
  A 1.99 1.99 0.0 0 0 584.60 131.80
  Q 581.97 137.42 576.21 139.23
  A 1.48 1.47 72.8 0 1 574.35 138.24
  C 573.38 134.94 575.67 131.42 578.06 129.31
  Q 581.59 126.17 585.10 128.24
  Q 587.30 129.53 588.66 127.38
  L 588.84 127.10
  Q 590.33 124.76 587.82 123.57
  C 581.00 120.33 572.97 124.85 570.15 131.72
  C 569.16 134.15 565.50 139.00 562.10 138.71
  Q 561.41 138.65 561.37 137.95
  C 561.20 135.07 564.02 131.64 565.70 129.45
  Q 567.18 127.53 565.14 126.22
  L 561.31 123.76
  Q 560.93 123.51 561.02 123.07
  C 562.68 114.64 550.57 119.30 556.31 124.67
  Q 556.74 125.07 556.49 125.60
  Q 552.54 133.87 547.22 138.23
  Q 543.87 140.98 544.94 136.78
  Q 545.20 135.75 546.68 134.26
  Q 547.99 132.93 546.59 131.70
  Q 544.52 129.90 542.35 130.89
  Q 541.69 131.19 541.50 131.89
  Q 540.23 136.33 536.32 138.91
  C 534.36 140.21 531.81 139.41 532.02 136.76
  Q 532.48 131.05 537.72 128.02
  C 540.35 126.50 541.18 128.02 543.22 129.09
  A 2.25 2.25 0.0 0 0 546.24 128.16
  C 548.29 124.35 544.41 122.47 541.27 122.44
  C 534.57 122.37 529.34 127.55 526.94 133.62
  C 525.85 136.38 522.22 138.34 519.60 138.96
  A 0.81 0.81 0.0 0 1 518.71 137.76
  Q 521.09 133.78 523.35 129.93
  C 525.19 126.79 522.55 123.38 519.08 124.09
  Q 514.63 125.00 511.03 127.76
  A 0.06 0.06 0.0 0 1 510.94 127.75
  L 510.80 127.52"
/>
<path stroke="#808080" vector-effect="non-scaling-stroke" d="
  M 313.82 140.79
  Q 315.29 144.77 319.96 144.46
  C 328.45 143.90 332.28 135.15 333.99 127.92
  Q 334.64 125.18 332.10 123.95
  Q 331.56 123.69 330.99 123.65
  Q 328.66 123.51 328.21 125.81
  Q 327.45 129.63 326.42 132.97
  C 325.78 135.03 323.04 139.38 320.35 139.43
  A 1.83 1.82 89.9 0 1 318.49 137.57
  Q 318.55 133.90 321.70 129.62
  Q 323.31 127.44 321.04 125.96
  L 320.25 125.46
  A 2.99 2.99 0.0 0 0 315.76 127.11
  C 314.57 131.16 312.19 138.00 307.73 139.19
  C 305.63 139.75 304.80 137.59 305.59 135.93
  Q 307.57 131.77 310.47 127.61
  Q 312.14 125.20 309.61 123.73
  L 308.72 123.21
  Q 306.44 121.89 305.18 124.21
  Q 302.84 128.54 300.63 133.35
  C 299.28 136.28 295.47 137.99 292.45 138.81
  C 290.16 139.42 288.24 138.08 288.86 135.59
  Q 289.89 131.49 292.59 129.34
  Q 299.03 124.21 308.16 118.19
  C 313.10 114.94 310.88 107.30 307.89 103.78
  C 305.83 101.35 302.27 104.22 300.74 105.86
  Q 290.02 117.37 284.31 131.58
  C 278.95 144.93 290.95 147.63 299.13 140.49
  A 0.40 0.40 0.0 0 1 299.77 140.65
  Q 300.86 143.67 303.91 144.23
  Q 309.13 145.20 313.18 140.67
  Q 313.60 140.20 313.82 140.79"
/>
<path stroke="#808080" vector-effect="non-scaling-stroke" d="
  M 421.86 139.50
  C 417.69 138.94 420.63 132.80 421.58 130.88
  Q 423.65 126.70 428.67 123.93
  Q 434.04 120.97 439.20 117.98
  Q 441.56 116.62 441.72 114.00
  C 441.92 110.66 440.99 106.42 438.56 103.85
  C 433.29 98.30 419.22 123.26 417.42 126.63
  C 415.13 130.92 412.82 136.32 414.66 141.00
  C 416.50 145.70 423.34 144.69 426.92 142.88
  Q 432.09 140.26 434.62 133.43
  Q 435.66 130.63 434.85 127.90
  C 433.12 122.01 425.17 125.98 429.27 131.68
  A 1.64 1.64 0.0 0 1 429.45 133.28
  C 428.40 135.74 425.02 139.91 421.86 139.50"
/>
<path stroke="#808080" vector-effect="non-scaling-stroke" d="
  M 629.63 125.01
  Q 627.50 122.67 624.06 122.95
  Q 614.67 123.74 610.97 133.77
  C 609.55 137.63 603.19 139.80 599.83 139.76
  A 3.61 3.60 -17.1 0 1 596.91 138.22
  Q 596.54 137.70 596.42 137.04
  Q 596.20 135.75 597.50 135.90
  C 603.68 136.64 613.01 133.98 611.63 126.00
  C 610.73 120.85 602.68 122.18 599.64 123.82
  C 594.62 126.52 588.07 134.88 591.64 141.09
  Q 593.57 144.46 598.38 144.51
  Q 604.78 144.58 610.03 140.33
  A 0.38 0.38 0.0 0 1 610.62 140.48
  C 613.15 146.87 620.80 145.34 624.68 141.37
  Q 625.01 141.04 625.38 141.32
  Q 625.58 141.46 625.52 141.70
  Q 625.36 142.29 625.72 142.78
  C 628.80 146.91 635.19 142.81 637.81 140.07
  A 1.75 1.75 0.0 0 0 636.40 137.12
  C 634.51 137.27 633.60 138.92 631.37 139.01
  Q 630.70 139.04 630.71 138.38
  Q 630.75 136.26 631.63 134.22
  Q 637.11 121.50 644.08 112.36
  Q 646.02 109.82 643.74 107.59
  Q 643.47 107.33 643.17 107.11
  Q 640.59 105.22 639.11 108.06
  L 630.32 124.92
  Q 630.04 125.46 629.63 125.01"
/>
<path stroke="#808080" vector-effect="non-scaling-stroke" d="
  M 369.75 142.81
  C 368.74 145.99 364.47 155.62 360.00 153.78
  C 356.99 152.55 358.46 149.05 359.29 146.87
  A 1.39 1.38 -83.2 0 0 357.82 145.00
  C 352.70 145.68 350.87 151.92 353.62 155.80
  Q 356.59 159.99 361.99 159.02
  C 369.40 157.70 372.62 149.61 374.68 143.19
  Q 377.32 134.99 382.00 127.36
  Q 382.27 126.93 382.03 126.48
  Q 380.62 123.87 377.68 123.52
  A 1.20 1.19 10.1 0 0 376.38 124.42
  C 375.13 129.48 370.66 138.64 365.08 139.26
  A 1.44 1.44 0.0 0 1 363.48 137.91
  C 363.27 134.05 366.01 130.41 368.36 127.56
  Q 370.03 125.54 367.90 124.01
  L 366.26 122.83
  Q 364.62 121.66 363.60 123.39
  Q 359.76 129.93 357.30 136.47
  Q 356.70 138.06 355.09 138.61
  Q 354.85 138.69 353.85 139.02
  Q 352.19 139.58 352.62 137.88
  Q 353.09 136.01 354.62 134.32
  Q 356.13 132.66 354.26 131.42
  Q 353.47 130.89 352.54 130.65
  Q 350.24 130.05 349.39 132.27
  C 348.15 135.48 346.41 138.15 343.07 139.43
  A 2.16 2.15 66.4 0 1 340.37 138.37
  Q 339.82 137.27 340.05 136.02
  Q 341.06 130.54 345.86 127.95
  C 348.53 126.51 349.24 128.12 351.29 129.11
  A 2.30 2.29 -61.0 0 0 354.21 128.27
  Q 355.32 126.53 354.37 124.71
  C 353.13 122.33 348.82 122.21 346.67 122.67
  C 340.33 124.01 334.22 130.98 334.20 137.80
  C 334.19 145.24 342.10 146.45 346.27 141.81
  A 0.34 0.34 0.0 0 1 346.83 141.88
  C 348.87 145.71 354.12 144.38 356.91 142.20
  A 1.06 1.06 0.0 0 1 358.28 142.26
  C 361.04 144.82 365.93 145.15 369.26 142.48
  Q 370.05 141.85 369.75 142.81"
/>
<path stroke="#808080" vector-effect="non-scaling-stroke" d="
  M 395.48 127.89
  L 394.08 128.45
  A 1.34 1.34 0.0 0 0 393.87 130.82
  C 396.47 132.47 400.59 131.08 400.63 127.78
  C 400.68 124.50 397.64 122.63 394.70 122.31
  Q 388.37 121.62 385.05 125.91
  C 381.29 130.78 386.69 133.98 389.96 136.53
  A 1.51 1.51 0.0 0 1 389.79 139.02
  C 387.52 140.35 382.52 139.16 384.13 135.55
  A 1.98 1.97 11.2 0 0 382.27 132.78
  Q 380.69 132.82 379.71 134.25
  C 377.05 138.15 380.36 142.57 384.34 143.82
  Q 388.78 145.22 393.19 143.26
  C 396.98 141.58 398.42 137.59 394.64 134.58
  C 392.75 133.08 387.96 130.24 390.46 127.53
  Q 392.42 125.40 395.48 126.62
  Q 397.06 127.25 395.48 127.89"
/>
<path stroke="#808080" vector-effect="non-scaling-stroke" d="
  M 441.42 135.91
  C 447.58 136.71 456.99 133.96 455.65 126.02
  C 455.16 123.13 451.95 122.25 449.46 122.31
  C 442.82 122.46 437.85 127.39 435.34 133.58
  C 433.69 137.64 434.95 142.95 439.48 144.07
  C 446.13 145.71 452.67 142.33 457.25 137.66
  Q 458.28 136.61 457.70 135.25
  L 457.42 134.60
  A 1.04 1.04 0.0 0 0 455.81 134.20
  C 452.18 137.10 448.48 140.04 443.58 139.72
  A 3.59 3.57 72.3 0 1 441.02 138.39
  Q 440.52 137.76 440.41 136.92
  Q 440.26 135.76 441.42 135.91"
/>
<path stroke="#808080" vector-effect="non-scaling-stroke" d="
  M 231.21 26.58
  C 225.75 22.51 217.65 22.67 211.21 23.96
  Q 210.66 24.07 210.65 24.63
  L 210.44 54.37
  Q 210.43 54.90 210.95 55.01
  C 221.22 57.13 234.54 55.60 236.97 43.56
  Q 239.20 32.53 231.21 26.58"
/>
<path stroke="#808080" vector-effect="non-scaling-stroke" d="
  M 80.72 88.76
  A 2.57 2.53 -53.7 0 1 81.05 91.02
  L 72.18 117.98
  Q 71.63 119.66 72.71 118.26
  L 106.41 74.50
  Q 107.15 73.53 105.93 73.53
  L 82.81 73.53
  A 3.21 3.20 -83.8 0 1 79.68 69.64
  L 86.17 39.77
  Q 86.28 39.26 85.99 39.69
  L 53.47 86.71
  A 0.26 0.26 0.0 0 0 53.69 87.12
  Q 65.89 87.06 77.45 87.13
  Q 79.58 87.14 80.72 88.76"
/>
<path stroke="#808080" vector-effect="non-scaling-stroke" d="
  M 290.32 55.01
  C 287.52 47.81 280.98 43.30 272.92 44.36
  C 266.98 45.15 262.37 50.10 261.07 55.75
  Q 258.53 66.86 263.10 76.98
  C 266.09 83.63 271.97 87.88 279.57 86.61
  Q 287.58 85.27 290.82 77.17
  Q 294.94 66.88 290.32 55.01"
/>
<path stroke="#808080" vector-effect="non-scaling-stroke" d="
  M 426.23 56.34
  C 425.06 52.42 423.46 48.60 420.16 46.17
  Q 415.45 42.68 409.76 45.17
  C 404.98 47.26 402.27 52.95 401.43 57.95
  Q 401.34 58.47 401.87 58.48
  Q 414.29 58.73 425.67 57.20
  A 0.68 0.67 78.2 0 0 426.23 56.34"
/>
<path stroke="#808080" vector-effect="non-scaling-stroke" d="
  M 577.34 54.98
  C 574.78 48.83 569.52 44.22 562.41 44.18
  C 554.74 44.14 549.23 49.52 547.83 56.73
  C 545.95 66.44 548.54 83.80 560.59 86.44
  C 569.19 88.32 576.43 83.31 578.62 74.99
  Q 581.36 64.62 577.34 54.98"
/>
<path stroke="#808080" vector-effect="non-scaling-stroke" d="
  M 715.35 55.01
  C 713.28 49.72 708.35 44.94 702.34 44.29
  C 692.14 43.19 685.99 50.65 685.31 60.05
  C 684.69 68.74 686.60 78.11 693.29 83.83
  Q 695.94 86.10 699.10 86.54
  Q 711.16 88.22 715.70 77.36
  Q 720.04 67.01 715.35 55.01"
/>
<path stroke="#808080" vector-effect="non-scaling-stroke" d="
  M 287.18 110.30
  Q 288.70 108.00 286.61 109.79
  Q 280.09 115.36 271.83 123.76
  Q 271.76 123.84 271.87 123.83
  L 277.73 123.53
  A 0.53 0.52 15.3 0 0 278.11 123.32
  Q 282.70 117.06 287.18 110.30"
/>
<path stroke="#808080" vector-effect="non-scaling-stroke" d="
  M 243.68 137.67
  Q 243.13 138.92 244.37 138.36
  Q 250.64 135.53 256.32 130.35
  Q 257.09 129.65 256.06 129.83
  Q 251.65 130.57 247.34 131.99
  Q 246.04 132.41 245.48 133.66
  L 243.68 137.67"
/>
<path stroke="#808080" vector-effect="non-scaling-stroke" d="
  M 523.12 110.01
  Q 522.90 109.52 522.81 108.99
  Q 522.67 108.16 522.09 108.77
  Q 516.07 115.19 511.42 122.69
  Q 510.85 123.62 511.77 123.04
  Q 516.81 119.88 521.74 115.82
  C 523.60 114.29 524.07 112.16 523.12 110.01"
/>
<path stroke="#808080" vector-effect="non-scaling-stroke" d="
  M 294.61 122.49
  Q 293.73 123.88 295.12 123.00
  Q 300.41 119.65 305.17 115.53
  Q 306.76 114.15 306.42 112.07
  Q 306.26 111.09 306.11 110.07
  Q 305.82 108.07 304.46 109.56
  Q 299.16 115.33 294.61 122.49"
/>
<path stroke="#808080" vector-effect="non-scaling-stroke" d="
  M 426.67 120.32
  A 0.56 0.56 0.0 0 0 427.41 121.13
  L 436.44 115.29
  A 0.56 0.56 0.0 0 0 436.67 114.99
  L 437.32 113.02
  A 0.56 0.56 0.0 0 0 437.32 112.68
  L 436.33 109.42
  A 0.56 0.56 0.0 0 0 435.36 109.24
  L 426.67 120.32"
/>
<path stroke="#808080" vector-effect="non-scaling-stroke" d="
  M 605.94 127.34
  C 602.86 126.12 599.85 129.12 598.14 131.46
  A 0.29 0.28 22.3 0 0 598.33 131.91
  Q 602.49 132.48 605.65 131.01
  A 2.39 2.38 -7.3 0 0 607.00 129.27
  Q 607.25 127.86 605.94 127.34"
/>
<path stroke="#808080" vector-effect="non-scaling-stroke" d="
  M 617.0163 139.2418
  A 7.05 3.90 126.3 0 0 624.3331 135.8689
  A 7.05 3.90 126.3 0 0 625.3637 127.8782
  A 7.05 3.90 126.3 0 0 618.0469 131.2511
  A 7.05 3.90 126.3 0 0 617.0163 139.2418"
/>
<path stroke="#808080" vector-effect="non-scaling-stroke" d="
  M 449.91 127.33
  C 446.84 126.14 443.84 129.13 442.14 131.46
  A 0.28 0.27 -67.8 0 0 442.32 131.90
  Q 446.49 132.48 449.65 131.01
  A 2.41 2.40 -7.1 0 0 451.00 129.28
  Q 451.26 127.85 449.91 127.33"
/>
</g>
<path fill="#ffffff" d="
  M 0.00 0.00
  L 731.00 0.00
  L 731.00 176.00
  L 0.00 176.00
  L 0.00 112.52
  Q 1.62 122.31 10.06 125.94
  Q 13.58 127.46 18.45 127.38
  Q 30.46 127.21 42.82 127.34
  Q 45.53 127.36 46.62 124.88
  Q 46.87 124.32 46.75 123.74
  Q 46.12 120.78 43.09 120.74
  Q 31.21 120.58 19.04 120.77
  Q 15.18 120.83 12.89 119.86
  C 9.57 118.44 6.50 114.86 6.49 110.98
  Q 6.44 79.67 6.47 43.21
  C 6.47 39.67 8.68 36.61 11.53 34.75
  Q 13.57 33.41 16.69 33.42
  Q 43.55 33.46 63.51 33.42
  Q 66.80 33.42 66.78 30.12
  L 66.78 29.61
  Q 66.76 26.83 63.98 26.81
  Q 41.19 26.69 15.84 26.82
  C 7.71 26.86 1.11 33.39 0.00 41.19
  L 0.00 0.00
  Z
  M 651.31 85.60
  C 632.80 92.50 614.09 83.22 609.82 63.49
  C 605.62 44.05 612.42 22.51 635.81 22.21
  C 646.15 22.08 656.65 23.94 659.30 35.85
  Q 659.44 36.46 660.05 36.31
  L 663.19 35.57
  Q 663.71 35.45 663.60 34.92
  Q 662.12 27.93 661.98 20.27
  Q 661.97 19.72 661.44 19.55
  Q 647.53 14.96 633.34 16.18
  Q 621.96 17.17 613.40 23.08
  C 599.94 32.36 595.34 47.00 597.83 62.71
  Q 599.16 71.08 603.42 77.21
  C 613.51 91.76 630.63 95.10 647.42 92.09
  Q 654.81 90.76 661.89 89.11
  Q 662.42 88.98 662.38 88.43
  Q 661.55 76.37 662.32 66.13
  Q 662.75 60.50 668.75 61.33
  Q 668.98 61.36 668.98 61.13
  L 669.00 57.80
  A 0.20 0.20 0.0 0 0 668.80 57.60
  L 641.44 58.11
  Q 641.00 58.12 641.00 58.56
  L 641.00 60.68
  Q 641.00 61.23 641.56 61.23
  C 644.09 61.18 646.58 61.26 648.96 62.13
  C 650.82 62.82 651.57 65.08 651.76 66.82
  Q 652.60 74.43 651.87 84.85
  Q 651.83 85.41 651.31 85.60
  Z
  M 508.22 24.60
  Q 508.38 42.79 508.09 67.27
  Q 507.98 75.97 507.66 82.09
  Q 507.33 88.47 499.16 87.82
  A 0.86 0.85 1.9 0 0 498.24 88.68
  L 498.26 90.13
  Q 498.27 91.00 499.13 91.00
  L 528.00 91.00
  A 0.25 0.24 -90.0 0 0 528.24 90.75
  L 528.25 88.28
  A 0.24 0.23 5.4 0 0 528.04 88.04
  C 522.54 87.51 519.03 88.07 518.76 81.02
  Q 518.07 63.07 518.36 43.76
  Q 518.51 33.71 518.49 24.57
  Q 518.49 24.06 519.00 24.05
  Q 524.17 23.92 531.83 24.32
  Q 541.38 24.82 541.84 33.53
  Q 541.89 34.45 542.80 34.30
  L 544.74 33.97
  Q 545.65 33.81 545.49 32.91
  Q 544.22 25.37 544.53 17.35
  A 0.26 0.26 0.0 0 0 544.19 17.10
  Q 539.97 18.50 535.77 18.61
  Q 515.60 19.12 494.15 18.75
  Q 487.55 18.64 482.80 17.25
  Q 482.17 17.06 482.15 17.72
  Q 481.94 25.56 480.27 33.09
  Q 480.09 33.92 480.92 34.12
  L 483.01 34.60
  Q 483.70 34.76 483.87 34.07
  C 484.92 29.71 486.28 25.53 491.02 24.76
  Q 497.13 23.77 507.65 24.02
  Q 508.21 24.04 508.22 24.60
  Z
  M 211.20 60.27
  C 225.27 62.55 242.67 60.39 247.14 45.12
  C 249.00 38.73 248.21 30.89 243.55 25.72
  C 237.48 19.01 229.85 17.80 220.46 17.92
  Q 206.30 18.11 193.79 17.95
  Q 193.00 17.94 193.00 18.73
  L 193.00 21.20
  Q 193.00 21.73 193.53 21.72
  C 197.45 21.63 200.71 23.13 200.70 27.29
  Q 200.67 46.26 200.82 65.16
  C 200.86 70.32 201.12 75.02 200.58 80.48
  C 200.02 86.07 198.00 88.30 192.28 87.72
  Q 191.75 87.67 191.75 88.20
  L 191.75 90.50
  Q 191.75 91.00 192.25 91.00
  L 219.88 91.00
  Q 220.51 91.00 220.51 90.37
  L 220.50 88.52
  A 0.66 0.66 0.0 0 0 219.88 87.86
  C 216.52 87.65 212.20 87.80 211.26 83.75
  Q 210.59 80.86 210.55 78.31
  Q 210.44 69.89 210.52 60.85
  Q 210.52 60.16 211.20 60.27
  Z
  M 72.88 94.17
  Q 72.38 96.48 71.59 98.79
  Q 65.24 117.23 59.19 136.22
  C 57.90 140.29 62.86 142.15 65.44 138.78
  Q 90.89 105.55 116.04 72.99
  Q 118.49 69.83 115.46 67.04
  A 0.80 0.80 0.0 0 0 114.92 66.83
  L 87.94 66.80
  Q 87.26 66.80 87.39 66.13
  Q 89.71 53.91 92.64 42.01
  C 94.07 36.24 94.96 30.26 96.40 24.48
  C 97.35 20.66 92.67 18.22 90.27 21.70
  Q 68.03 53.97 45.86 85.84
  C 44.52 87.76 42.66 89.81 44.11 92.33
  Q 45.01 93.91 46.89 93.90
  Q 61.60 93.87 72.65 93.90
  A 0.23 0.22 6.0 0 1 72.88 94.17
  Z
  M 148.20 107.05
  C 155.56 107.84 161.03 103.62 160.98 95.84
  Q 160.88 78.38 161.04 60.07
  C 161.10 53.86 159.85 49.56 153.68 47.27
  C 151.95 46.64 149.97 46.73 148.13 46.79
  Q 147.39 46.82 147.44 46.08
  Q 148.10 35.19 139.76 29.33
  C 137.51 27.74 134.68 26.95 132.00 26.88
  Q 123.14 26.65 110.38 26.79
  A 2.74 2.74 0.0 0 0 108.82 27.30
  Q 106.89 28.70 107.11 30.20
  Q 107.57 33.37 110.76 33.40
  Q 120.65 33.52 130.10 33.38
  C 134.40 33.31 137.66 35.11 139.56 38.95
  C 141.25 42.36 140.63 46.49 140.72 50.19
  A 3.40 3.40 0.0 0 0 143.98 53.51
  C 146.90 53.64 154.19 52.18 154.19 57.14
  Q 154.19 78.31 154.18 97.10
  A 3.19 3.19 0.0 0 1 151.00 100.29
  L 144.27 100.32
  A 3.60 3.60 0.0 0 0 140.68 103.90
  C 140.66 107.33 141.20 111.46 139.75 114.56
  Q 136.87 120.72 129.76 120.71
  Q 114.00 120.67 97.31 120.71
  Q 94.14 120.71 93.93 123.87
  Q 93.88 124.49 94.11 125.12
  Q 94.88 127.29 97.19 127.30
  Q 110.07 127.33 121.92 127.31
  Q 132.83 127.28 133.59 127.11
  Q 140.19 125.64 143.80 120.93
  Q 147.93 115.52 147.44 107.77
  Q 147.39 106.96 148.20 107.05
  Z
  M 265.6314 90.2883
  A 26.98 25.87 113.2 0 0 300.0380 75.6813
  A 26.98 25.87 113.2 0 0 286.8886 40.6917
  A 26.98 25.87 113.2 0 0 252.4820 55.2987
  A 26.98 25.87 113.2 0 0 265.6314 90.2883
  Z
  M 401.57 62.39
  Q 403.74 62.15 405.77 62.12
  Q 421.24 61.87 435.60 62.05
  Q 436.26 62.06 436.22 61.40
  C 435.50 50.61 430.28 40.61 418.72 39.12
  C 389.63 35.38 381.53 81.41 406.40 90.62
  C 416.87 94.50 427.77 90.36 436.05 83.23
  Q 436.21 83.09 436.10 82.92
  L 434.11 79.70
  Q 433.99 79.51 433.81 79.64
  Q 425.44 85.46 416.75 84.75
  C 404.92 83.80 400.52 73.79 401.00 63.01
  Q 401.02 62.45 401.57 62.39
  Z
  M 458.74 51.87
  Q 458.88 45.77 459.51 39.54
  A 0.47 0.47 0.0 0 0 458.88 39.05
  Q 451.35 41.94 444.14 43.62
  A 0.57 0.57 0.0 0 0 443.73 44.36
  Q 444.04 45.28 444.04 46.24
  Q 444.03 47.00 444.79 47.00
  L 447.77 47.00
  A 1.38 1.38 0.0 0 1 448.78 47.44
  Q 450.20 48.97 450.21 51.23
  Q 450.32 66.32 450.19 81.12
  Q 450.16 84.83 447.36 86.34
  C 446.11 87.00 444.53 86.62 443.14 86.98
  Q 442.74 87.09 442.74 87.50
  L 442.75 90.53
  Q 442.75 91.14 443.35 91.05
  C 451.33 89.92 459.57 89.91 467.60 91.07
  A 0.56 0.56 0.0 0 0 468.24 90.52
  L 468.26 87.54
  A 0.63 0.63 0.0 0 0 467.63 86.91
  C 464.33 86.88 460.45 86.90 459.73 82.74
  Q 459.30 80.29 459.28 78.00
  Q 459.20 69.01 458.92 60.03
  Q 458.85 57.93 459.88 56.29
  C 463.06 51.23 467.61 45.81 474.07 49.51
  C 476.36 50.81 479.47 49.17 479.93 46.74
  C 480.85 41.86 477.20 39.53 472.76 39.94
  C 466.55 40.52 462.24 46.93 459.22 52.01
  Q 458.72 52.85 458.74 51.87
  Z
  M 552.6314 90.2883
  A 26.98 25.87 113.2 0 0 587.0380 75.6813
  A 26.98 25.87 113.2 0 0 573.8886 40.6917
  A 26.98 25.87 113.2 0 0 539.4820 55.2987
  A 26.98 25.87 113.2 0 0 552.6314 90.2883
  Z
  M 690.6314 90.2883
  A 26.98 25.87 113.2 0 0 725.0380 75.6813
  A 26.98 25.87 113.2 0 0 711.8886 40.6917
  A 26.98 25.87 113.2 0 0 677.4820 55.2987
  A 26.98 25.87 113.2 0 0 690.6314 90.2883
  Z
  M 332.61 78.71
  Q 332.21 79.55 331.90 78.68
  Q 326.95 64.66 322.11 51.05
  C 320.64 46.92 320.93 44.02 326.70 44.17
  Q 327.24 44.18 327.24 43.65
  L 327.26 41.51
  Q 327.26 41.00 326.76 41.00
  L 307.00 41.00
  Q 306.50 41.00 306.50 41.50
  L 306.50 43.50
  Q 306.50 44.00 306.99 44.10
  L 309.04 44.49
  Q 309.53 44.58 309.86 44.94
  Q 311.57 46.78 312.47 49.26
  Q 320.69 71.95 327.52 91.22
  Q 327.79 92.00 328.62 92.00
  L 330.91 92.01
  Q 331.64 92.01 331.91 91.33
  Q 338.63 74.90 347.33 59.08
  A 0.21 0.21 0.0 0 1 347.72 59.11
  L 359.31 91.31
  Q 359.56 92.02 360.31 92.01
  L 363.14 92.00
  A 0.82 0.82 0.0 0 0 363.90 91.49
  Q 372.52 69.85 382.03 48.04
  Q 383.77 44.04 387.23 44.22
  Q 387.73 44.24 387.74 43.74
  L 387.77 41.51
  A 0.51 0.51 0.0 0 0 387.26 41.00
  L 369.99 41.00
  Q 369.48 41.00 369.49 41.51
  L 369.51 43.67
  Q 369.51 43.95 369.79 44.01
  C 371.35 44.36 373.34 43.92 374.60 44.87
  Q 376.34 46.18 375.58 48.44
  Q 370.56 63.39 364.31 78.50
  Q 364.05 79.13 363.83 78.49
  Q 359.02 64.71 353.75 49.02
  Q 353.03 46.90 354.05 45.34
  C 354.91 44.00 357.10 44.24 358.51 43.96
  A 0.62 0.61 -6.2 0 0 359.01 43.35
  L 358.98 41.36
  Q 358.98 41.00 358.61 41.00
  L 337.50 41.00
  A 0.25 0.25 0.0 0 0 337.25 41.25
  L 337.24 43.70
  Q 337.24 43.96 337.50 43.99
  C 340.49 44.24 342.93 43.93 344.28 47.40
  Q 344.99 49.23 345.48 50.94
  Q 345.64 51.46 345.40 51.95
  L 332.61 78.71
  Z
  M 275.43 128.34
  C 272.72 132.00 269.31 136.82 268.65 141.37
  Q 268.33 143.59 270.40 144.47
  Q 271.50 144.93 272.69 144.87
  Q 275.42 144.74 275.47 142.01
  C 275.57 136.93 278.44 133.20 281.08 128.62
  Q 281.36 128.15 281.87 127.93
  Q 282.48 127.68 283.15 127.66
  C 284.74 127.60 285.99 126.10 286.65 124.77
  A 0.77 0.77 0.0 0 0 286.02 123.66
  Q 285.52 123.62 285.10 123.38
  Q 284.59 123.08 284.92 122.60
  Q 289.54 115.74 293.44 109.59
  C 294.09 108.57 294.43 107.32 294.80 106.17
  A 2.42 2.42 0.0 0 0 293.39 103.17
  Q 289.18 101.49 285.43 104.58
  Q 277.17 111.40 267.38 120.63
  C 265.60 122.30 263.18 124.45 260.73 124.79
  Q 253.43 125.81 245.24 127.33
  C 240.45 128.22 237.47 138.96 238.42 142.83
  A 2.36 2.36 0.0 0 0 241.29 144.55
  C 250.03 142.34 258.38 135.61 265.34 129.80
  C 267.62 127.88 272.24 127.89 275.08 127.69
  Q 275.95 127.63 275.43 128.34
  Z
  M 510.80 127.52
  Q 510.76 127.47 510.82 127.43
  Q 517.91 122.53 524.95 118.10
  C 526.93 116.86 528.03 115.31 528.05 112.91
  Q 528.09 107.35 525.30 103.94
  Q 523.17 101.34 520.31 103.64
  Q 516.50 106.71 513.15 111.12
  Q 505.51 121.20 501.08 132.58
  C 500.77 133.37 500.15 134.48 499.41 134.92
  C 494.47 137.84 476.43 144.38 480.50 130.16
  Q 483.62 119.23 493.94 111.82
  C 496.53 109.96 499.12 108.30 502.52 108.80
  A 0.70 0.70 0.0 0 1 502.93 109.97
  Q 501.82 111.14 501.12 112.53
  Q 500.79 113.17 501.05 113.83
  A 1.33 1.31 -13.1 0 0 502.37 114.64
  C 505.90 114.36 510.61 111.72 509.96 107.50
  C 509.30 103.18 503.67 102.62 500.19 103.36
  C 490.25 105.49 482.17 113.45 477.23 122.22
  C 473.46 128.94 470.48 141.66 480.71 144.15
  C 486.22 145.49 493.63 142.49 498.53 139.80
  Q 499.17 139.45 499.07 140.17
  C 498.76 142.49 499.47 144.84 502.25 144.70
  Q 503.19 144.65 503.36 143.73
  Q 504.78 136.06 512.29 130.43
  Q 513.65 129.41 515.37 129.06
  Q 516.44 128.84 516.82 129.88
  A 1.76 1.76 0.0 0 1 516.62 131.46
  C 515.05 133.78 512.79 136.74 512.12 139.48
  C 511.34 142.70 514.65 144.81 517.46 144.43
  Q 521.98 143.83 525.99 140.30
  Q 526.46 139.89 526.62 140.49
  C 528.11 145.88 535.22 145.32 538.26 141.82
  Q 538.53 141.51 538.75 141.85
  C 541.85 146.71 548.49 143.52 551.35 140.11
  Q 554.41 136.47 559.81 127.11
  A 0.26 0.25 29.2 0 1 560.15 127.02
  L 560.49 127.21
  Q 560.60 127.28 560.54 127.39
  Q 558.39 131.44 556.20 135.18
  Q 555.22 136.86 554.98 139.05
  C 554.62 142.24 558.09 144.39 560.86 144.06
  Q 564.75 143.59 568.13 140.06
  Q 568.63 139.54 568.84 140.23
  C 570.83 146.66 578.04 144.04 581.23 140.68
  Q 581.48 140.41 581.37 140.76
  C 580.02 144.96 578.18 150.31 574.53 152.96
  C 572.72 154.27 568.95 154.35 568.35 151.44
  C 568.01 149.78 568.94 148.31 569.69 146.93
  A 1.42 1.41 -74.1 0 0 568.53 144.83
  C 564.68 144.61 562.60 148.74 562.68 152.05
  C 562.80 156.77 566.93 159.54 571.37 159.20
  Q 579.32 158.57 582.83 150.65
  Q 586.45 142.46 590.07 133.29
  Q 590.65 131.81 589.05 131.35
  Q 588.96 131.32 586.94 130.74
  A 1.99 1.99 0.0 0 0 584.60 131.80
  Q 581.97 137.42 576.21 139.23
  A 1.48 1.47 72.8 0 1 574.35 138.24
  C 573.38 134.94 575.67 131.42 578.06 129.31
  Q 581.59 126.17 585.10 128.24
  Q 587.30 129.53 588.66 127.38
  L 588.84 127.10
  Q 590.33 124.76 587.82 123.57
  C 581.00 120.33 572.97 124.85 570.15 131.72
  C 569.16 134.15 565.50 139.00 562.10 138.71
  Q 561.41 138.65 561.37 137.95
  C 561.20 135.07 564.02 131.64 565.70 129.45
  Q 567.18 127.53 565.14 126.22
  L 561.31 123.76
  Q 560.93 123.51 561.02 123.07
  C 562.68 114.64 550.57 119.30 556.31 124.67
  Q 556.74 125.07 556.49 125.60
  Q 552.54 133.87 547.22 138.23
  Q 543.87 140.98 544.94 136.78
  Q 545.20 135.75 546.68 134.26
  Q 547.99 132.93 546.59 131.70
  Q 544.52 129.90 542.35 130.89
  Q 541.69 131.19 541.50 131.89
  Q 540.23 136.33 536.32 138.91
  C 534.36 140.21 531.81 139.41 532.02 136.76
  Q 532.48 131.05 537.72 128.02
  C 540.35 126.50 541.18 128.02 543.22 129.09
  A 2.25 2.25 0.0 0 0 546.24 128.16
  C 548.29 124.35 544.41 122.47 541.27 122.44
  C 534.57 122.37 529.34 127.55 526.94 133.62
  C 525.85 136.38 522.22 138.34 519.60 138.96
  A 0.81 0.81 0.0 0 1 518.71 137.76
  Q 521.09 133.78 523.35 129.93
  C 525.19 126.79 522.55 123.38 519.08 124.09
  Q 514.63 125.00 511.03 127.76
  A 0.06 0.06 0.0 0 1 510.94 127.75
  L 510.80 127.52
  Z
  M 313.82 140.79
  Q 315.29 144.77 319.96 144.46
  C 328.45 143.90 332.28 135.15 333.99 127.92
  Q 334.64 125.18 332.10 123.95
  Q 331.56 123.69 330.99 123.65
  Q 328.66 123.51 328.21 125.81
  Q 327.45 129.63 326.42 132.97
  C 325.78 135.03 323.04 139.38 320.35 139.43
  A 1.83 1.82 89.9 0 1 318.49 137.57
  Q 318.55 133.90 321.70 129.62
  Q 323.31 127.44 321.04 125.96
  L 320.25 125.46
  A 2.99 2.99 0.0 0 0 315.76 127.11
  C 314.57 131.16 312.19 138.00 307.73 139.19
  C 305.63 139.75 304.80 137.59 305.59 135.93
  Q 307.57 131.77 310.47 127.61
  Q 312.14 125.20 309.61 123.73
  L 308.72 123.21
  Q 306.44 121.89 305.18 124.21
  Q 302.84 128.54 300.63 133.35
  C 299.28 136.28 295.47 137.99 292.45 138.81
  C 290.16 139.42 288.24 138.08 288.86 135.59
  Q 289.89 131.49 292.59 129.34
  Q 299.03 124.21 308.16 118.19
  C 313.10 114.94 310.88 107.30 307.89 103.78
  C 305.83 101.35 302.27 104.22 300.74 105.86
  Q 290.02 117.37 284.31 131.58
  C 278.95 144.93 290.95 147.63 299.13 140.49
  A 0.40 0.40 0.0 0 1 299.77 140.65
  Q 300.86 143.67 303.91 144.23
  Q 309.13 145.20 313.18 140.67
  Q 313.60 140.20 313.82 140.79
  Z
  M 421.86 139.50
  C 417.69 138.94 420.63 132.80 421.58 130.88
  Q 423.65 126.70 428.67 123.93
  Q 434.04 120.97 439.20 117.98
  Q 441.56 116.62 441.72 114.00
  C 441.92 110.66 440.99 106.42 438.56 103.85
  C 433.29 98.30 419.22 123.26 417.42 126.63
  C 415.13 130.92 412.82 136.32 414.66 141.00
  C 416.50 145.70 423.34 144.69 426.92 142.88
  Q 432.09 140.26 434.62 133.43
  Q 435.66 130.63 434.85 127.90
  C 433.12 122.01 425.17 125.98 429.27 131.68
  A 1.64 1.64 0.0 0 1 429.45 133.28
  C 428.40 135.74 425.02 139.91 421.86 139.50
  Z
  M 629.63 125.01
  Q 627.50 122.67 624.06 122.95
  Q 614.67 123.74 610.97 133.77
  C 609.55 137.63 603.19 139.80 599.83 139.76
  A 3.61 3.60 -17.1 0 1 596.91 138.22
  Q 596.54 137.70 596.42 137.04
  Q 596.20 135.75 597.50 135.90
  C 603.68 136.64 613.01 133.98 611.63 126.00
  C 610.73 120.85 602.68 122.18 599.64 123.82
  C 594.62 126.52 588.07 134.88 591.64 141.09
  Q 593.57 144.46 598.38 144.51
  Q 604.78 144.58 610.03 140.33
  A 0.38 0.38 0.0 0 1 610.62 140.48
  C 613.15 146.87 620.80 145.34 624.68 141.37
  Q 625.01 141.04 625.38 141.32
  Q 625.58 141.46 625.52 141.70
  Q 625.36 142.29 625.72 142.78
  C 628.80 146.91 635.19 142.81 637.81 140.07
  A 1.75 1.75 0.0 0 0 636.40 137.12
  C 634.51 137.27 633.60 138.92 631.37 139.01
  Q 630.70 139.04 630.71 138.38
  Q 630.75 136.26 631.63 134.22
  Q 637.11 121.50 644.08 112.36
  Q 646.02 109.82 643.74 107.59
  Q 643.47 107.33 643.17 107.11
  Q 640.59 105.22 639.11 108.06
  L 630.32 124.92
  Q 630.04 125.46 629.63 125.01
  Z
  M 369.75 142.81
  C 368.74 145.99 364.47 155.62 360.00 153.78
  C 356.99 152.55 358.46 149.05 359.29 146.87
  A 1.39 1.38 -83.2 0 0 357.82 145.00
  C 352.70 145.68 350.87 151.92 353.62 155.80
  Q 356.59 159.99 361.99 159.02
  C 369.40 157.70 372.62 149.61 374.68 143.19
  Q 377.32 134.99 382.00 127.36
  Q 382.27 126.93 382.03 126.48
  Q 380.62 123.87 377.68 123.52
  A 1.20 1.19 10.1 0 0 376.38 124.42
  C 375.13 129.48 370.66 138.64 365.08 139.26
  A 1.44 1.44 0.0 0 1 363.48 137.91
  C 363.27 134.05 366.01 130.41 368.36 127.56
  Q 370.03 125.54 367.90 124.01
  L 366.26 122.83
  Q 364.62 121.66 363.60 123.39
  Q 359.76 129.93 357.30 136.47
  Q 356.70 138.06 355.09 138.61
  Q 354.85 138.69 353.85 139.02
  Q 352.19 139.58 352.62 137.88
  Q 353.09 136.01 354.62 134.32
  Q 356.13 132.66 354.26 131.42
  Q 353.47 130.89 352.54 130.65
  Q 350.24 130.05 349.39 132.27
  C 348.15 135.48 346.41 138.15 343.07 139.43
  A 2.16 2.15 66.4 0 1 340.37 138.37
  Q 339.82 137.27 340.05 136.02
  Q 341.06 130.54 345.86 127.95
  C 348.53 126.51 349.24 128.12 351.29 129.11
  A 2.30 2.29 -61.0 0 0 354.21 128.27
  Q 355.32 126.53 354.37 124.71
  C 353.13 122.33 348.82 122.21 346.67 122.67
  C 340.33 124.01 334.22 130.98 334.20 137.80
  C 334.19 145.24 342.10 146.45 346.27 141.81
  A 0.34 0.34 0.0 0 1 346.83 141.88
  C 348.87 145.71 354.12 144.38 356.91 142.20
  A 1.06 1.06 0.0 0 1 358.28 142.26
  C 361.04 144.82 365.93 145.15 369.26 142.48
  Q 370.05 141.85 369.75 142.81
  Z
  M 395.48 127.89
  L 394.08 128.45
  A 1.34 1.34 0.0 0 0 393.87 130.82
  C 396.47 132.47 400.59 131.08 400.63 127.78
  C 400.68 124.50 397.64 122.63 394.70 122.31
  Q 388.37 121.62 385.05 125.91
  C 381.29 130.78 386.69 133.98 389.96 136.53
  A 1.51 1.51 0.0 0 1 389.79 139.02
  C 387.52 140.35 382.52 139.16 384.13 135.55
  A 1.98 1.97 11.2 0 0 382.27 132.78
  Q 380.69 132.82 379.71 134.25
  C 377.05 138.15 380.36 142.57 384.34 143.82
  Q 388.78 145.22 393.19 143.26
  C 396.98 141.58 398.42 137.59 394.64 134.58
  C 392.75 133.08 387.96 130.24 390.46 127.53
  Q 392.42 125.40 395.48 126.62
  Q 397.06 127.25 395.48 127.89
  Z
  M 441.42 135.91
  C 447.58 136.71 456.99 133.96 455.65 126.02
  C 455.16 123.13 451.95 122.25 449.46 122.31
  C 442.82 122.46 437.85 127.39 435.34 133.58
  C 433.69 137.64 434.95 142.95 439.48 144.07
  C 446.13 145.71 452.67 142.33 457.25 137.66
  Q 458.28 136.61 457.70 135.25
  L 457.42 134.60
  A 1.04 1.04 0.0 0 0 455.81 134.20
  C 452.18 137.10 448.48 140.04 443.58 139.72
  A 3.59 3.57 72.3 0 1 441.02 138.39
  Q 440.52 137.76 440.41 136.92
  Q 440.26 135.76 441.42 135.91
  Z"
/>
<path fill="#000000" d="
  M 651.87 84.85
  Q 652.60 74.43 651.76 66.82
  C 651.57 65.08 650.82 62.82 648.96 62.13
  C 646.58 61.26 644.09 61.18 641.56 61.23
  Q 641.00 61.23 641.00 60.68
  L 641.00 58.56
  Q 641.00 58.12 641.44 58.11
  L 668.80 57.60
  A 0.20 0.20 0.0 0 1 669.00 57.80
  L 668.98 61.13
  Q 668.98 61.36 668.75 61.33
  Q 662.75 60.50 662.32 66.13
  Q 661.55 76.37 662.38 88.43
  Q 662.42 88.98 661.89 89.11
  Q 654.81 90.76 647.42 92.09
  C 630.63 95.10 613.51 91.76 603.42 77.21
  Q 599.16 71.08 597.83 62.71
  C 595.34 47.00 599.94 32.36 613.40 23.08
  Q 621.96 17.17 633.34 16.18
  Q 647.53 14.96 661.44 19.55
  Q 661.97 19.72 661.98 20.27
  Q 662.12 27.93 663.60 34.92
  Q 663.71 35.45 663.19 35.57
  L 660.05 36.31
  Q 659.44 36.46 659.30 35.85
  C 656.65 23.94 646.15 22.08 635.81 22.21
  C 612.42 22.51 605.62 44.05 609.82 63.49
  C 614.09 83.22 632.80 92.50 651.31 85.60
  Q 651.83 85.41 651.87 84.85
  Z"
/>
<path fill="#000000" d="
  M 507.65 24.02
  Q 497.13 23.77 491.02 24.76
  C 486.28 25.53 484.92 29.71 483.87 34.07
  Q 483.70 34.76 483.01 34.60
  L 480.92 34.12
  Q 480.09 33.92 480.27 33.09
  Q 481.94 25.56 482.15 17.72
  Q 482.17 17.06 482.80 17.25
  Q 487.55 18.64 494.15 18.75
  Q 515.60 19.12 535.77 18.61
  Q 539.97 18.50 544.19 17.10
  A 0.26 0.26 0.0 0 1 544.53 17.35
  Q 544.22 25.37 545.49 32.91
  Q 545.65 33.81 544.74 33.97
  L 542.80 34.30
  Q 541.89 34.45 541.84 33.53
  Q 541.38 24.82 531.83 24.32
  Q 524.17 23.92 519.00 24.05
  Q 518.49 24.06 518.49 24.57
  Q 518.51 33.71 518.36 43.76
  Q 518.07 63.07 518.76 81.02
  C 519.03 88.07 522.54 87.51 528.04 88.04
  A 0.24 0.23 5.4 0 1 528.25 88.28
  L 528.24 90.75
  A 0.25 0.24 -90.0 0 1 528.00 91.00
  L 499.13 91.00
  Q 498.27 91.00 498.26 90.13
  L 498.24 88.68
  A 0.86 0.85 1.9 0 1 499.16 87.82
  Q 507.33 88.47 507.66 82.09
  Q 507.98 75.97 508.09 67.27
  Q 508.38 42.79 508.22 24.60
  Q 508.21 24.04 507.65 24.02
  Z"
/>
<path fill="#000000" d="
  M 210.52 60.85
  Q 210.44 69.89 210.55 78.31
  Q 210.59 80.86 211.26 83.75
  C 212.20 87.80 216.52 87.65 219.88 87.86
  A 0.66 0.66 0.0 0 1 220.50 88.52
  L 220.51 90.37
  Q 220.51 91.00 219.88 91.00
  L 192.25 91.00
  Q 191.75 91.00 191.75 90.50
  L 191.75 88.20
  Q 191.75 87.67 192.28 87.72
  C 198.00 88.30 200.02 86.07 200.58 80.48
  C 201.12 75.02 200.86 70.32 200.82 65.16
  Q 200.67 46.26 200.70 27.29
  C 200.71 23.13 197.45 21.63 193.53 21.72
  Q 193.00 21.73 193.00 21.20
  L 193.00 18.73
  Q 193.00 17.94 193.79 17.95
  Q 206.30 18.11 220.46 17.92
  C 229.85 17.80 237.48 19.01 243.55 25.72
  C 248.21 30.89 249.00 38.73 247.14 45.12
  C 242.67 60.39 225.27 62.55 211.20 60.27
  Q 210.52 60.16 210.52 60.85
  Z
  M 231.21 26.58
  C 225.75 22.51 217.65 22.67 211.21 23.96
  Q 210.66 24.07 210.65 24.63
  L 210.44 54.37
  Q 210.43 54.90 210.95 55.01
  C 221.22 57.13 234.54 55.60 236.97 43.56
  Q 239.20 32.53 231.21 26.58
  Z"
/>
<path fill="#000000" d="
  M 72.88 94.17
  A 0.23 0.22 6.0 0 0 72.65 93.90
  Q 61.60 93.87 46.89 93.90
  Q 45.01 93.91 44.11 92.33
  C 42.66 89.81 44.52 87.76 45.86 85.84
  Q 68.03 53.97 90.27 21.70
  C 92.67 18.22 97.35 20.66 96.40 24.48
  C 94.96 30.26 94.07 36.24 92.64 42.01
  Q 89.71 53.91 87.39 66.13
  Q 87.26 66.80 87.94 66.80
  L 114.92 66.83
  A 0.80 0.80 0.0 0 1 115.46 67.04
  Q 118.49 69.83 116.04 72.99
  Q 90.89 105.55 65.44 138.78
  C 62.86 142.15 57.90 140.29 59.19 136.22
  Q 65.24 117.23 71.59 98.79
  Q 72.38 96.48 72.88 94.17
  Z
  M 80.72 88.76
  A 2.57 2.53 -53.7 0 1 81.05 91.02
  L 72.18 117.98
  Q 71.63 119.66 72.71 118.26
  L 106.41 74.50
  Q 107.15 73.53 105.93 73.53
  L 82.81 73.53
  A 3.21 3.20 -83.8 0 1 79.68 69.64
  L 86.17 39.77
  Q 86.28 39.26 85.99 39.69
  L 53.47 86.71
  A 0.26 0.26 0.0 0 0 53.69 87.12
  Q 65.89 87.06 77.45 87.13
  Q 79.58 87.14 80.72 88.76
  Z"
/>
<path fill="#ffffff" d="
  M 231.21 26.58
  Q 239.20 32.53 236.97 43.56
  C 234.54 55.60 221.22 57.13 210.95 55.01
  Q 210.43 54.90 210.44 54.37
  L 210.65 24.63
  Q 210.66 24.07 211.21 23.96
  C 217.65 22.67 225.75 22.51 231.21 26.58
  Z"
/>
<path fill="#000000" d="
  M 0.00 112.52
  L 0.00 41.19
  C 1.11 33.39 7.71 26.86 15.84 26.82
  Q 41.19 26.69 63.98 26.81
  Q 66.76 26.83 66.78 29.61
  L 66.78 30.12
  Q 66.80 33.42 63.51 33.42
  Q 43.55 33.46 16.69 33.42
  Q 13.57 33.41 11.53 34.75
  C 8.68 36.61 6.47 39.67 6.47 43.21
  Q 6.44 79.67 6.49 110.98
  C 6.50 114.86 9.57 118.44 12.89 119.86
  Q 15.18 120.83 19.04 120.77
  Q 31.21 120.58 43.09 120.74
  Q 46.12 120.78 46.75 123.74
  Q 46.87 124.32 46.62 124.88
  Q 45.53 127.36 42.82 127.34
  Q 30.46 127.21 18.45 127.38
  Q 13.58 127.46 10.06 125.94
  Q 1.62 122.31 0.00 112.52
  Z"
/>
<path fill="#000000" d="
  M 147.44 107.77
  Q 147.93 115.52 143.80 120.93
  Q 140.19 125.64 133.59 127.11
  Q 132.83 127.28 121.92 127.31
  Q 110.07 127.33 97.19 127.30
  Q 94.88 127.29 94.11 125.12
  Q 93.88 124.49 93.93 123.87
  Q 94.14 120.71 97.31 120.71
  Q 114.00 120.67 129.76 120.71
  Q 136.87 120.72 139.75 114.56
  C 141.20 111.46 140.66 107.33 140.68 103.90
  A 3.60 3.60 0.0 0 1 144.27 100.32
  L 151.00 100.29
  A 3.19 3.19 0.0 0 0 154.18 97.10
  Q 154.19 78.31 154.19 57.14
  C 154.19 52.18 146.90 53.64 143.98 53.51
  A 3.40 3.40 0.0 0 1 140.72 50.19
  C 140.63 46.49 141.25 42.36 139.56 38.95
  C 137.66 35.11 134.40 33.31 130.10 33.38
  Q 120.65 33.52 110.76 33.40
  Q 107.57 33.37 107.11 30.20
  Q 106.89 28.70 108.82 27.30
  A 2.74 2.74 0.0 0 1 110.38 26.79
  Q 123.14 26.65 132.00 26.88
  C 134.68 26.95 137.51 27.74 139.76 29.33
  Q 148.10 35.19 147.44 46.08
  Q 147.39 46.82 148.13 46.79
  C 149.97 46.73 151.95 46.64 153.68 47.27
  C 159.85 49.56 161.10 53.86 161.04 60.07
  Q 160.88 78.38 160.98 95.84
  C 161.03 103.62 155.56 107.84 148.20 107.05
  Q 147.39 106.96 147.44 107.77
  Z"
/>
<path fill="#000000" d="
  M 265.6314 90.2883
  A 26.98 25.87 113.2 0 1 252.4820 55.2987
  A 26.98 25.87 113.2 0 1 286.8886 40.6917
  A 26.98 25.87 113.2 0 1 300.0380 75.6813
  A 26.98 25.87 113.2 0 1 265.6314 90.2883
  Z
  M 290.32 55.01
  C 287.52 47.81 280.98 43.30 272.92 44.36
  C 266.98 45.15 262.37 50.10 261.07 55.75
  Q 258.53 66.86 263.10 76.98
  C 266.09 83.63 271.97 87.88 279.57 86.61
  Q 287.58 85.27 290.82 77.17
  Q 294.94 66.88 290.32 55.01
  Z"
/>
<path fill="#000000" d="
  M 401.00 63.01
  C 400.52 73.79 404.92 83.80 416.75 84.75
  Q 425.44 85.46 433.81 79.64
  Q 433.99 79.51 434.11 79.70
  L 436.10 82.92
  Q 436.21 83.09 436.05 83.23
  C 427.77 90.36 416.87 94.50 406.40 90.62
  C 381.53 81.41 389.63 35.38 418.72 39.12
  C 430.28 40.61 435.50 50.61 436.22 61.40
  Q 436.26 62.06 435.60 62.05
  Q 421.24 61.87 405.77 62.12
  Q 403.74 62.15 401.57 62.39
  Q 401.02 62.45 401.00 63.01
  Z
  M 426.23 56.34
  C 425.06 52.42 423.46 48.60 420.16 46.17
  Q 415.45 42.68 409.76 45.17
  C 404.98 47.26 402.27 52.95 401.43 57.95
  Q 401.34 58.47 401.87 58.48
  Q 414.29 58.73 425.67 57.20
  A 0.68 0.67 78.2 0 0 426.23 56.34
  Z"
/>
<path fill="#000000" d="
  M 459.22 52.01
  C 462.24 46.93 466.55 40.52 472.76 39.94
  C 477.20 39.53 480.85 41.86 479.93 46.74
  C 479.47 49.17 476.36 50.81 474.07 49.51
  C 467.61 45.81 463.06 51.23 459.88 56.29
  Q 458.85 57.93 458.92 60.03
  Q 459.20 69.01 459.28 78.00
  Q 459.30 80.29 459.73 82.74
  C 460.45 86.90 464.33 86.88 467.63 86.91
  A 0.63 0.63 0.0 0 1 468.26 87.54
  L 468.24 90.52
  A 0.56 0.56 0.0 0 1 467.60 91.07
  C 459.57 89.91 451.33 89.92 443.35 91.05
  Q 442.75 91.14 442.75 90.53
  L 442.74 87.50
  Q 442.74 87.09 443.14 86.98
  C 444.53 86.62 446.11 87.00 447.36 86.34
  Q 450.16 84.83 450.19 81.12
  Q 450.32 66.32 450.21 51.23
  Q 450.20 48.97 448.78 47.44
  A 1.38 1.38 0.0 0 0 447.77 47.00
  L 444.79 47.00
  Q 444.03 47.00 444.04 46.24
  Q 444.04 45.28 443.73 44.36
  A 0.57 0.57 0.0 0 1 444.14 43.62
  Q 451.35 41.94 458.88 39.05
  A 0.47 0.47 0.0 0 1 459.51 39.54
  Q 458.88 45.77 458.74 51.87
  Q 458.72 52.85 459.22 52.01
  Z"
/>
<path fill="#000000" d="
  M 552.6314 90.2883
  A 26.98 25.87 113.2 0 1 539.4820 55.2987
  A 26.98 25.87 113.2 0 1 573.8886 40.6917
  A 26.98 25.87 113.2 0 1 587.0380 75.6813
  A 26.98 25.87 113.2 0 1 552.6314 90.2883
  Z
  M 577.34 54.98
  C 574.78 48.83 569.52 44.22 562.41 44.18
  C 554.74 44.14 549.23 49.52 547.83 56.73
  C 545.95 66.44 548.54 83.80 560.59 86.44
  C 569.19 88.32 576.43 83.31 578.62 74.99
  Q 581.36 64.62 577.34 54.98
  Z"
/>
<path fill="#000000" d="
  M 690.6314 90.2883
  A 26.98 25.87 113.2 0 1 677.4820 55.2987
  A 26.98 25.87 113.2 0 1 711.8886 40.6917
  A 26.98 25.87 113.2 0 1 725.0380 75.6813
  A 26.98 25.87 113.2 0 1 690.6314 90.2883
  Z
  M 715.35 55.01
  C 713.28 49.72 708.35 44.94 702.34 44.29
  C 692.14 43.19 685.99 50.65 685.31 60.05
  C 684.69 68.74 686.60 78.11 693.29 83.83
  Q 695.94 86.10 699.10 86.54
  Q 711.16 88.22 715.70 77.36
  Q 720.04 67.01 715.35 55.01
  Z"
/>
<path fill="#ffffff" d="
  M 80.72 88.76
  Q 79.58 87.14 77.45 87.13
  Q 65.89 87.06 53.69 87.12
  A 0.26 0.26 0.0 0 1 53.47 86.71
  L 85.99 39.69
  Q 86.28 39.26 86.17 39.77
  L 79.68 69.64
  A 3.21 3.20 -83.8 0 0 82.81 73.53
  L 105.93 73.53
  Q 107.15 73.53 106.41 74.50
  L 72.71 118.26
  Q 71.63 119.66 72.18 117.98
  L 81.05 91.02
  A 2.57 2.53 -53.7 0 0 80.72 88.76
  Z"
/>
<path fill="#000000" d="
  M 332.61 78.71
  L 345.40 51.95
  Q 345.64 51.46 345.48 50.94
  Q 344.99 49.23 344.28 47.40
  C 342.93 43.93 340.49 44.24 337.50 43.99
  Q 337.24 43.96 337.24 43.70
  L 337.25 41.25
  A 0.25 0.25 0.0 0 1 337.50 41.00
  L 358.61 41.00
  Q 358.98 41.00 358.98 41.36
  L 359.01 43.35
  A 0.62 0.61 -6.2 0 1 358.51 43.96
  C 357.10 44.24 354.91 44.00 354.05 45.34
  Q 353.03 46.90 353.75 49.02
  Q 359.02 64.71 363.83 78.49
  Q 364.05 79.13 364.31 78.50
  Q 370.56 63.39 375.58 48.44
  Q 376.34 46.18 374.60 44.87
  C 373.34 43.92 371.35 44.36 369.79 44.01
  Q 369.51 43.95 369.51 43.67
  L 369.49 41.51
  Q 369.48 41.00 369.99 41.00
  L 387.26 41.00
  A 0.51 0.51 0.0 0 1 387.77 41.51
  L 387.74 43.74
  Q 387.73 44.24 387.23 44.22
  Q 383.77 44.04 382.03 48.04
  Q 372.52 69.85 363.90 91.49
  A 0.82 0.82 0.0 0 1 363.14 92.00
  L 360.31 92.01
  Q 359.56 92.02 359.31 91.31
  L 347.72 59.11
  A 0.21 0.21 0.0 0 0 347.33 59.08
  Q 338.63 74.90 331.91 91.33
  Q 331.64 92.01 330.91 92.01
  L 328.62 92.00
  Q 327.79 92.00 327.52 91.22
  Q 320.69 71.95 312.47 49.26
  Q 311.57 46.78 309.86 44.94
  Q 309.53 44.58 309.04 44.49
  L 306.99 44.10
  Q 306.50 44.00 306.50 43.50
  L 306.50 41.50
  Q 306.50 41.00 307.00 41.00
  L 326.76 41.00
  Q 327.26 41.00 327.26 41.51
  L 327.24 43.65
  Q 327.24 44.18 326.70 44.17
  C 320.93 44.02 320.64 46.92 322.11 51.05
  Q 326.95 64.66 331.90 78.68
  Q 332.21 79.55 332.61 78.71
  Z"
/>
<path fill="#ffffff" d="
  M 290.32 55.01
  Q 294.94 66.88 290.82 77.17
  Q 287.58 85.27 279.57 86.61
  C 271.97 87.88 266.09 83.63 263.10 76.98
  Q 258.53 66.86 261.07 55.75
  C 262.37 50.10 266.98 45.15 272.92 44.36
  C 280.98 43.30 287.52 47.81 290.32 55.01
  Z"
/>
<path fill="#ffffff" d="
  M 420.16 46.17
  C 423.46 48.60 425.06 52.42 426.23 56.34
  A 0.68 0.67 78.2 0 1 425.67 57.20
  Q 414.29 58.73 401.87 58.48
  Q 401.34 58.47 401.43 57.95
  C 402.27 52.95 404.98 47.26 409.76 45.17
  Q 415.45 42.68 420.16 46.17
  Z"
/>
<path fill="#ffffff" d="
  M 577.34 54.98
  Q 581.36 64.62 578.62 74.99
  C 576.43 83.31 569.19 88.32 560.59 86.44
  C 548.54 83.80 545.95 66.44 547.83 56.73
  C 549.23 49.52 554.74 44.14 562.41 44.18
  C 569.52 44.22 574.78 48.83 577.34 54.98
  Z"
/>
<path fill="#ffffff" d="
  M 715.35 55.01
  Q 720.04 67.01 715.70 77.36
  Q 711.16 88.22 699.10 86.54
  Q 695.94 86.10 693.29 83.83
  C 686.60 78.11 684.69 68.74 685.31 60.05
  C 685.99 50.65 692.14 43.19 702.34 44.29
  C 708.35 44.94 713.28 49.72 715.35 55.01
  Z"
/>
<path fill="#000000" d="
  M 275.08 127.69
  C 272.24 127.89 267.62 127.88 265.34 129.80
  C 258.38 135.61 250.03 142.34 241.29 144.55
  A 2.36 2.36 0.0 0 1 238.42 142.83
  C 237.47 138.96 240.45 128.22 245.24 127.33
  Q 253.43 125.81 260.73 124.79
  C 263.18 124.45 265.60 122.30 267.38 120.63
  Q 277.17 111.40 285.43 104.58
  Q 289.18 101.49 293.39 103.17
  A 2.42 2.42 0.0 0 1 294.80 106.17
  C 294.43 107.32 294.09 108.57 293.44 109.59
  Q 289.54 115.74 284.92 122.60
  Q 284.59 123.08 285.10 123.38
  Q 285.52 123.62 286.02 123.66
  A 0.77 0.77 0.0 0 1 286.65 124.77
  C 285.99 126.10 284.74 127.60 283.15 127.66
  Q 282.48 127.68 281.87 127.93
  Q 281.36 128.15 281.08 128.62
  C 278.44 133.20 275.57 136.93 275.47 142.01
  Q 275.42 144.74 272.69 144.87
  Q 271.50 144.93 270.40 144.47
  Q 268.33 143.59 268.65 141.37
  C 269.31 136.82 272.72 132.00 275.43 128.34
  Q 275.95 127.63 275.08 127.69
  Z
  M 287.18 110.30
  Q 288.70 108.00 286.61 109.79
  Q 280.09 115.36 271.83 123.76
  Q 271.76 123.84 271.87 123.83
  L 277.73 123.53
  A 0.53 0.52 15.3 0 0 278.11 123.32
  Q 282.70 117.06 287.18 110.30
  Z
  M 243.68 137.67
  Q 243.13 138.92 244.37 138.36
  Q 250.64 135.53 256.32 130.35
  Q 257.09 129.65 256.06 129.83
  Q 251.65 130.57 247.34 131.99
  Q 246.04 132.41 245.48 133.66
  L 243.68 137.67
  Z"
/>
<path fill="#000000" d="
  M 511.03 127.76
  Q 514.63 125.00 519.08 124.09
  C 522.55 123.38 525.19 126.79 523.35 129.93
  Q 521.09 133.78 518.71 137.76
  A 0.81 0.81 0.0 0 0 519.60 138.96
  C 522.22 138.34 525.85 136.38 526.94 133.62
  C 529.34 127.55 534.57 122.37 541.27 122.44
  C 544.41 122.47 548.29 124.35 546.24 128.16
  A 2.25 2.25 0.0 0 1 543.22 129.09
  C 541.18 128.02 540.35 126.50 537.72 128.02
  Q 532.48 131.05 532.02 136.76
  C 531.81 139.41 534.36 140.21 536.32 138.91
  Q 540.23 136.33 541.50 131.89
  Q 541.69 131.19 542.35 130.89
  Q 544.52 129.90 546.59 131.70
  Q 547.99 132.93 546.68 134.26
  Q 545.20 135.75 544.94 136.78
  Q 543.87 140.98 547.22 138.23
  Q 552.54 133.87 556.49 125.60
  Q 556.74 125.07 556.31 124.67
  C 550.57 119.30 562.68 114.64 561.02 123.07
  Q 560.93 123.51 561.31 123.76
  L 565.14 126.22
  Q 567.18 127.53 565.70 129.45
  C 564.02 131.64 561.20 135.07 561.37 137.95
  Q 561.41 138.65 562.10 138.71
  C 565.50 139.00 569.16 134.15 570.15 131.72
  C 572.97 124.85 581.00 120.33 587.82 123.57
  Q 590.33 124.76 588.84 127.10
  L 588.66 127.38
  Q 587.30 129.53 585.10 128.24
  Q 581.59 126.17 578.06 129.31
  C 575.67 131.42 573.38 134.94 574.35 138.24
  A 1.48 1.47 72.8 0 0 576.21 139.23
  Q 581.97 137.42 584.60 131.80
  A 1.99 1.99 0.0 0 1 586.94 130.74
  Q 588.96 131.32 589.05 131.35
  Q 590.65 131.81 590.07 133.29
  Q 586.45 142.46 582.83 150.65
  Q 579.32 158.57 571.37 159.20
  C 566.93 159.54 562.80 156.77 562.68 152.05
  C 562.60 148.74 564.68 144.61 568.53 144.83
  A 1.42 1.41 -74.1 0 1 569.69 146.93
  C 568.94 148.31 568.01 149.78 568.35 151.44
  C 568.95 154.35 572.72 154.27 574.53 152.96
  C 578.18 150.31 580.02 144.96 581.37 140.76
  Q 581.48 140.41 581.23 140.68
  C 578.04 144.04 570.83 146.66 568.84 140.23
  Q 568.63 139.54 568.13 140.06
  Q 564.75 143.59 560.86 144.06
  C 558.09 144.39 554.62 142.24 554.98 139.05
  Q 555.22 136.86 556.20 135.18
  Q 558.39 131.44 560.54 127.39
  Q 560.60 127.28 560.49 127.21
  L 560.15 127.02
  A 0.26 0.25 29.2 0 0 559.81 127.11
  Q 554.41 136.47 551.35 140.11
  C 548.49 143.52 541.85 146.71 538.75 141.85
  Q 538.53 141.51 538.26 141.82
  C 535.22 145.32 528.11 145.88 526.62 140.49
  Q 526.46 139.89 525.99 140.30
  Q 521.98 143.83 517.46 144.43
  C 514.65 144.81 511.34 142.70 512.12 139.48
  C 512.79 136.74 515.05 133.78 516.62 131.46
  A 1.76 1.76 0.0 0 0 516.82 129.88
  Q 516.44 128.84 515.37 129.06
  Q 513.65 129.41 512.29 130.43
  Q 504.78 136.06 503.36 143.73
  Q 503.19 144.65 502.25 144.70
  C 499.47 144.84 498.76 142.49 499.07 140.17
  Q 499.17 139.45 498.53 139.80
  C 493.63 142.49 486.22 145.49 480.71 144.15
  C 470.48 141.66 473.46 128.94 477.23 122.22
  C 482.17 113.45 490.25 105.49 500.19 103.36
  C 503.67 102.62 509.30 103.18 509.96 107.50
  C 510.61 111.72 505.90 114.36 502.37 114.64
  A 1.33 1.31 -13.1 0 1 501.05 113.83
  Q 500.79 113.17 501.12 112.53
  Q 501.82 111.14 502.93 109.97
  A 0.70 0.70 0.0 0 0 502.52 108.80
  C 499.12 108.30 496.53 109.96 493.94 111.82
  Q 483.62 119.23 480.50 130.16
  C 476.43 144.38 494.47 137.84 499.41 134.92
  C 500.15 134.48 500.77 133.37 501.08 132.58
  Q 505.51 121.20 513.15 111.12
  Q 516.50 106.71 520.31 103.64
  Q 523.17 101.34 525.30 103.94
  Q 528.09 107.35 528.05 112.91
  C 528.03 115.31 526.93 116.86 524.95 118.10
  Q 517.91 122.53 510.82 127.43
  Q 510.76 127.47 510.80 127.52
  L 510.94 127.75
  A 0.06 0.06 0.0 0 0 511.03 127.76
  Z
  M 523.12 110.01
  Q 522.90 109.52 522.81 108.99
  Q 522.67 108.16 522.09 108.77
  Q 516.07 115.19 511.42 122.69
  Q 510.85 123.62 511.77 123.04
  Q 516.81 119.88 521.74 115.82
  C 523.60 114.29 524.07 112.16 523.12 110.01
  Z"
/>
<path fill="#000000" d="
  M 313.18 140.67
  Q 309.13 145.20 303.91 144.23
  Q 300.86 143.67 299.77 140.65
  A 0.40 0.40 0.0 0 0 299.13 140.49
  C 290.95 147.63 278.95 144.93 284.31 131.58
  Q 290.02 117.37 300.74 105.86
  C 302.27 104.22 305.83 101.35 307.89 103.78
  C 310.88 107.30 313.10 114.94 308.16 118.19
  Q 299.03 124.21 292.59 129.34
  Q 289.89 131.49 288.86 135.59
  C 288.24 138.08 290.16 139.42 292.45 138.81
  C 295.47 137.99 299.28 136.28 300.63 133.35
  Q 302.84 128.54 305.18 124.21
  Q 306.44 121.89 308.72 123.21
  L 309.61 123.73
  Q 312.14 125.20 310.47 127.61
  Q 307.57 131.77 305.59 135.93
  C 304.80 137.59 305.63 139.75 307.73 139.19
  C 312.19 138.00 314.57 131.16 315.76 127.11
  A 2.99 2.99 0.0 0 1 320.25 125.46
  L 321.04 125.96
  Q 323.31 127.44 321.70 129.62
  Q 318.55 133.90 318.49 137.57
  A 1.83 1.82 89.9 0 0 320.35 139.43
  C 323.04 139.38 325.78 135.03 326.42 132.97
  Q 327.45 129.63 328.21 125.81
  Q 328.66 123.51 330.99 123.65
  Q 331.56 123.69 332.10 123.95
  Q 334.64 125.18 333.99 127.92
  C 332.28 135.15 328.45 143.90 319.96 144.46
  Q 315.29 144.77 313.82 140.79
  Q 313.60 140.20 313.18 140.67
  Z
  M 294.61 122.49
  Q 293.73 123.88 295.12 123.00
  Q 300.41 119.65 305.17 115.53
  Q 306.76 114.15 306.42 112.07
  Q 306.26 111.09 306.11 110.07
  Q 305.82 108.07 304.46 109.56
  Q 299.16 115.33 294.61 122.49
  Z"
/>
<path fill="#000000" d="
  M 421.58 130.88
  C 420.63 132.80 417.69 138.94 421.86 139.50
  C 425.02 139.91 428.40 135.74 429.45 133.28
  A 1.64 1.64 0.0 0 0 429.27 131.68
  C 425.17 125.98 433.12 122.01 434.85 127.90
  Q 435.66 130.63 434.62 133.43
  Q 432.09 140.26 426.92 142.88
  C 423.34 144.69 416.50 145.70 414.66 141.00
  C 412.82 136.32 415.13 130.92 417.42 126.63
  C 419.22 123.26 433.29 98.30 438.56 103.85
  C 440.99 106.42 441.92 110.66 441.72 114.00
  Q 441.56 116.62 439.20 117.98
  Q 434.04 120.97 428.67 123.93
  Q 423.65 126.70 421.58 130.88
  Z
  M 426.67 120.32
  A 0.56 0.56 0.0 0 0 427.41 121.13
  L 436.44 115.29
  A 0.56 0.56 0.0 0 0 436.67 114.99
  L 437.32 113.02
  A 0.56 0.56 0.0 0 0 437.32 112.68
  L 436.33 109.42
  A 0.56 0.56 0.0 0 0 435.36 109.24
  L 426.67 120.32
  Z"
/>
<path fill="#000000" d="
  M 630.32 124.92
  L 639.11 108.06
  Q 640.59 105.22 643.17 107.11
  Q 643.47 107.33 643.74 107.59
  Q 646.02 109.82 644.08 112.36
  Q 637.11 121.50 631.63 134.22
  Q 630.75 136.26 630.71 138.38
  Q 630.70 139.04 631.37 139.01
  C 633.60 138.92 634.51 137.27 636.40 137.12
  A 1.75 1.75 0.0 0 1 637.81 140.07
  C 635.19 142.81 628.80 146.91 625.72 142.78
  Q 625.36 142.29 625.52 141.70
  Q 625.58 141.46 625.38 141.32
  Q 625.01 141.04 624.68 141.37
  C 620.80 145.34 613.15 146.87 610.62 140.48
  A 0.38 0.38 0.0 0 0 610.03 140.33
  Q 604.78 144.58 598.38 144.51
  Q 593.57 144.46 591.64 141.09
  C 588.07 134.88 594.62 126.52 599.64 123.82
  C 602.68 122.18 610.73 120.85 611.63 126.00
  C 613.01 133.98 603.68 136.64 597.50 135.90
  Q 596.20 135.75 596.42 137.04
  Q 596.54 137.70 596.91 138.22
  A 3.61 3.60 -17.1 0 0 599.83 139.76
  C 603.19 139.80 609.55 137.63 610.97 133.77
  Q 614.67 123.74 624.06 122.95
  Q 627.50 122.67 629.63 125.01
  Q 630.04 125.46 630.32 124.92
  Z
  M 605.94 127.34
  C 602.86 126.12 599.85 129.12 598.14 131.46
  A 0.29 0.28 22.3 0 0 598.33 131.91
  Q 602.49 132.48 605.65 131.01
  A 2.39 2.38 -7.3 0 0 607.00 129.27
  Q 607.25 127.86 605.94 127.34
  Z
  M 617.0163 139.2418
  A 7.05 3.90 126.3 0 0 624.3331 135.8689
  A 7.05 3.90 126.3 0 0 625.3637 127.8782
  A 7.05 3.90 126.3 0 0 618.0469 131.2511
  A 7.05 3.90 126.3 0 0 617.0163 139.2418
  Z"
/>
<path fill="#ffffff" d="
  M 523.12 110.01
  C 524.07 112.16 523.60 114.29 521.74 115.82
  Q 516.81 119.88 511.77 123.04
  Q 510.85 123.62 511.42 122.69
  Q 516.07 115.19 522.09 108.77
  Q 522.67 108.16 522.81 108.99
  Q 522.90 109.52 523.12 110.01
  Z"
/>
<path fill="#ffffff" d="
  M 294.61 122.49
  Q 299.16 115.33 304.46 109.56
  Q 305.82 108.07 306.11 110.07
  Q 306.26 111.09 306.42 112.07
  Q 306.76 114.15 305.17 115.53
  Q 300.41 119.65 295.12 123.00
  Q 293.73 123.88 294.61 122.49
  Z"
/>
<path fill="#ffffff" d="
  M 287.18 110.30
  Q 282.70 117.06 278.11 123.32
  A 0.53 0.52 15.3 0 1 277.73 123.53
  L 271.87 123.83
  Q 271.76 123.84 271.83 123.76
  Q 280.09 115.36 286.61 109.79
  Q 288.70 108.00 287.18 110.30
  Z"
/>
<path fill="#ffffff" d="
  M 426.67 120.32
  L 435.36 109.24
  A 0.56 0.56 0.0 0 1 436.33 109.42
  L 437.32 112.68
  A 0.56 0.56 0.0 0 1 437.32 113.02
  L 436.67 114.99
  A 0.56 0.56 0.0 0 1 436.44 115.29
  L 427.41 121.13
  A 0.56 0.56 0.0 0 1 426.67 120.32
  Z"
/>
<path fill="#000000" d="
  M 369.26 142.48
  C 365.93 145.15 361.04 144.82 358.28 142.26
  A 1.06 1.06 0.0 0 0 356.91 142.20
  C 354.12 144.38 348.87 145.71 346.83 141.88
  A 0.34 0.34 0.0 0 0 346.27 141.81
  C 342.10 146.45 334.19 145.24 334.20 137.80
  C 334.22 130.98 340.33 124.01 346.67 122.67
  C 348.82 122.21 353.13 122.33 354.37 124.71
  Q 355.32 126.53 354.21 128.27
  A 2.30 2.29 -61.0 0 1 351.29 129.11
  C 349.24 128.12 348.53 126.51 345.86 127.95
  Q 341.06 130.54 340.05 136.02
  Q 339.82 137.27 340.37 138.37
  A 2.16 2.15 66.4 0 0 343.07 139.43
  C 346.41 138.15 348.15 135.48 349.39 132.27
  Q 350.24 130.05 352.54 130.65
  Q 353.47 130.89 354.26 131.42
  Q 356.13 132.66 354.62 134.32
  Q 353.09 136.01 352.62 137.88
  Q 352.19 139.58 353.85 139.02
  Q 354.85 138.69 355.09 138.61
  Q 356.70 138.06 357.30 136.47
  Q 359.76 129.93 363.60 123.39
  Q 364.62 121.66 366.26 122.83
  L 367.90 124.01
  Q 370.03 125.54 368.36 127.56
  C 366.01 130.41 363.27 134.05 363.48 137.91
  A 1.44 1.44 0.0 0 0 365.08 139.26
  C 370.66 138.64 375.13 129.48 376.38 124.42
  A 1.20 1.19 10.1 0 1 377.68 123.52
  Q 380.62 123.87 382.03 126.48
  Q 382.27 126.93 382.00 127.36
  Q 377.32 134.99 374.68 143.19
  C 372.62 149.61 369.40 157.70 361.99 159.02
  Q 356.59 159.99 353.62 155.80
  C 350.87 151.92 352.70 145.68 357.82 145.00
  A 1.39 1.38 -83.2 0 1 359.29 146.87
  C 358.46 149.05 356.99 152.55 360.00 153.78
  C 364.47 155.62 368.74 145.99 369.75 142.81
  Q 370.05 141.85 369.26 142.48
  Z"
/>
<path fill="#000000" d="
  M 395.48 127.89
  Q 397.06 127.25 395.48 126.62
  Q 392.42 125.40 390.46 127.53
  C 387.96 130.24 392.75 133.08 394.64 134.58
  C 398.42 137.59 396.98 141.58 393.19 143.26
  Q 388.78 145.22 384.34 143.82
  C 380.36 142.57 377.05 138.15 379.71 134.25
  Q 380.69 132.82 382.27 132.78
  A 1.98 1.97 11.2 0 1 384.13 135.55
  C 382.52 139.16 387.52 140.35 389.79 139.02
  A 1.51 1.51 0.0 0 0 389.96 136.53
  C 386.69 133.98 381.29 130.78 385.05 125.91
  Q 388.37 121.62 394.70 122.31
  C 397.64 122.63 400.68 124.50 400.63 127.78
  C 400.59 131.08 396.47 132.47 393.87 130.82
  A 1.34 1.34 0.0 0 1 394.08 128.45
  L 395.48 127.89
  Z"
/>
<path fill="#000000" d="
  M 441.42 135.91
  Q 440.26 135.76 440.41 136.92
  Q 440.52 137.76 441.02 138.39
  A 3.59 3.57 72.3 0 0 443.58 139.72
  C 448.48 140.04 452.18 137.10 455.81 134.20
  A 1.04 1.04 0.0 0 1 457.42 134.60
  L 457.70 135.25
  Q 458.28 136.61 457.25 137.66
  C 452.67 142.33 446.13 145.71 439.48 144.07
  C 434.95 142.95 433.69 137.64 435.34 133.58
  C 437.85 127.39 442.82 122.46 449.46 122.31
  C 451.95 122.25 455.16 123.13 455.65 126.02
  C 456.99 133.96 447.58 136.71 441.42 135.91
  Z
  M 449.91 127.33
  C 446.84 126.14 443.84 129.13 442.14 131.46
  A 0.28 0.27 -67.8 0 0 442.32 131.90
  Q 446.49 132.48 449.65 131.01
  A 2.41 2.40 -7.1 0 0 451.00 129.28
  Q 451.26 127.85 449.91 127.33
  Z"
/>
<path fill="#ffffff" d="
  M 449.91 127.33
  Q 451.26 127.85 451.00 129.28
  A 2.41 2.40 -7.1 0 1 449.65 131.01
  Q 446.49 132.48 442.32 131.90
  A 0.28 0.27 -67.8 0 1 442.14 131.46
  C 443.84 129.13 446.84 126.14 449.91 127.33
  Z"
/>
<path fill="#ffffff" d="
  M 605.94 127.34
  Q 607.25 127.86 607.00 129.27
  A 2.39 2.38 -7.3 0 1 605.65 131.01
  Q 602.49 132.48 598.33 131.91
  A 0.29 0.28 22.3 0 1 598.14 131.46
  C 599.85 129.12 602.86 126.12 605.94 127.34
  Z"
/>
<ellipse fill="#ffffff" cx="0.00" cy="0.00" transform="translate(621.19,133.56) rotate(126.3)" rx="7.05" ry="3.90"/>
<path fill="#ffffff" d="
  M 243.68 137.67
  L 245.48 133.66
  Q 246.04 132.41 247.34 131.99
  Q 251.65 130.57 256.06 129.83
  Q 257.09 129.65 256.32 130.35
  Q 250.64 135.53 244.37 138.36
  Q 243.13 138.92 243.68 137.67
  Z"
/>
</svg>
