<?xml version="1.0" encoding="utf-8"?>
<!-- Generator: Adobe Illustrator 28.0.0, SVG Export Plug-In . SVG Version: 6.00 Build 0)  -->
<svg version="1.1" id="Layer_1" xmlns="http://www.w3.org/2000/svg" xmlns:xlink="http://www.w3.org/1999/xlink" x="0px" y="0px"
	 viewBox="0 0 541.7 173.6" style="enable-background:new 0 0 541.7 173.6;" xml:space="preserve">
<style type="text/css">
	.st0{font-family:'IowanOldStyle-Roman';}
	.st1{font-size:105.4px;}
	.st2{letter-spacing:-4;}
	.st3{letter-spacing:-13;}
	.st4{font-family:'FloridaVibes';}
	.st5{font-size:71.15px;}
	.st6{letter-spacing:-3;}
	.st7{letter-spacing:-1;}
	.st8{letter-spacing:-2;}
	.st9{letter-spacing:1;}
</style>
<text transform="matrix(1 0 0 1 0 89.4399)" class="st0 st1 st2">P</text>
<text transform="matrix(1 0 0 1 58.31 89.4399)" class="st0 st1">ower</text>
<text transform="matrix(1 0 0 1 290.58 89.4399)" class="st0 st1 st3">T</text>
<text transform="matrix(1 0 0 1 343.49 89.4399)" class="st0 st1">oGo</text>
<text transform="matrix(1 0 0 1 51.29 142.75)" class="st4 st5">A</text>
<text transform="matrix(1 0 0 1 97.75 142.75)" class="st4 st5 st6">l</text>
<text transform="matrix(1 0 0 1 114.62 142.75)" class="st4 st5">w</text>
<text transform="matrix(1 0 0 1 148.48 142.75)" class="st4 st5">a</text>
<text transform="matrix(1 0 0 1 172.53 142.75)" class="st4 st5 st7">y</text>
<text transform="matrix(1 0 0 1 194.02 142.75)" class="st4 st5">s </text>
<text transform="matrix(1 0 0 1 228.53 142.75)" class="st4 st5">b</text>
<text transform="matrix(1 0 0 1 249.87 142.75)" class="st4 st5">e </text>
<text transform="matrix(1 0 0 1 282.89 142.75)" class="st4 st5 st8">C</text>
<text transform="matrix(1 0 0 1 314.91 142.75)" class="st4 st5">h</text>
<text transform="matrix(1 0 0 1 340.31 142.75)" class="st4 st5 st9">a</text>
<text transform="matrix(1 0 0 1 366.7 142.75)" class="st4 st5">r</text>
<text transform="matrix(1 0 0 1 383.78 142.75)" class="st4 st5">g</text>
<text transform="matrix(1 0 0 1 405.48 142.75)" class="st4 st5">ed</text>
</svg>
